{"glyphs":{"0":{"ha":640,"x_min":32,"x_max":624,"o":"m 590 789 q 617 713 610 751 q 624 635 624 675 l 624 474 l 624 313 q 617 233 624 271 q 590 158 610 196 q 481 42 551 85 q 328 0 411 0 q 175 42 244 0 q 67 157 106 85 q 40 233 47 196 q 32 313 32 271 l 32 474 l 32 635 q 40 714 32 676 q 67 789 47 751 q 175 905 106 863 q 328 947 244 947 q 481 905 411 947 q 590 789 551 863 m 331 892 q 292 876 308 892 q 276 836 276 860 q 292 797 276 813 q 331 782 308 782 q 370 797 354 782 q 386 836 386 813 q 370 876 386 860 q 331 892 354 892 m 207 854 q 167 839 183 854 q 151 800 151 824 q 167 760 151 776 q 207 744 183 744 q 245 760 229 744 q 261 800 261 776 q 245 839 261 824 q 207 854 229 854 m 150 738 q 110 722 126 738 q 94 683 94 707 q 110 644 94 660 q 150 628 126 628 q 190 644 174 628 q 206 683 206 660 q 190 722 206 707 q 150 738 174 738 m 150 604 q 110 588 126 604 q 94 549 94 572 q 110 510 94 525 q 150 494 126 494 q 190 510 174 494 q 206 549 206 525 q 190 588 206 572 q 150 604 174 604 m 150 458 q 110 443 126 458 q 94 404 94 428 q 110 365 94 381 q 150 349 126 349 q 190 365 174 349 q 206 404 206 381 q 190 443 206 428 q 150 458 174 458 m 93 269 q 109 231 93 246 q 147 215 125 215 q 187 231 171 215 q 203 269 203 246 q 187 309 203 293 q 147 325 171 325 q 109 309 125 325 q 93 269 93 293 m 210 100 q 249 115 233 100 q 264 154 264 131 q 249 194 264 178 q 210 210 233 210 q 170 194 186 210 q 154 154 154 178 q 170 115 154 131 q 210 100 186 100 m 328 63 q 367 78 351 63 q 383 118 383 94 q 367 157 383 142 q 328 172 351 172 q 289 157 304 172 q 274 118 274 142 q 289 78 274 94 q 328 63 304 63 m 367 251 q 385 280 382 265 q 388 314 388 294 l 388 381 l 388 651 q 378 685 388 671 q 353 706 368 699 q 320 710 338 713 q 289 696 303 708 q 272 667 274 682 q 269 633 269 651 l 269 567 l 269 296 q 279 263 269 276 q 303 242 289 249 q 335 238 318 236 q 367 251 353 239 m 450 854 q 410 839 426 854 q 394 800 394 824 q 410 760 394 776 q 450 744 426 744 q 489 760 474 744 q 504 800 504 776 q 489 839 504 824 q 450 854 474 854 m 453 100 q 492 115 476 100 q 508 154 508 131 q 492 194 508 178 q 453 210 476 210 q 413 194 429 210 q 397 154 397 178 q 413 115 397 131 q 453 100 429 100 m 499 217 q 538 233 522 217 q 554 272 554 249 q 538 312 554 296 q 499 328 522 328 q 459 312 475 328 q 443 272 443 296 q 459 233 443 249 q 499 217 475 217 m 499 356 q 538 372 522 356 q 554 411 554 388 q 538 451 554 435 q 499 467 522 467 q 459 451 475 467 q 443 411 443 435 q 459 372 443 388 q 499 356 475 356 m 499 501 q 538 517 522 501 q 554 556 554 533 q 538 595 554 579 q 499 611 522 611 q 459 595 475 611 q 443 556 443 579 q 459 517 443 533 q 499 501 475 501 m 499 633 q 538 649 522 633 q 554 689 554 665 q 538 727 554 711 q 499 743 522 743 q 459 727 475 743 q 443 689 443 711 q 459 649 443 665 q 499 633 475 633 z "},"1":{"ha":432,"x_min":33,"x_max":389,"o":"m 389 949 l 389 0 l 153 0 l 153 711 l 33 711 l 33 949 l 153 949 l 271 949 l 389 949 m 131 781 q 169 797 153 781 q 185 836 185 813 q 169 875 185 860 q 131 890 153 890 q 91 875 107 890 q 75 836 75 860 q 91 797 75 813 q 131 781 107 781 m 271 74 q 310 90 294 74 q 326 128 326 106 q 310 167 326 151 q 271 183 294 183 q 232 167 247 183 q 217 128 217 151 q 232 90 217 106 q 271 74 247 74 m 271 214 q 310 229 294 214 q 326 268 326 244 q 310 308 326 292 q 271 324 294 324 q 232 308 247 324 q 217 268 217 292 q 232 229 217 244 q 271 214 247 214 m 271 353 q 310 368 294 353 q 326 407 326 383 q 310 447 326 431 q 271 463 294 463 q 232 447 247 463 q 217 407 217 431 q 232 368 217 383 q 271 353 247 353 m 271 503 q 310 518 294 503 q 326 557 326 533 q 310 597 326 581 q 271 613 294 613 q 232 597 247 613 q 217 557 217 581 q 232 518 217 533 q 271 503 247 503 m 271 639 q 310 655 294 639 q 326 693 326 671 q 310 733 326 717 q 271 749 294 749 q 232 733 247 749 q 217 693 217 717 q 232 655 217 671 q 271 639 247 639 m 271 781 q 310 797 294 781 q 326 836 326 813 q 310 875 326 860 q 271 890 294 890 q 232 875 247 890 q 217 836 217 860 q 232 797 217 813 q 271 781 247 781 z "},"2":{"ha":654,"x_min":29,"x_max":625,"o":"m 622 238 l 622 0 l 29 0 l 29 285 l 29 308 q 88 473 33 400 q 229 576 142 546 q 274 588 251 585 q 321 593 297 592 q 365 607 347 593 q 385 649 383 621 q 368 693 386 678 q 327 709 350 708 q 285 695 304 710 q 267 651 267 681 l 29 651 q 60 785 29 726 q 139 883 90 844 q 249 938 188 921 q 371 946 310 954 q 488 902 432 938 q 582 801 543 867 q 616 710 607 758 q 619 615 625 663 q 592 524 614 568 q 536 444 571 479 q 460 386 500 407 q 367 358 419 365 q 320 356 343 356 q 278 332 297 357 q 269 311 272 324 q 266 285 267 299 q 266 258 265 271 q 267 238 267 246 l 326 238 l 349 238 l 622 238 m 497 526 q 537 542 521 526 q 553 582 553 558 q 537 621 553 606 q 497 636 521 636 q 458 621 474 636 q 442 582 442 606 q 458 542 442 558 q 497 526 474 526 m 553 718 q 537 758 553 742 q 497 774 521 774 q 458 758 474 774 q 442 718 442 742 q 458 680 442 696 q 497 664 474 664 q 537 680 521 664 q 553 718 553 696 m 168 701 q 208 717 192 701 q 224 756 224 732 q 208 795 224 779 q 168 811 192 811 q 129 795 144 811 q 114 756 114 779 q 129 717 114 732 q 168 701 144 701 m 282 775 q 321 791 306 775 q 336 831 336 807 q 321 869 336 854 q 282 885 306 885 q 242 869 258 885 q 226 831 226 854 q 242 791 226 807 q 282 775 258 775 m 354 811 q 370 772 354 788 q 410 756 386 756 q 449 772 433 756 q 464 811 464 788 q 449 850 464 835 q 410 865 433 865 q 370 850 386 865 q 354 811 354 835 m 353 501 q 362 460 350 478 q 396 439 374 442 q 435 448 418 435 q 457 485 453 461 q 447 525 460 507 q 414 547 435 543 q 374 537 392 550 q 353 501 357 524 m 231 464 q 240 422 228 440 q 274 401 251 404 q 313 410 296 397 q 335 447 331 424 q 325 488 338 469 q 292 510 313 506 q 252 499 269 513 q 231 464 235 486 m 185 115 q 176 156 189 138 q 142 178 164 174 q 103 167 121 181 q 82 132 85 154 q 90 90 78 108 q 125 69 103 72 q 164 78 146 65 q 185 115 182 92 m 185 251 q 176 293 189 275 q 142 314 164 311 q 103 305 121 318 q 82 268 85 292 q 90 227 78 246 q 125 206 103 208 q 164 216 146 203 q 185 251 182 229 m 167 331 q 206 340 188 328 q 226 376 224 353 q 218 418 231 400 q 185 439 206 436 q 145 430 163 443 q 124 393 128 417 q 132 352 119 371 q 167 331 144 333 m 315 118 q 307 160 319 142 q 272 181 294 178 q 233 172 251 185 q 213 135 215 158 q 221 94 208 113 q 256 72 233 75 q 294 82 276 69 q 315 118 313 94 m 442 110 q 433 151 444 133 q 399 172 421 169 q 359 163 376 176 q 338 126 342 150 q 347 86 335 104 q 381 64 360 68 q 420 74 403 61 q 442 110 438 88 m 531 71 q 565 92 553 74 q 575 133 578 110 q 554 170 572 157 q 515 181 536 183 q 481 158 493 176 q 471 118 468 140 q 492 81 475 94 q 531 71 510 68 z "},"3":{"ha":654,"x_min":32,"x_max":632,"o":"m 422 935 q 543 859 494 911 q 612 742 592 807 q 622 607 632 678 q 565 476 611 536 q 622 345 611 415 q 612 210 632 275 q 543 94 592 146 q 422 18 494 42 q 280 6 350 -7 q 155 58 210 18 q 66 160 100 97 q 32 299 32 222 l 269 299 q 276 271 269 283 q 294 250 283 258 q 319 240 306 242 q 349 243 333 238 q 372 259 363 249 q 385 283 382 269 q 386 311 389 297 q 374 338 383 325 q 350 352 364 347 q 320 358 336 357 q 290 358 304 358 q 265 357 275 357 q 208 358 236 358 q 150 358 179 358 l 150 594 l 326 594 q 360 604 346 594 q 382 630 375 614 q 387 663 389 646 q 371 694 385 681 q 340 712 357 708 q 306 709 322 715 q 280 688 290 703 q 269 654 269 674 l 32 654 q 66 792 32 729 q 155 894 100 854 q 280 946 210 933 q 422 935 350 958 m 256 428 q 295 444 279 428 q 311 483 311 460 q 295 522 311 507 q 256 538 279 538 q 216 522 232 538 q 200 483 200 507 q 216 444 200 460 q 256 428 232 428 m 178 149 q 217 165 201 149 q 233 204 233 181 q 217 242 233 226 q 178 258 201 258 q 138 242 154 258 q 122 204 122 226 q 138 165 122 181 q 178 149 154 149 m 283 67 q 323 82 307 67 q 339 121 339 97 q 323 160 339 144 q 283 176 307 176 q 244 160 260 176 q 229 121 229 144 q 244 82 229 97 q 283 67 260 67 m 554 721 q 539 760 554 744 q 500 776 524 776 q 460 760 476 776 q 444 721 444 744 q 460 682 444 697 q 500 667 476 667 q 539 682 524 667 q 554 721 554 697 m 488 532 q 527 547 511 532 q 543 586 543 563 q 527 626 543 610 q 488 642 511 642 q 449 626 465 642 q 433 586 433 610 q 449 547 433 563 q 488 532 465 532 m 538 383 q 522 423 538 407 q 483 439 507 439 q 444 423 460 439 q 428 383 428 407 q 444 344 428 360 q 483 329 460 329 q 522 344 507 329 q 538 383 538 360 m 171 703 q 210 719 194 703 q 226 758 226 735 q 210 798 226 782 q 171 814 194 814 q 131 798 147 814 q 115 758 115 782 q 131 719 115 735 q 171 703 147 703 m 283 778 q 323 794 307 778 q 339 833 339 810 q 323 872 339 856 q 283 888 307 888 q 245 872 261 888 q 229 833 229 856 q 245 794 229 810 q 283 778 261 778 m 357 814 q 373 774 357 790 q 413 758 389 758 q 451 774 435 758 q 467 814 467 790 q 451 853 467 838 q 413 868 435 868 q 373 853 389 868 q 357 814 357 838 m 388 428 q 426 444 410 428 q 442 483 442 460 q 426 522 442 507 q 388 538 410 538 q 348 522 364 538 q 332 483 332 507 q 348 444 332 460 q 388 428 364 428 m 424 79 q 463 95 447 79 q 478 135 478 111 q 463 174 478 158 q 424 190 447 190 q 384 174 400 190 q 368 135 368 158 q 384 95 368 111 q 424 79 400 79 m 568 253 q 552 292 568 276 q 514 308 536 308 q 474 292 490 308 q 458 253 458 276 q 474 215 458 231 q 514 199 490 199 q 552 215 536 199 q 568 253 568 231 z "},"4":{"ha":654,"x_min":28,"x_max":621,"o":"m 621 947 l 621 0 l 383 0 l 383 296 q 276 301 328 296 q 172 339 224 307 q 89 410 119 371 q 40 508 58 450 q 32 558 35 529 q 28 619 29 588 q 28 678 28 650 q 29 728 29 707 l 29 947 l 265 947 l 265 888 l 265 694 q 265 669 265 688 q 265 631 265 651 q 267 592 265 610 q 271 568 268 574 q 292 542 279 550 q 322 533 306 535 q 354 532 338 531 q 383 533 371 533 l 383 947 l 621 947 m 140 897 q 101 882 117 897 q 85 843 85 867 q 101 803 85 819 q 140 788 117 788 q 179 803 164 788 q 194 843 194 819 q 179 882 194 867 q 140 897 164 897 m 140 756 q 101 740 117 756 q 85 701 85 724 q 101 662 85 678 q 140 646 117 646 q 179 662 164 646 q 194 701 194 678 q 179 740 194 724 q 140 756 164 756 m 140 501 q 179 517 164 501 q 194 557 194 533 q 179 596 194 581 q 140 611 164 611 q 101 596 117 611 q 85 557 85 581 q 101 517 85 533 q 140 501 117 501 m 229 386 q 267 401 251 386 q 283 440 283 417 q 267 480 283 464 q 229 496 251 496 q 190 480 206 496 q 174 440 174 464 q 190 401 174 417 q 229 386 206 386 m 372 361 q 412 376 396 361 q 428 415 428 392 q 412 455 428 439 q 372 471 396 471 q 333 455 349 471 q 318 415 318 439 q 333 376 318 392 q 372 361 349 361 m 506 75 q 545 90 529 75 q 561 129 561 106 q 545 169 561 153 q 506 185 529 185 q 467 169 482 185 q 451 129 451 153 q 467 90 451 106 q 506 75 482 75 m 506 214 q 545 230 529 214 q 561 269 561 246 q 545 308 561 293 q 506 324 529 324 q 467 308 482 324 q 451 269 451 293 q 467 230 451 246 q 506 214 482 214 m 506 353 q 545 369 529 353 q 561 408 561 385 q 545 447 561 432 q 506 463 529 463 q 467 447 482 463 q 451 408 451 432 q 467 369 451 385 q 506 353 482 353 m 506 499 q 545 515 529 499 q 561 553 561 531 q 545 592 561 576 q 506 608 529 608 q 467 592 482 608 q 451 553 451 576 q 467 515 451 531 q 506 499 482 499 m 506 639 q 545 655 529 639 q 561 694 561 671 q 545 734 561 718 q 506 750 529 750 q 467 734 482 750 q 451 694 451 718 q 467 655 451 671 q 506 639 482 639 m 506 782 q 545 798 529 782 q 561 836 561 814 q 545 876 561 860 q 506 892 529 892 q 467 876 482 892 q 451 836 451 860 q 467 798 451 814 q 506 782 482 782 z "},"5":{"ha":654,"x_min":32,"x_max":628,"o":"m 269 713 l 269 594 q 360 592 315 594 q 449 569 404 589 q 525 522 493 550 q 582 450 557 493 q 617 365 607 410 q 624 276 628 321 q 604 189 621 232 q 558 110 588 146 q 458 29 514 56 q 343 1 401 3 q 229 19 285 -1 q 130 78 174 39 q 59 172 86 117 q 32 297 32 228 l 269 297 q 281 263 269 276 q 308 242 292 249 q 342 240 324 236 q 374 258 360 243 q 389 292 388 275 q 382 324 390 310 q 358 348 374 339 q 321 357 342 357 l 32 357 l 32 950 l 625 950 l 625 713 l 351 713 l 329 713 l 269 713 m 536 886 q 498 871 514 886 q 482 832 482 856 q 498 792 482 808 q 536 776 514 776 q 576 792 560 776 q 592 832 592 808 q 576 871 592 856 q 536 886 560 886 m 400 888 q 362 872 378 888 q 346 833 346 857 q 362 794 346 810 q 400 778 378 778 q 440 794 424 778 q 456 833 456 810 q 440 872 456 857 q 400 888 424 888 m 189 131 q 228 147 213 131 q 244 186 244 163 q 228 226 244 210 q 189 242 213 242 q 150 226 165 242 q 135 186 135 210 q 150 147 135 163 q 189 131 165 131 m 335 69 q 373 85 357 69 q 389 124 389 100 q 373 163 389 147 q 335 179 357 179 q 295 163 311 179 q 279 124 279 147 q 295 85 279 100 q 335 69 311 69 m 135 442 q 174 457 158 442 q 189 496 189 472 q 174 535 189 519 q 135 551 158 551 q 95 535 111 551 q 79 496 79 519 q 95 457 79 472 q 135 442 111 442 m 139 607 q 178 623 163 607 q 194 663 194 639 q 178 702 194 686 q 139 718 163 718 q 99 702 115 718 q 83 663 83 686 q 99 623 83 639 q 139 607 115 607 m 139 775 q 178 791 163 775 q 194 831 194 807 q 178 869 194 853 q 139 885 163 885 q 99 869 115 885 q 83 831 83 853 q 99 791 83 807 q 139 775 115 775 m 474 140 q 513 156 497 140 q 529 196 529 172 q 513 234 529 218 q 474 250 497 250 q 435 234 450 250 q 419 196 419 218 q 435 156 419 172 q 474 140 450 140 m 556 339 q 540 378 556 363 q 500 394 524 394 q 460 378 476 394 q 444 339 444 363 q 460 300 444 315 q 500 285 476 285 q 540 300 524 285 q 556 339 556 315 m 413 511 q 373 495 389 511 q 357 457 357 479 q 373 417 357 433 q 413 401 389 401 q 451 417 436 401 q 467 457 467 433 q 451 495 467 479 q 413 511 436 511 m 275 549 q 235 533 251 549 q 219 493 219 517 q 235 453 219 469 q 275 438 251 438 q 315 453 299 438 q 331 493 331 469 q 315 533 331 517 q 275 549 299 549 m 218 835 q 233 795 218 811 q 272 779 249 779 q 312 795 296 779 q 328 835 328 811 q 312 874 328 858 q 272 889 296 889 q 233 874 249 889 q 218 835 218 858 z "},"6":{"ha":654,"x_min":31,"x_max":626,"o":"m 569 468 q 624 308 621 396 q 581 144 626 219 q 500 56 547 89 q 399 9 453 22 q 289 3 344 -4 q 185 36 233 10 q 99 107 136 63 q 43 214 61 151 q 31 297 31 256 q 31 382 31 339 l 31 556 q 31 642 31 600 q 40 722 32 683 q 69 798 49 761 q 126 871 89 835 q 229 933 174 914 q 340 949 285 951 q 446 924 394 946 q 537 863 497 901 q 600 770 576 824 q 624 653 624 717 l 386 653 q 378 683 386 669 q 357 703 369 696 q 329 712 344 711 q 299 704 314 713 q 276 682 283 696 q 267 653 269 668 q 267 622 265 638 q 268 593 268 606 q 357 590 315 593 q 435 574 399 586 q 506 536 472 561 q 569 468 539 511 m 475 811 q 435 795 451 811 q 419 756 419 779 q 435 717 419 732 q 475 701 451 701 q 514 717 499 701 q 529 756 529 732 q 514 795 529 779 q 475 811 499 811 m 361 882 q 322 867 338 882 q 307 828 307 851 q 322 788 307 804 q 361 772 338 772 q 401 788 385 772 q 417 828 417 804 q 401 867 417 851 q 361 882 385 882 m 425 515 q 386 499 401 515 q 371 460 371 483 q 386 421 371 436 q 425 406 401 406 q 465 421 449 406 q 481 460 481 436 q 465 499 481 483 q 425 515 449 515 m 282 535 q 244 519 260 535 q 228 479 228 503 q 244 440 228 456 q 282 424 260 424 q 322 440 306 424 q 338 479 338 456 q 322 519 338 503 q 282 535 306 535 m 224 849 q 184 833 200 849 q 168 794 168 818 q 184 755 168 771 q 224 739 200 739 q 262 755 246 739 q 278 794 278 771 q 262 833 278 818 q 224 849 246 849 m 157 729 q 117 714 133 729 q 101 675 101 699 q 117 635 101 651 q 157 619 133 619 q 196 635 181 619 q 211 675 211 651 q 196 714 211 699 q 157 729 181 729 m 143 593 q 103 577 119 593 q 88 539 88 561 q 103 499 88 515 q 143 483 119 483 q 182 499 167 483 q 197 539 197 515 q 182 577 197 561 q 143 593 167 593 m 147 450 q 108 434 124 450 q 92 396 92 418 q 108 356 92 372 q 147 340 124 340 q 187 356 171 340 q 203 396 203 372 q 187 434 203 418 q 147 450 171 450 m 94 250 q 110 210 94 226 q 150 194 126 194 q 189 210 174 194 q 204 250 204 226 q 189 290 204 274 q 150 306 174 306 q 110 290 126 306 q 94 250 94 274 m 242 88 q 281 103 265 88 q 296 142 296 119 q 281 181 296 165 q 242 197 265 197 q 202 181 218 197 q 186 142 186 165 q 202 103 186 119 q 242 88 218 88 m 282 260 q 324 238 299 239 q 369 256 350 236 q 387 300 389 274 q 365 343 385 326 q 344 353 357 350 q 317 356 331 356 q 290 356 303 357 q 268 356 276 356 q 267 334 268 347 q 268 308 267 321 q 272 281 269 294 q 282 260 275 268 m 386 71 q 425 86 410 71 q 440 125 440 101 q 425 165 440 149 q 386 181 410 181 q 347 165 363 181 q 331 125 331 149 q 347 86 331 101 q 386 71 363 71 m 493 167 q 533 183 517 167 q 549 222 549 199 q 533 261 549 246 q 493 276 517 276 q 455 261 471 276 q 439 222 439 246 q 455 183 439 199 q 493 167 471 167 m 513 304 q 551 320 536 304 q 567 360 567 336 q 551 398 567 382 q 513 414 536 414 q 473 398 489 414 q 457 360 457 382 q 473 320 457 336 q 513 304 489 304 z "},"7":{"ha":654,"x_min":31,"x_max":622,"o":"m 622 949 l 622 711 l 438 0 l 192 0 l 378 711 l 31 711 l 31 949 l 622 949 m 183 817 q 175 858 188 840 q 140 879 163 876 q 101 870 119 883 q 81 833 83 857 q 89 792 76 811 q 124 771 101 774 q 163 781 144 768 q 183 817 181 794 m 314 821 q 306 861 318 843 q 271 883 293 879 q 232 873 250 886 q 211 838 214 860 q 219 796 207 814 q 254 774 232 778 q 293 784 275 771 q 314 821 311 797 m 378 774 q 417 783 399 769 q 438 819 435 796 q 429 860 442 842 q 394 882 417 879 q 356 872 374 885 q 335 836 338 858 q 343 794 331 813 q 378 774 356 776 m 358 69 q 392 90 379 72 q 401 132 404 108 q 381 169 399 156 q 342 179 364 182 q 308 158 321 176 q 299 117 294 139 q 319 80 301 93 q 358 69 336 67 m 397 197 q 431 218 418 200 q 440 260 443 236 q 420 297 438 283 q 381 307 403 310 q 346 286 358 304 q 338 244 333 268 q 358 208 340 221 q 397 197 375 194 m 433 340 q 468 361 456 343 q 478 403 481 379 q 456 438 474 425 q 417 449 439 451 q 383 428 396 446 q 374 388 371 410 q 394 351 376 364 q 433 340 413 338 m 475 478 q 510 501 499 482 q 518 543 522 519 q 495 578 514 565 q 453 586 476 590 q 418 563 431 581 q 411 521 406 544 q 434 486 415 499 q 475 478 453 474 m 508 621 q 543 642 531 624 q 551 683 556 660 q 531 720 549 707 q 492 731 514 733 q 458 708 471 726 q 449 668 446 690 q 469 631 451 644 q 508 621 486 618 m 525 774 q 560 794 547 776 q 569 835 572 813 q 548 872 565 858 q 508 882 531 885 q 475 861 488 879 q 465 819 463 843 q 486 784 468 797 q 525 774 504 771 z "},"8":{"ha":654,"x_min":25,"x_max":626,"o":"m 326 949 q 439 927 388 949 q 528 869 490 906 q 591 785 567 832 q 621 685 615 738 q 613 578 626 632 q 563 475 599 524 q 622 318 618 401 q 591 164 626 235 q 486 47 556 93 q 325 0 417 0 q 165 47 233 0 q 60 164 96 93 q 29 318 25 235 q 89 475 33 401 q 39 578 53 524 q 31 685 25 632 q 60 785 36 738 q 124 869 85 832 q 214 927 163 906 q 326 949 265 949 m 556 675 q 540 715 556 699 q 500 731 524 731 q 461 715 476 731 q 446 675 446 699 q 461 635 446 651 q 500 619 476 619 q 540 635 524 619 q 556 675 556 651 m 475 460 q 435 444 451 460 q 419 406 419 428 q 435 366 419 382 q 475 350 451 350 q 514 366 499 350 q 529 406 529 382 q 514 444 529 428 q 475 460 499 460 m 406 547 q 422 509 406 525 q 461 493 438 493 q 500 509 485 493 q 515 547 515 525 q 500 587 515 571 q 461 603 485 603 q 422 587 438 603 q 406 547 406 571 m 213 857 q 173 842 189 857 q 157 803 157 826 q 173 763 157 779 q 213 747 189 747 q 251 763 236 747 q 267 803 267 779 q 251 842 267 826 q 213 857 236 857 m 325 593 q 367 610 350 593 q 385 653 385 628 q 367 694 385 676 q 325 711 350 711 q 284 694 301 711 q 267 653 267 676 q 284 610 267 628 q 325 593 301 593 m 381 482 q 365 520 381 504 q 325 536 349 536 q 287 520 303 536 q 271 482 271 504 q 287 442 271 458 q 325 426 303 426 q 365 442 349 426 q 381 482 381 458 m 192 472 q 152 456 168 472 q 136 417 136 440 q 152 377 136 393 q 192 361 168 361 q 231 377 215 361 q 246 417 246 393 q 231 456 246 440 q 192 472 215 472 m 131 556 q 147 517 131 533 q 185 501 163 501 q 224 517 208 501 q 240 556 240 533 q 224 595 240 579 q 185 611 208 611 q 147 595 163 611 q 131 556 131 579 m 147 746 q 108 730 124 746 q 92 690 92 714 q 108 651 92 667 q 147 636 124 636 q 186 651 171 636 q 201 690 201 667 q 186 730 201 714 q 147 746 171 746 m 92 283 q 108 244 92 260 q 146 229 124 229 q 185 244 169 229 q 201 283 201 260 q 185 323 201 307 q 146 339 169 339 q 108 323 124 339 q 92 283 92 307 m 210 106 q 248 122 232 106 q 264 161 264 138 q 248 200 264 185 q 210 215 232 215 q 170 200 186 215 q 154 161 154 185 q 170 122 154 138 q 210 106 186 106 m 325 356 q 284 338 301 356 q 267 297 267 321 q 284 255 267 272 q 325 238 301 238 q 367 255 350 238 q 385 297 385 272 q 367 338 385 321 q 325 356 350 356 m 335 57 q 374 73 358 57 q 390 113 390 89 q 374 152 390 136 q 335 168 358 168 q 295 152 311 168 q 279 113 279 136 q 295 73 279 89 q 335 57 311 57 m 335 783 q 374 799 358 783 q 390 839 390 815 q 374 878 390 863 q 335 894 358 894 q 295 878 311 894 q 279 839 279 863 q 295 799 279 815 q 335 783 311 783 m 454 850 q 415 835 431 850 q 399 796 399 819 q 415 756 399 772 q 454 740 431 740 q 492 756 476 740 q 508 796 508 772 q 492 835 508 819 q 454 850 476 850 m 460 103 q 499 119 483 103 q 514 158 514 135 q 499 198 514 182 q 460 214 483 214 q 420 198 436 214 q 404 158 404 182 q 420 119 404 135 q 460 103 436 103 m 567 282 q 551 321 567 306 q 511 336 535 336 q 472 321 488 336 q 456 282 456 306 q 472 242 456 258 q 511 226 488 226 q 551 242 535 226 q 567 282 567 258 z "},"9":{"ha":654,"x_min":28,"x_max":624,"o":"m 624 394 q 623 308 624 350 q 614 227 622 267 q 585 151 606 188 q 528 79 565 114 q 425 17 481 36 q 315 0 369 -3 q 208 26 260 3 q 117 88 157 49 q 54 179 78 126 q 31 297 31 232 l 268 297 q 276 267 268 281 q 297 247 285 254 q 325 238 310 239 q 356 246 340 238 q 378 268 371 254 q 387 297 385 282 q 388 328 389 313 q 386 357 386 344 q 297 360 339 357 q 219 376 256 364 q 149 414 182 389 q 85 482 115 439 q 31 642 35 554 q 74 806 28 731 q 155 894 107 861 q 256 941 203 928 q 365 947 310 954 q 469 913 421 939 q 556 842 518 888 q 611 736 593 797 q 624 651 624 693 q 624 568 624 610 l 624 394 m 181 139 q 219 155 204 139 q 235 194 235 171 q 219 233 235 217 q 181 249 204 249 q 141 233 157 249 q 125 194 125 217 q 141 155 125 171 q 181 139 157 139 m 293 67 q 333 83 317 67 q 349 122 349 99 q 333 162 349 146 q 293 178 317 178 q 254 162 269 178 q 239 122 239 146 q 254 83 239 99 q 293 67 269 67 m 560 700 q 544 739 560 724 q 506 754 529 754 q 466 739 482 754 q 450 700 450 724 q 466 660 450 676 q 506 644 482 644 q 544 660 529 644 q 560 700 560 676 m 563 554 q 547 594 563 578 q 507 610 531 610 q 469 594 485 610 q 453 554 453 578 q 469 515 453 531 q 507 500 485 500 q 547 515 531 500 q 563 554 563 531 m 414 863 q 374 847 390 863 q 358 807 358 831 q 374 768 358 783 q 414 753 390 753 q 453 768 438 753 q 468 807 468 783 q 453 847 468 831 q 414 863 438 863 m 269 879 q 230 863 246 879 q 214 824 214 847 q 230 785 214 801 q 269 769 246 769 q 308 785 292 769 q 324 824 324 801 q 308 863 324 847 q 269 879 292 879 m 161 783 q 122 767 138 783 q 106 728 106 751 q 122 688 106 704 q 161 672 138 672 q 201 688 185 672 q 217 728 217 704 q 201 767 217 751 q 161 783 185 783 m 88 590 q 103 551 88 567 q 143 536 119 536 q 182 551 167 536 q 197 590 197 567 q 182 630 197 614 q 143 646 167 646 q 103 630 119 646 q 88 590 88 614 m 229 435 q 269 451 253 435 q 285 490 285 467 q 269 528 285 513 q 229 544 253 544 q 190 528 206 544 q 174 490 174 513 q 190 451 174 467 q 229 435 206 435 m 286 694 q 268 649 267 675 q 290 607 269 624 q 312 597 299 600 q 338 593 325 594 q 365 592 351 592 q 386 593 378 593 q 387 615 386 601 q 387 642 388 628 q 383 669 386 656 q 374 690 381 682 q 331 713 357 711 q 286 694 304 714 m 372 415 q 412 431 396 415 q 428 471 428 447 q 412 510 428 494 q 372 525 396 525 q 333 510 349 525 q 317 471 317 494 q 333 431 317 447 q 372 415 349 415 m 432 101 q 472 117 456 101 q 488 156 488 132 q 472 195 488 179 q 432 211 456 211 q 392 195 408 211 q 376 156 376 179 q 392 117 376 132 q 432 101 408 101 m 499 219 q 538 235 522 219 q 553 275 553 251 q 538 315 553 299 q 499 331 522 331 q 459 315 475 331 q 443 275 443 299 q 459 235 443 251 q 499 219 475 219 m 513 357 q 551 372 536 357 q 567 411 567 388 q 551 451 567 435 q 513 467 536 467 q 473 451 489 467 q 457 411 457 435 q 473 372 457 388 q 513 357 489 357 z "},"\u0000":{"ha":0,"x_min":0,"x_max":0,"o":""},"\r":{"ha":475,"x_min":0,"x_max":0,"o":""}," ":{"ha":475,"x_min":0,"x_max":0,"o":""},"E":{"ha":654,"x_min":29,"x_max":621,"o":"m 265 711 l 265 593 l 621 593 l 621 356 l 265 356 l 265 238 l 621 238 l 621 0 l 265 0 l 207 0 l 29 0 l 29 949 l 207 949 l 265 949 l 621 949 l 621 711 l 265 711 m 529 892 q 491 876 507 892 q 475 838 475 861 q 491 798 475 814 q 529 782 507 782 q 569 798 553 782 q 585 838 585 814 q 569 876 585 861 q 529 892 553 892 m 397 893 q 358 878 374 893 q 343 839 343 863 q 358 799 343 815 q 397 783 374 783 q 437 799 421 783 q 453 839 453 815 q 437 878 453 863 q 397 893 421 893 m 135 75 q 174 91 158 75 q 190 131 190 107 q 174 169 190 154 q 135 185 158 185 q 95 169 111 185 q 79 131 79 154 q 95 91 79 107 q 135 75 111 75 m 135 215 q 174 231 158 215 q 190 269 190 246 q 174 309 190 293 q 135 325 158 325 q 95 309 111 325 q 79 269 79 293 q 95 231 79 246 q 135 215 111 215 m 135 354 q 174 369 158 354 q 190 408 190 385 q 174 448 190 432 q 135 464 158 464 q 95 448 111 464 q 79 408 79 432 q 95 369 79 385 q 135 354 111 354 m 135 499 q 174 515 158 499 q 190 554 190 531 q 174 593 190 578 q 135 608 158 608 q 95 593 111 608 q 79 554 79 578 q 95 515 79 531 q 135 499 111 499 m 135 640 q 174 656 158 640 q 190 694 190 672 q 174 734 190 718 q 135 750 158 750 q 95 734 111 750 q 79 694 79 718 q 95 656 79 672 q 135 640 111 640 m 135 782 q 174 798 158 782 q 190 838 190 814 q 174 876 190 861 q 135 892 158 892 q 95 876 111 892 q 79 838 79 861 q 95 798 79 814 q 135 782 111 782 m 528 181 q 488 165 504 181 q 472 125 472 149 q 488 86 472 101 q 528 71 504 71 q 567 86 551 71 q 582 125 582 101 q 567 165 582 149 q 528 181 551 181 m 396 182 q 356 166 372 182 q 340 126 340 150 q 356 88 340 103 q 396 72 372 72 q 434 88 418 72 q 450 126 450 103 q 434 166 450 150 q 396 182 418 182 m 317 128 q 301 167 317 151 q 263 183 286 183 q 223 167 239 183 q 207 128 207 151 q 223 89 207 104 q 263 74 239 74 q 301 89 286 74 q 317 128 317 104 m 535 536 q 495 521 511 536 q 479 482 479 506 q 495 442 479 458 q 535 426 511 426 q 574 442 558 426 q 589 482 589 458 q 574 521 589 506 q 535 536 558 536 m 397 535 q 358 519 374 535 q 343 479 343 503 q 358 440 343 456 q 397 424 374 424 q 437 440 421 424 q 453 479 453 456 q 437 519 453 503 q 397 535 421 535 m 315 478 q 300 517 315 501 q 261 532 285 532 q 222 517 238 532 q 206 478 206 501 q 222 438 206 454 q 261 422 238 422 q 300 438 285 422 q 315 478 315 454 m 264 785 q 303 801 288 785 q 319 840 319 817 q 303 879 319 864 q 264 894 288 894 q 226 879 242 894 q 210 840 210 864 q 226 801 210 817 q 264 785 242 785 z "},"F":{"ha":654,"x_min":33,"x_max":626,"o":"m 271 711 l 271 592 l 626 592 l 626 356 l 271 356 l 271 238 l 271 0 l 211 0 l 33 0 l 33 947 l 211 947 l 271 947 l 626 947 l 626 711 l 271 711 m 149 65 q 188 81 172 65 q 204 121 204 97 q 188 160 204 144 q 149 175 172 175 q 109 160 125 175 q 93 121 93 144 q 109 81 93 97 q 149 65 125 65 m 149 206 q 188 222 172 206 q 204 260 204 238 q 188 299 204 283 q 149 315 172 315 q 109 299 125 315 q 93 260 93 283 q 109 222 93 238 q 149 206 125 206 m 149 344 q 188 360 172 344 q 204 399 204 375 q 188 438 204 422 q 149 454 172 454 q 109 438 125 454 q 93 399 93 422 q 109 360 93 375 q 149 344 125 344 m 149 489 q 188 505 172 489 q 204 544 204 521 q 188 583 204 568 q 149 599 172 599 q 109 583 125 599 q 93 544 93 568 q 109 505 93 521 q 149 489 125 489 m 149 631 q 188 647 172 631 q 204 686 204 663 q 188 724 204 708 q 149 740 172 740 q 109 724 125 740 q 93 686 93 708 q 109 647 93 663 q 149 631 125 631 m 149 772 q 188 788 172 772 q 204 828 204 804 q 188 867 204 851 q 149 882 172 882 q 109 867 125 882 q 93 828 93 851 q 109 788 93 804 q 149 772 125 772 m 542 883 q 502 868 518 883 q 486 829 486 853 q 502 790 486 806 q 542 774 518 774 q 581 790 565 774 q 596 829 596 806 q 581 868 596 853 q 542 883 565 883 m 411 883 q 372 868 388 883 q 356 829 356 853 q 372 790 356 806 q 411 774 388 774 q 451 790 435 774 q 467 829 467 806 q 451 868 467 853 q 411 883 435 883 m 542 535 q 502 519 518 535 q 486 481 486 503 q 502 441 486 457 q 542 425 518 425 q 581 441 565 425 q 596 481 596 457 q 581 519 596 503 q 542 535 565 535 m 404 532 q 365 517 381 532 q 350 478 350 501 q 365 438 350 454 q 404 422 381 422 q 444 438 428 422 q 460 478 460 454 q 444 517 460 501 q 404 532 428 532 m 322 476 q 307 515 322 500 q 268 531 292 531 q 228 515 244 531 q 213 476 213 500 q 228 437 213 453 q 268 421 244 421 q 307 437 292 421 q 322 476 322 453 m 224 831 q 240 791 224 807 q 278 775 256 775 q 317 791 301 775 q 333 831 333 807 q 317 869 333 854 q 278 885 301 885 q 240 869 256 885 q 224 831 224 854 z "},"G":{"ha":654,"x_min":28,"x_max":621,"o":"m 285 593 l 621 593 l 621 297 q 588 160 621 222 q 500 59 554 99 q 377 6 446 19 q 238 15 308 -7 q 119 85 169 36 q 44 200 68 133 q 31 268 33 235 q 28 336 28 301 l 28 475 l 28 614 q 31 683 28 649 q 44 750 33 717 q 119 866 68 817 q 238 936 169 915 q 377 944 308 958 q 500 891 446 931 q 588 790 554 851 q 621 653 621 728 l 383 653 q 367 694 383 676 q 326 713 350 711 q 285 697 303 714 q 265 657 268 681 q 264 566 263 611 q 265 475 265 521 q 264 385 265 431 q 265 293 263 339 q 285 253 268 269 q 326 239 303 238 q 367 256 350 239 q 383 297 383 274 l 383 357 l 285 357 l 285 593 m 469 825 q 431 809 446 825 q 415 769 415 793 q 431 731 415 746 q 469 715 446 715 q 509 731 493 715 q 525 769 525 746 q 509 809 525 793 q 469 825 493 825 m 347 888 q 308 872 324 888 q 292 832 292 856 q 308 792 292 808 q 347 776 324 776 q 385 792 369 776 q 401 832 401 808 q 385 872 401 856 q 347 888 369 888 m 222 847 q 183 832 199 847 q 167 793 167 817 q 183 753 167 769 q 222 738 199 738 q 261 753 246 738 q 276 793 276 769 q 261 832 276 817 q 222 847 246 847 m 158 732 q 119 716 135 732 q 104 676 104 700 q 119 638 104 653 q 158 622 135 622 q 198 638 182 622 q 214 676 214 653 q 198 716 214 700 q 158 732 182 732 m 147 593 q 108 577 124 593 q 92 538 92 561 q 108 499 92 514 q 147 483 124 483 q 187 499 171 483 q 203 538 203 514 q 187 577 203 561 q 147 593 171 593 m 147 457 q 108 441 124 457 q 92 401 92 425 q 108 363 92 378 q 147 347 124 347 q 187 363 171 347 q 203 401 203 378 q 187 441 203 425 q 147 457 171 457 m 99 269 q 115 230 99 246 q 154 214 131 214 q 193 230 178 214 q 208 269 208 246 q 193 308 208 292 q 154 324 178 324 q 115 308 131 324 q 99 269 99 292 m 229 104 q 269 120 253 104 q 285 160 285 136 q 269 199 285 183 q 229 214 253 214 q 190 199 206 214 q 175 160 175 183 q 190 120 175 136 q 229 104 206 104 m 367 76 q 406 92 390 76 q 422 132 422 108 q 406 172 422 156 q 367 188 390 188 q 328 172 343 188 q 313 132 313 156 q 328 92 313 108 q 367 76 343 76 m 510 283 q 549 299 533 283 q 565 338 565 315 q 549 377 565 361 q 510 393 533 393 q 470 377 486 393 q 454 338 454 361 q 470 299 454 315 q 510 283 486 283 m 503 532 q 463 517 479 532 q 447 478 447 501 q 463 438 447 454 q 503 422 479 422 q 542 438 526 422 q 558 478 558 454 q 542 517 558 501 q 503 532 526 532 m 481 261 q 441 246 457 261 q 425 207 425 231 q 441 167 425 183 q 481 151 457 151 q 519 167 503 151 q 535 207 535 183 q 519 246 535 231 q 481 261 503 261 m 372 529 q 333 513 349 529 q 317 474 317 497 q 333 435 317 450 q 372 419 349 419 q 411 435 396 419 q 426 474 426 450 q 411 513 426 497 q 372 529 396 529 z "},"H":{"ha":654,"x_min":32,"x_max":624,"o":"m 624 949 l 624 593 l 624 356 l 624 0 l 388 0 l 388 356 l 268 356 l 268 0 l 32 0 l 32 356 l 32 593 l 32 949 l 268 949 l 268 593 l 388 593 l 388 949 l 624 949 m 142 72 q 181 88 165 72 q 196 126 196 104 q 181 166 196 150 q 142 182 165 182 q 102 166 118 182 q 86 126 86 150 q 102 88 86 104 q 142 72 118 72 m 142 211 q 181 227 165 211 q 196 267 196 243 q 181 306 196 290 q 142 322 165 322 q 102 306 118 322 q 86 267 86 290 q 102 227 86 243 q 142 211 118 211 m 142 350 q 181 366 165 350 q 196 406 196 382 q 181 445 196 429 q 142 461 165 461 q 102 445 118 461 q 86 406 86 429 q 102 366 86 382 q 142 350 118 350 m 142 500 q 181 516 165 500 q 196 556 196 532 q 181 594 196 579 q 142 610 165 610 q 102 594 118 610 q 86 556 86 579 q 102 516 86 532 q 142 500 118 500 m 142 638 q 181 653 165 638 q 196 692 196 668 q 181 731 196 715 q 142 747 165 747 q 102 731 118 747 q 86 692 86 715 q 102 653 86 668 q 142 638 118 638 m 142 779 q 181 795 165 779 q 196 833 196 811 q 181 873 196 857 q 142 889 165 889 q 102 873 118 889 q 86 833 86 857 q 102 795 86 811 q 142 779 118 779 m 257 425 q 297 441 281 425 q 313 481 313 457 q 297 520 313 504 q 257 536 281 536 q 217 520 233 536 q 201 481 201 504 q 217 441 201 457 q 257 425 233 425 m 386 425 q 426 441 410 425 q 442 481 442 457 q 426 520 442 504 q 386 536 410 536 q 348 520 364 536 q 332 481 332 504 q 348 441 332 457 q 386 425 364 425 m 501 83 q 541 99 525 83 q 557 139 557 115 q 541 177 557 161 q 501 193 525 193 q 462 177 478 193 q 446 139 446 161 q 462 99 446 115 q 501 83 478 83 m 501 224 q 541 239 525 224 q 557 278 557 254 q 541 317 557 301 q 501 333 525 333 q 462 317 478 333 q 446 278 446 301 q 462 239 446 254 q 501 224 478 224 m 501 363 q 541 378 525 363 q 557 417 557 393 q 541 456 557 440 q 501 472 525 472 q 462 456 478 472 q 446 417 446 440 q 462 378 446 393 q 501 363 478 363 m 501 511 q 541 527 525 511 q 557 567 557 543 q 541 606 557 590 q 501 622 525 622 q 462 606 478 622 q 446 567 446 590 q 462 527 446 543 q 501 511 478 511 m 501 649 q 541 664 525 649 q 557 703 557 679 q 541 742 557 726 q 501 758 525 758 q 462 742 478 758 q 446 703 446 726 q 462 664 446 679 q 501 649 478 649 m 501 790 q 541 806 525 790 q 557 846 557 822 q 541 885 557 869 q 501 900 525 900 q 462 885 478 900 q 446 846 446 869 q 462 806 446 822 q 501 790 478 790 z "},"I":{"ha":329,"x_min":47,"x_max":285,"o":"m 285 947 l 285 0 l 47 0 l 47 947 l 285 947 m 167 65 q 206 81 190 65 q 221 119 221 96 q 206 159 221 143 q 167 175 190 175 q 127 159 143 175 q 111 119 111 143 q 127 81 111 96 q 167 65 143 65 m 167 204 q 206 220 190 204 q 221 260 221 236 q 206 299 221 283 q 167 315 190 315 q 127 299 143 315 q 111 260 111 283 q 127 220 111 236 q 167 204 143 204 m 167 343 q 206 359 190 343 q 221 399 221 375 q 206 438 221 422 q 167 454 190 454 q 127 438 143 454 q 111 399 111 422 q 127 359 111 375 q 167 343 143 343 m 167 493 q 206 509 190 493 q 221 549 221 525 q 206 588 221 572 q 167 603 190 603 q 127 588 143 603 q 111 549 111 572 q 127 509 111 525 q 167 493 143 493 m 167 629 q 206 645 190 629 q 221 685 221 661 q 206 724 221 708 q 167 740 190 740 q 127 724 143 740 q 111 685 111 708 q 127 645 111 661 q 167 629 143 629 m 167 772 q 206 788 190 772 q 221 826 221 803 q 206 866 221 850 q 167 882 190 882 q 127 866 143 882 q 111 826 111 850 q 127 788 111 803 q 167 772 143 772 z "},"J":{"ha":654,"x_min":22,"x_max":615,"o":"m 615 949 l 615 651 l 615 474 l 615 335 q 613 267 615 300 q 599 199 610 233 q 524 83 575 132 q 406 13 474 33 q 266 4 335 -10 q 143 58 197 18 q 56 159 89 97 q 22 296 22 221 l 26 296 l 260 296 q 276 255 260 272 q 317 238 293 238 q 358 252 340 236 q 378 292 375 268 q 379 383 381 338 q 378 474 378 429 l 378 656 l 378 949 l 615 949 m 181 135 q 219 151 203 135 q 235 190 235 167 q 219 230 235 214 q 181 246 203 246 q 141 230 157 246 q 125 190 125 214 q 141 151 125 167 q 181 135 157 135 m 303 61 q 342 77 326 61 q 358 117 358 93 q 342 156 358 140 q 303 172 326 172 q 264 156 279 172 q 249 117 249 140 q 264 77 249 93 q 303 61 279 61 m 496 896 q 456 880 472 896 q 440 842 440 864 q 456 802 440 818 q 496 786 472 786 q 535 802 519 786 q 551 842 551 818 q 535 880 551 864 q 496 896 519 896 m 496 757 q 456 741 472 757 q 440 701 440 725 q 456 663 440 679 q 496 647 472 647 q 535 663 519 647 q 551 701 551 679 q 535 741 551 725 q 496 757 519 757 m 442 99 q 481 115 465 99 q 497 153 497 131 q 481 192 497 176 q 442 208 465 208 q 402 192 418 208 q 386 153 386 176 q 402 115 386 131 q 442 99 418 99 m 496 224 q 535 240 519 224 q 551 279 551 256 q 535 318 551 303 q 496 333 519 333 q 456 318 472 333 q 440 279 440 303 q 456 240 440 256 q 496 224 472 224 m 499 368 q 537 383 521 368 q 553 422 553 399 q 537 462 553 446 q 499 478 521 478 q 459 462 475 478 q 443 422 443 446 q 459 383 443 399 q 499 368 475 368 m 499 503 q 537 519 521 503 q 553 558 553 535 q 537 598 553 582 q 499 614 521 614 q 459 598 475 614 q 443 558 443 582 q 459 519 443 535 q 499 503 475 503 z "},"U":{"ha":654,"x_min":31,"x_max":624,"o":"m 624 947 l 624 592 l 624 474 l 624 313 q 616 233 624 271 q 589 158 608 196 q 480 42 550 85 q 326 0 410 0 q 174 42 243 0 q 65 157 104 83 q 38 233 46 194 q 31 313 31 271 l 31 474 l 31 603 l 31 947 l 268 947 l 268 651 l 268 592 l 268 426 l 268 315 q 279 260 268 283 q 326 236 290 236 q 374 260 363 236 q 386 315 386 283 l 386 426 l 386 615 l 386 651 l 386 947 l 624 947 m 154 892 q 116 876 132 892 q 100 836 100 860 q 116 797 100 813 q 154 781 132 781 q 194 797 178 781 q 210 836 210 813 q 194 876 210 860 q 154 892 178 892 m 154 758 q 116 742 132 758 q 100 703 100 726 q 116 665 100 681 q 154 649 132 649 q 194 665 178 649 q 210 703 210 681 q 194 742 210 726 q 154 758 178 758 m 150 622 q 110 606 126 622 q 94 567 94 590 q 110 528 94 543 q 150 513 126 513 q 190 528 174 513 q 206 567 206 543 q 190 606 206 590 q 150 622 174 622 m 150 486 q 110 470 126 486 q 94 431 94 454 q 110 392 94 407 q 150 376 126 376 q 190 392 174 376 q 206 431 206 407 q 190 470 206 454 q 150 486 174 486 m 97 297 q 113 258 97 274 q 153 242 129 242 q 192 258 176 242 q 207 297 207 274 q 192 336 207 321 q 153 351 176 351 q 113 336 129 351 q 97 297 97 321 m 206 126 q 245 142 229 126 q 261 181 261 157 q 245 220 261 204 q 206 236 229 236 q 167 220 182 236 q 151 181 151 204 q 167 142 151 157 q 206 126 182 126 m 503 899 q 464 883 479 899 q 449 843 449 867 q 464 803 449 819 q 503 788 479 788 q 542 803 526 788 q 558 843 558 819 q 542 883 558 867 q 503 899 526 899 m 501 765 q 462 750 478 765 q 446 711 446 735 q 462 672 446 688 q 501 656 478 656 q 540 672 525 656 q 556 711 556 688 q 540 750 556 735 q 501 765 525 765 m 332 75 q 370 91 354 75 q 386 131 386 107 q 370 170 386 154 q 332 186 354 186 q 292 170 308 186 q 276 131 276 154 q 292 91 276 107 q 332 75 308 75 m 454 119 q 493 135 478 119 q 508 174 508 150 q 493 213 508 197 q 454 229 478 229 q 415 213 431 229 q 399 174 399 197 q 415 135 399 150 q 454 119 431 119 m 506 242 q 545 258 529 242 q 561 297 561 274 q 545 337 561 321 q 506 353 529 353 q 466 337 482 353 q 450 297 450 321 q 466 258 450 274 q 506 242 482 242 m 506 379 q 545 394 529 379 q 561 433 561 410 q 545 473 561 457 q 506 489 529 489 q 466 473 482 489 q 450 433 450 457 q 466 394 450 410 q 506 379 482 379 m 508 515 q 547 531 532 515 q 563 569 563 546 q 547 609 563 593 q 508 625 532 625 q 469 609 485 625 q 453 569 453 593 q 469 531 453 546 q 508 515 485 515 z "},"O":{"ha":640,"x_min":32,"x_max":624,"o":"m 590 789 q 617 713 610 751 q 624 635 624 675 l 624 474 l 624 313 q 617 233 624 271 q 590 158 610 196 q 481 42 551 85 q 328 0 411 0 q 175 42 244 0 q 67 157 106 85 q 40 233 47 196 q 32 313 32 271 l 32 474 l 32 635 q 40 714 32 676 q 67 789 47 751 q 175 905 106 863 q 328 947 244 947 q 481 905 411 947 q 590 789 551 863 m 331 892 q 292 876 308 892 q 276 836 276 860 q 292 797 276 813 q 331 782 308 782 q 370 797 354 782 q 386 836 386 813 q 370 876 386 860 q 331 892 354 892 m 207 854 q 167 839 183 854 q 151 800 151 824 q 167 760 151 776 q 207 744 183 744 q 245 760 229 744 q 261 800 261 776 q 245 839 261 824 q 207 854 229 854 m 150 738 q 110 722 126 738 q 94 683 94 707 q 110 644 94 660 q 150 628 126 628 q 190 644 174 628 q 206 683 206 660 q 190 722 206 707 q 150 738 174 738 m 150 604 q 110 588 126 604 q 94 549 94 572 q 110 510 94 525 q 150 494 126 494 q 190 510 174 494 q 206 549 206 525 q 190 588 206 572 q 150 604 174 604 m 150 458 q 110 443 126 458 q 94 404 94 428 q 110 365 94 381 q 150 349 126 349 q 190 365 174 349 q 206 404 206 381 q 190 443 206 428 q 150 458 174 458 m 93 269 q 109 231 93 246 q 147 215 125 215 q 187 231 171 215 q 203 269 203 246 q 187 309 203 293 q 147 325 171 325 q 109 309 125 325 q 93 269 93 293 m 210 100 q 249 115 233 100 q 264 154 264 131 q 249 194 264 178 q 210 210 233 210 q 170 194 186 210 q 154 154 154 178 q 170 115 154 131 q 210 100 186 100 m 328 63 q 367 78 351 63 q 383 118 383 94 q 367 157 383 142 q 328 172 351 172 q 289 157 304 172 q 274 118 274 142 q 289 78 274 94 q 328 63 304 63 m 367 251 q 385 280 382 265 q 388 314 388 294 l 388 381 l 388 651 q 378 685 388 671 q 353 706 368 699 q 320 710 338 713 q 289 696 303 708 q 272 667 274 682 q 269 633 269 651 l 269 567 l 269 296 q 279 263 269 276 q 303 242 289 249 q 335 238 318 236 q 367 251 353 239 m 450 854 q 410 839 426 854 q 394 800 394 824 q 410 760 394 776 q 450 744 426 744 q 489 760 474 744 q 504 800 504 776 q 489 839 504 824 q 450 854 474 854 m 453 100 q 492 115 476 100 q 508 154 508 131 q 492 194 508 178 q 453 210 476 210 q 413 194 429 210 q 397 154 397 178 q 413 115 397 131 q 453 100 429 100 m 499 217 q 538 233 522 217 q 554 272 554 249 q 538 312 554 296 q 499 328 522 328 q 459 312 475 328 q 443 272 443 296 q 459 233 443 249 q 499 217 475 217 m 499 356 q 538 372 522 356 q 554 411 554 388 q 538 451 554 435 q 499 467 522 467 q 459 451 475 467 q 443 411 443 435 q 459 372 443 388 q 499 356 475 356 m 499 501 q 538 517 522 501 q 554 556 554 533 q 538 595 554 579 q 499 611 522 611 q 459 595 475 611 q 443 556 443 579 q 459 517 443 533 q 499 501 475 501 m 499 633 q 538 649 522 633 q 554 689 554 665 q 538 727 554 711 q 499 743 522 743 q 459 727 475 743 q 443 689 443 711 q 459 649 443 665 q 499 633 475 633 z "},"P":{"ha":654,"x_min":35,"x_max":626,"o":"m 331 947 q 446 924 392 947 q 540 860 500 900 q 603 765 581 819 q 626 650 626 711 q 603 535 626 589 q 539 442 579 482 q 445 378 499 401 q 331 356 392 356 l 328 356 l 271 356 l 271 0 l 35 0 l 35 947 l 271 947 l 331 947 m 557 719 q 542 759 557 743 q 503 775 526 775 q 463 759 479 775 q 447 719 447 743 q 463 680 447 696 q 503 664 479 664 q 542 680 526 664 q 557 719 557 696 m 417 874 q 377 858 393 874 q 361 818 361 842 q 377 778 361 794 q 417 763 393 763 q 455 778 439 763 q 471 818 471 794 q 455 858 471 842 q 417 874 439 874 m 389 651 q 372 694 389 676 q 331 711 354 711 l 271 711 l 271 592 l 331 592 q 372 609 354 592 q 389 651 389 626 m 286 881 q 248 865 264 881 q 232 825 232 849 q 248 785 232 801 q 286 769 264 769 q 326 785 310 769 q 342 825 342 801 q 326 865 342 849 q 286 881 310 881 m 156 68 q 195 83 179 68 q 211 122 211 99 q 195 162 211 146 q 156 178 179 178 q 117 162 133 178 q 101 122 101 146 q 117 83 101 99 q 156 68 133 68 m 156 207 q 195 223 179 207 q 211 263 211 239 q 195 301 211 286 q 156 317 179 317 q 117 301 133 317 q 101 263 101 286 q 117 223 101 239 q 156 207 133 207 m 156 349 q 195 365 179 349 q 211 403 211 381 q 195 442 211 426 q 156 458 179 458 q 117 442 133 458 q 101 403 101 426 q 117 365 101 381 q 156 349 133 349 m 156 486 q 195 502 179 486 q 211 542 211 518 q 195 581 211 565 q 156 597 179 597 q 117 581 133 597 q 101 542 101 565 q 117 502 101 518 q 156 486 133 486 m 156 632 q 195 648 179 632 q 211 688 211 664 q 195 726 211 711 q 156 742 179 742 q 117 726 133 742 q 101 688 101 711 q 117 648 101 664 q 156 632 133 632 m 156 775 q 195 790 179 775 q 211 829 211 806 q 195 869 211 853 q 156 885 179 885 q 117 869 133 885 q 101 829 101 853 q 117 790 101 806 q 156 775 133 775 m 281 421 q 319 437 303 421 q 335 476 335 453 q 319 516 335 500 q 281 532 303 532 q 241 516 257 532 q 225 476 225 500 q 241 437 225 453 q 281 421 257 421 m 414 435 q 453 451 438 435 q 468 489 468 467 q 453 528 468 513 q 414 544 438 544 q 374 528 390 544 q 358 489 358 513 q 374 451 358 467 q 414 435 390 435 m 510 531 q 549 546 533 531 q 564 585 564 561 q 549 624 564 608 q 510 640 533 640 q 470 624 486 640 q 454 585 454 608 q 470 546 454 561 q 510 531 486 531 z "},"N":{"ha":654,"x_min":35,"x_max":626,"o":"m 571 825 q 606 761 594 793 q 622 696 618 729 q 626 628 626 663 q 626 558 626 593 l 626 0 l 390 0 l 390 296 l 390 356 l 390 521 l 390 632 q 378 688 390 664 q 331 711 367 711 q 283 688 294 711 q 272 633 272 664 l 272 521 l 272 332 l 272 296 l 272 0 l 35 0 l 35 558 q 35 628 35 593 q 40 696 35 663 q 56 762 44 729 q 92 826 68 794 q 197 916 133 885 q 331 947 260 947 q 466 915 403 947 q 571 825 529 883 m 150 450 q 110 434 126 450 q 94 396 94 418 q 110 356 94 372 q 150 340 126 340 q 188 356 172 340 q 204 396 204 372 q 188 434 204 418 q 150 450 172 450 m 94 532 q 110 492 94 508 q 150 476 126 476 q 188 492 172 476 q 204 532 204 508 q 188 570 204 554 q 150 586 172 586 q 110 570 126 586 q 94 532 94 554 m 151 65 q 191 81 175 65 q 207 119 207 96 q 191 159 207 143 q 151 175 175 175 q 113 159 128 175 q 97 119 97 143 q 113 81 97 96 q 151 65 128 65 m 151 204 q 191 219 175 204 q 207 258 207 235 q 191 298 207 282 q 151 314 175 314 q 113 298 128 314 q 97 258 97 282 q 113 219 97 235 q 151 204 128 204 m 151 613 q 191 628 175 613 q 207 668 207 644 q 191 707 207 692 q 151 722 175 722 q 113 707 128 722 q 97 668 97 692 q 113 628 97 644 q 151 613 128 613 m 206 733 q 245 749 229 733 q 261 789 261 765 q 245 828 261 813 q 206 843 229 843 q 167 828 182 843 q 151 789 151 813 q 167 749 151 765 q 206 733 182 733 m 335 778 q 374 793 358 778 q 390 832 390 808 q 374 872 390 856 q 335 888 358 888 q 296 872 311 888 q 281 832 281 856 q 296 793 281 808 q 335 778 311 778 m 410 782 q 426 742 410 758 q 465 726 442 726 q 505 742 489 726 q 521 782 521 758 q 505 822 521 806 q 465 838 489 838 q 426 822 442 838 q 410 782 410 806 m 510 469 q 549 485 533 469 q 565 524 565 500 q 549 563 565 547 q 510 579 533 579 q 471 563 486 579 q 456 524 456 547 q 471 485 456 500 q 510 469 486 469 m 565 388 q 549 427 565 411 q 510 443 533 443 q 471 427 486 443 q 456 388 456 411 q 471 349 456 364 q 510 333 486 333 q 549 349 533 333 q 565 388 565 364 m 510 311 q 471 295 486 311 q 456 256 456 279 q 471 217 456 233 q 510 201 486 201 q 549 217 533 201 q 565 256 565 233 q 549 295 565 279 q 510 311 533 311 m 513 57 q 551 73 536 57 q 567 113 567 89 q 551 152 567 136 q 513 168 536 168 q 473 152 489 168 q 457 113 457 136 q 473 73 457 89 q 513 57 489 57 m 513 606 q 551 622 536 606 q 567 661 567 638 q 551 700 567 685 q 513 715 536 715 q 473 700 489 715 q 457 661 457 685 q 473 622 457 638 q 513 606 489 606 z "},"R":{"ha":654,"x_min":36,"x_max":628,"o":"m 569 474 q 619 362 610 418 q 628 243 628 306 l 628 0 l 392 0 l 392 224 q 392 247 392 232 q 392 278 393 263 q 388 310 390 294 q 378 333 385 325 q 356 349 369 344 q 327 355 342 354 q 298 355 313 356 q 272 354 283 354 l 272 0 l 214 0 l 36 0 l 36 947 l 214 947 q 311 947 264 947 q 402 938 358 947 q 487 905 446 929 q 565 833 528 881 q 612 747 596 793 q 628 654 628 701 q 613 560 628 607 q 569 474 599 514 m 150 63 q 190 78 174 63 q 206 118 206 94 q 190 156 206 140 q 150 172 174 172 q 110 156 126 172 q 94 118 94 140 q 110 78 94 94 q 150 63 126 63 m 150 203 q 190 218 174 203 q 206 257 206 233 q 190 297 206 281 q 150 313 174 313 q 110 297 126 313 q 94 257 94 281 q 110 218 94 233 q 150 203 126 203 m 150 343 q 190 359 174 343 q 206 399 206 375 q 190 438 206 422 q 150 453 174 453 q 110 438 126 453 q 94 399 94 422 q 110 359 94 375 q 150 343 126 343 m 150 482 q 190 497 174 482 q 206 536 206 513 q 190 576 206 560 q 150 592 174 592 q 110 576 126 592 q 94 536 94 560 q 110 497 94 513 q 150 482 126 482 m 150 628 q 190 643 174 628 q 206 682 206 658 q 190 722 206 706 q 150 738 174 738 q 110 722 126 738 q 94 682 94 706 q 110 643 94 658 q 150 628 126 628 m 150 769 q 190 785 174 769 q 206 825 206 801 q 190 863 206 847 q 150 879 174 879 q 110 863 126 879 q 94 825 94 847 q 110 785 94 801 q 150 769 126 769 m 415 860 q 376 844 392 860 q 360 806 360 829 q 376 766 360 782 q 415 750 392 750 q 454 766 439 750 q 469 806 469 782 q 454 844 469 829 q 415 860 439 860 m 488 636 q 448 620 464 636 q 432 581 432 604 q 448 541 432 557 q 488 525 464 525 q 526 541 511 525 q 542 581 542 557 q 526 620 542 604 q 488 636 511 636 m 392 651 q 380 686 392 671 q 349 708 368 701 q 310 712 329 714 q 272 710 292 710 l 272 592 q 310 590 292 592 q 349 594 329 588 q 380 616 368 600 q 392 651 392 632 m 283 882 q 244 866 260 882 q 228 826 228 850 q 244 788 228 803 q 283 772 260 772 q 322 788 307 772 q 338 826 338 803 q 322 866 338 850 q 283 882 307 882 m 269 424 q 308 440 293 424 q 324 479 324 456 q 308 517 324 501 q 269 533 293 533 q 230 517 246 533 q 214 479 214 501 q 230 440 214 456 q 269 424 246 424 m 343 482 q 359 443 343 458 q 399 428 375 428 q 438 443 422 428 q 453 482 453 458 q 438 522 453 506 q 399 538 422 538 q 359 522 375 538 q 343 482 343 506 m 419 372 q 435 333 419 349 q 475 317 451 317 q 514 333 499 317 q 529 372 529 349 q 514 412 529 396 q 475 428 499 428 q 435 412 451 428 q 419 372 419 396 m 500 301 q 462 285 478 301 q 446 246 446 269 q 462 207 446 222 q 500 192 478 192 q 540 207 524 192 q 556 246 556 222 q 540 285 556 269 q 500 301 524 301 m 503 65 q 542 81 526 65 q 558 119 558 96 q 542 159 558 143 q 503 175 526 175 q 464 159 479 175 q 449 119 449 143 q 464 81 449 96 q 503 65 479 65 m 507 657 q 547 673 531 657 q 563 713 563 689 q 547 751 563 736 q 507 767 531 767 q 468 751 483 767 q 453 713 453 736 q 468 673 453 689 q 507 657 483 657 z "},"S":{"ha":654,"x_min":31,"x_max":626,"o":"m 329 593 q 449 569 394 593 q 542 503 503 544 q 603 410 581 463 q 626 302 625 358 q 606 190 626 246 q 538 88 585 135 q 436 20 492 42 q 324 0 381 -1 q 215 24 268 1 q 122 85 163 46 q 56 177 81 124 q 32 297 32 231 l 269 297 q 280 263 269 278 q 306 242 290 249 q 340 239 322 236 q 371 256 357 242 q 388 287 385 269 q 384 320 390 304 q 363 347 378 336 q 329 357 349 357 q 210 381 264 357 q 117 447 156 406 q 56 540 78 488 q 32 648 33 592 q 51 760 31 704 q 119 863 72 815 q 222 930 167 908 q 333 950 276 951 q 442 926 389 949 q 535 865 494 904 q 601 772 576 826 q 625 653 625 718 l 388 653 q 377 687 388 672 q 351 708 367 701 q 317 711 335 714 q 286 694 300 708 q 270 663 272 681 q 274 630 268 646 q 295 603 281 614 q 329 593 310 593 m 172 153 q 212 168 196 153 q 228 207 228 183 q 212 247 228 231 q 172 263 196 263 q 133 247 149 263 q 118 207 118 231 q 133 168 118 183 q 172 153 149 153 m 272 68 q 312 83 296 68 q 328 122 328 99 q 312 162 328 146 q 272 178 296 178 q 234 162 250 178 q 218 122 218 146 q 234 83 218 99 q 272 68 250 68 m 518 408 q 478 392 494 408 q 463 354 463 376 q 478 315 463 331 q 518 299 494 299 q 557 315 542 299 q 572 354 572 331 q 557 392 572 376 q 518 408 542 408 m 486 821 q 447 805 463 821 q 431 765 431 789 q 447 726 431 742 q 486 710 463 710 q 525 726 510 710 q 540 765 540 742 q 525 805 540 789 q 486 821 510 821 m 369 893 q 330 878 346 893 q 314 839 314 863 q 330 799 314 815 q 369 783 346 783 q 408 799 393 783 q 424 839 424 815 q 408 878 424 863 q 369 893 393 893 m 238 864 q 198 848 214 864 q 182 808 182 832 q 198 769 182 785 q 238 754 214 754 q 277 769 261 754 q 293 808 293 785 q 277 848 293 832 q 238 864 261 864 m 165 758 q 126 743 142 758 q 110 704 110 728 q 126 665 110 681 q 165 649 142 649 q 205 665 189 649 q 221 704 221 681 q 205 743 221 728 q 165 758 189 758 m 171 519 q 210 535 194 519 q 226 575 226 551 q 210 614 226 599 q 171 629 194 629 q 132 614 147 629 q 117 575 117 599 q 132 535 117 551 q 171 519 147 519 m 276 436 q 315 452 299 436 q 331 492 331 468 q 315 531 331 515 q 276 546 299 546 q 237 531 253 546 q 221 492 221 515 q 237 452 221 468 q 276 436 253 436 m 353 444 q 369 405 353 421 q 408 389 385 389 q 447 405 431 389 q 463 444 463 421 q 447 484 463 468 q 408 500 431 500 q 369 484 385 500 q 353 444 353 468 m 404 72 q 444 88 428 72 q 460 128 460 104 q 444 166 460 150 q 404 182 428 182 q 365 166 381 182 q 350 128 350 150 q 365 88 350 104 q 404 72 381 72 m 504 164 q 543 180 528 164 q 558 219 558 196 q 543 258 558 243 q 504 274 528 274 q 465 258 481 274 q 449 219 449 243 q 465 180 449 196 q 504 164 481 164 z "},"L":{"ha":571,"x_min":40,"x_max":536,"o":"m 536 238 l 536 0 l 278 0 l 40 0 l 40 238 l 40 947 l 278 947 l 278 238 l 536 238 m 161 75 q 201 90 185 75 q 217 129 217 106 q 201 169 217 153 q 161 185 185 185 q 122 169 138 185 q 107 129 107 153 q 122 90 107 106 q 161 75 138 75 m 161 214 q 201 230 185 214 q 217 269 217 246 q 201 309 217 293 q 161 325 185 325 q 122 309 138 325 q 107 269 107 293 q 122 230 107 246 q 161 214 138 214 m 161 353 q 201 369 185 353 q 217 408 217 385 q 201 447 217 432 q 161 463 185 463 q 122 447 138 463 q 107 408 107 432 q 122 369 107 385 q 161 353 138 353 m 161 503 q 201 519 185 503 q 217 558 217 535 q 201 597 217 582 q 161 613 185 613 q 122 597 138 613 q 107 558 107 582 q 122 519 107 535 q 161 503 138 503 m 161 639 q 201 655 185 639 q 217 694 217 671 q 201 734 217 718 q 161 750 185 750 q 122 734 138 750 q 107 694 107 718 q 122 655 107 671 q 161 639 138 639 m 161 782 q 201 797 185 782 q 217 836 217 813 q 201 876 217 860 q 161 892 185 892 q 122 876 138 892 q 107 836 107 860 q 122 797 107 813 q 161 782 138 782 m 299 69 q 338 85 322 69 q 354 124 354 100 q 338 163 354 147 q 299 179 322 179 q 260 163 275 179 q 244 124 244 147 q 260 85 244 100 q 299 69 275 69 m 421 69 q 460 85 444 69 q 476 124 476 100 q 460 163 476 147 q 421 179 444 179 q 382 163 397 179 q 367 124 367 147 q 382 85 367 100 q 421 69 397 69 z "},"W":{"ha":1025,"x_min":38,"x_max":989,"o":"m 986 949 q 988 622 986 785 q 986 294 989 458 q 939 135 986 203 q 822 31 892 67 q 668 1 751 -4 q 513 60 585 6 q 356 1 439 6 q 203 31 274 -4 q 86 135 133 67 q 39 294 39 203 q 38 622 38 458 q 39 949 39 785 l 276 949 l 276 653 l 276 593 l 276 428 l 276 315 q 288 261 276 285 q 335 238 299 238 q 383 261 371 238 q 394 315 394 285 l 394 428 l 394 617 l 394 653 l 394 949 l 631 949 l 631 653 l 631 593 l 631 428 l 631 315 q 642 261 631 285 q 690 238 654 238 q 738 261 726 238 q 750 315 750 285 l 750 428 l 750 617 l 750 653 l 750 949 l 986 949 m 514 513 q 553 528 538 513 q 569 568 569 544 q 553 607 569 592 q 514 622 538 622 q 474 607 490 622 q 458 568 458 592 q 474 528 458 544 q 514 513 490 513 m 569 432 q 553 471 569 456 q 514 486 538 486 q 474 471 490 486 q 458 432 458 456 q 474 392 458 408 q 514 376 490 376 q 553 392 538 376 q 569 432 569 408 m 514 644 q 553 660 538 644 q 569 700 569 676 q 553 739 569 724 q 514 754 538 754 q 474 739 490 754 q 458 700 458 724 q 474 660 458 676 q 514 644 490 644 m 511 899 q 472 883 488 899 q 457 843 457 867 q 472 804 457 819 q 511 789 488 789 q 551 804 535 789 q 567 843 567 819 q 551 883 567 867 q 511 899 535 899 m 511 350 q 472 334 488 350 q 457 294 457 318 q 472 256 457 272 q 511 240 488 240 q 551 256 535 240 q 567 294 567 272 q 551 334 567 318 q 511 350 535 350 m 153 513 q 192 528 176 513 q 208 568 208 544 q 192 607 208 592 q 153 622 176 622 q 113 607 129 622 q 97 568 97 592 q 113 528 97 544 q 153 513 129 513 m 208 432 q 192 471 208 456 q 153 486 176 486 q 113 471 129 486 q 97 432 97 456 q 113 392 97 408 q 153 376 129 376 q 192 392 176 376 q 208 432 208 408 m 153 647 q 192 663 176 647 q 208 701 208 679 q 192 741 208 725 q 153 757 176 757 q 113 741 129 757 q 97 701 97 725 q 113 663 97 679 q 153 647 129 647 m 150 899 q 111 883 126 899 q 96 843 96 867 q 111 804 96 819 q 150 789 126 789 q 190 804 174 789 q 206 843 206 819 q 190 883 206 867 q 150 899 174 899 m 97 297 q 113 258 97 274 q 153 242 129 242 q 192 258 176 242 q 208 297 208 274 q 192 337 208 321 q 153 353 176 353 q 113 337 129 353 q 97 297 97 321 m 185 118 q 224 134 208 118 q 240 172 240 150 q 224 212 240 196 q 185 228 208 228 q 146 212 161 228 q 131 172 131 196 q 146 134 131 150 q 185 118 161 118 m 304 60 q 343 76 328 60 q 358 115 358 92 q 343 155 358 139 q 304 171 328 171 q 265 155 281 171 q 249 115 249 139 q 265 76 249 92 q 304 60 281 60 m 429 100 q 467 115 451 100 q 483 154 483 131 q 467 194 483 178 q 429 210 451 210 q 390 194 406 210 q 374 154 374 178 q 390 115 374 131 q 429 100 406 100 m 558 118 q 598 134 582 118 q 614 174 614 150 q 598 213 614 197 q 558 229 582 229 q 519 213 535 229 q 504 174 504 197 q 519 134 504 150 q 558 118 535 118 m 689 68 q 728 84 713 68 q 744 124 744 100 q 728 163 744 147 q 689 178 713 178 q 649 163 665 178 q 633 124 633 147 q 649 84 633 100 q 689 68 665 68 m 872 892 q 833 876 849 892 q 818 836 818 860 q 833 797 818 813 q 872 781 849 781 q 912 797 896 781 q 928 836 928 813 q 912 876 928 860 q 872 892 896 892 m 872 751 q 833 736 849 751 q 818 697 818 721 q 833 658 818 674 q 872 642 849 642 q 912 658 896 642 q 928 697 928 674 q 912 736 928 721 q 872 751 896 751 m 818 113 q 858 128 842 113 q 874 167 874 143 q 858 206 874 190 q 818 222 842 222 q 779 206 794 222 q 764 167 764 190 q 779 128 764 143 q 818 113 794 113 m 872 233 q 912 249 896 233 q 928 288 928 264 q 912 327 928 311 q 872 343 896 343 q 833 327 849 343 q 818 288 818 311 q 833 249 818 264 q 872 233 849 233 m 875 369 q 914 385 899 369 q 929 425 929 401 q 914 463 929 447 q 875 479 899 479 q 835 463 851 479 q 819 425 819 447 q 835 385 819 401 q 875 369 851 369 m 875 506 q 914 522 899 506 q 929 561 929 538 q 914 599 929 583 q 875 615 899 615 q 835 599 851 615 q 819 561 819 583 q 835 522 819 538 q 875 506 851 506 z "},"K":{"ha":654,"x_min":38,"x_max":631,"o":"m 394 474 l 631 0 l 365 0 l 275 183 l 275 0 l 38 0 l 38 238 l 38 949 l 215 949 l 275 949 l 275 765 l 365 949 l 631 949 l 394 474 m 447 904 q 408 888 424 904 q 393 849 393 872 q 408 809 393 825 q 447 793 424 793 q 487 809 471 793 q 503 849 503 825 q 487 888 503 872 q 447 904 471 904 m 381 782 q 342 766 357 782 q 326 726 326 750 q 342 688 326 703 q 381 672 357 672 q 420 688 404 672 q 436 726 436 703 q 420 766 436 750 q 381 782 404 782 m 313 667 q 273 651 289 667 q 257 611 257 635 q 273 572 257 588 q 313 557 289 557 q 351 572 336 557 q 367 611 367 588 q 351 651 367 635 q 313 667 336 667 m 154 61 q 194 77 178 61 q 210 117 210 93 q 194 156 210 140 q 154 171 178 171 q 115 156 131 171 q 99 117 99 140 q 115 77 99 93 q 154 61 131 61 m 157 199 q 195 215 179 199 q 211 254 211 231 q 195 293 211 278 q 157 308 179 308 q 117 293 133 308 q 101 254 101 278 q 117 215 101 231 q 157 199 133 199 m 157 344 q 195 360 179 344 q 211 400 211 376 q 195 439 211 424 q 157 454 179 454 q 117 439 133 454 q 101 400 101 424 q 117 360 101 376 q 157 344 133 344 m 158 499 q 198 515 182 499 q 214 554 214 531 q 198 594 214 578 q 158 610 182 610 q 119 594 135 610 q 104 554 104 578 q 119 515 104 531 q 158 499 135 499 m 158 640 q 198 656 182 640 q 214 696 214 672 q 198 735 214 719 q 158 750 182 750 q 119 735 135 750 q 104 696 104 719 q 119 656 104 672 q 158 640 135 640 m 164 788 q 202 803 186 788 q 218 842 218 818 q 202 881 218 865 q 164 897 186 897 q 124 881 140 897 q 108 842 108 865 q 124 803 108 818 q 164 788 140 788 m 224 474 q 239 434 224 450 q 278 418 254 418 q 317 434 301 418 q 333 474 333 450 q 317 512 333 496 q 278 528 301 528 q 239 512 254 528 q 224 474 224 496 m 267 342 q 283 302 267 318 q 321 286 299 286 q 360 302 344 286 q 376 342 376 318 q 360 381 376 365 q 321 396 344 396 q 283 381 299 396 q 267 342 267 365 m 510 106 q 494 145 510 129 q 454 161 478 161 q 415 145 431 161 q 399 106 399 129 q 415 67 399 82 q 454 51 431 51 q 494 67 478 51 q 510 106 510 82 m 440 222 q 424 261 440 246 q 386 276 408 276 q 347 261 363 276 q 331 222 331 246 q 347 183 331 199 q 386 167 363 167 q 424 183 408 167 q 440 222 440 199 z "},"M":{"ha":1033,"x_min":46,"x_max":996,"o":"m 994 654 q 995 327 996 490 q 994 0 994 164 l 757 0 l 757 296 l 757 356 l 757 521 l 757 632 q 746 688 757 664 q 699 711 735 711 q 651 688 663 711 q 639 633 639 664 l 639 521 l 639 332 l 639 296 l 639 0 l 401 0 l 401 296 l 401 356 l 401 521 l 401 632 q 390 688 401 664 q 343 711 379 711 q 295 688 307 711 q 283 633 283 664 l 283 521 l 283 332 l 283 296 l 283 0 l 47 0 q 47 327 47 164 q 47 654 46 490 q 94 814 47 746 q 212 917 142 882 q 365 948 282 953 q 521 889 447 943 q 676 948 593 943 q 830 917 760 953 q 947 814 900 882 q 994 654 994 746 m 158 443 q 119 427 135 443 q 104 388 104 411 q 119 349 104 365 q 158 333 135 333 q 198 349 182 333 q 214 388 214 365 q 198 427 214 411 q 158 443 182 443 m 104 524 q 119 485 104 500 q 158 469 135 469 q 198 485 182 469 q 214 524 214 500 q 198 563 214 547 q 158 579 182 579 q 119 563 135 579 q 104 524 104 547 m 161 57 q 200 73 185 57 q 215 113 215 89 q 200 152 215 136 q 161 168 185 168 q 122 152 138 168 q 106 113 106 136 q 122 73 106 89 q 161 57 138 57 m 161 197 q 200 213 185 197 q 215 251 215 228 q 200 291 215 275 q 161 307 185 307 q 122 291 138 307 q 106 251 106 275 q 122 213 106 228 q 161 197 138 197 m 161 606 q 200 622 185 606 q 215 661 215 638 q 200 700 215 685 q 161 715 185 715 q 122 700 138 715 q 106 661 106 685 q 122 622 106 638 q 161 606 138 606 m 215 726 q 254 742 239 726 q 269 782 269 758 q 254 821 269 806 q 215 836 239 836 q 176 821 192 836 q 160 782 160 806 q 176 742 160 758 q 215 726 192 726 m 344 771 q 384 786 368 771 q 400 825 400 801 q 384 865 400 849 q 344 881 368 881 q 305 865 321 881 q 289 825 289 849 q 305 786 289 801 q 344 771 321 771 m 935 651 q 919 690 935 675 q 881 706 904 706 q 841 690 857 706 q 825 651 825 675 q 841 612 825 628 q 881 596 857 596 q 919 612 904 596 q 935 651 935 628 m 881 463 q 919 478 904 463 q 935 517 935 493 q 919 556 935 540 q 881 572 904 572 q 841 556 857 572 q 825 517 825 540 q 841 478 825 493 q 881 463 857 463 m 935 381 q 919 420 935 404 q 881 436 904 436 q 841 420 857 436 q 825 381 825 404 q 841 342 825 357 q 881 326 857 326 q 919 342 904 326 q 935 381 935 357 m 419 775 q 435 735 419 751 q 475 719 451 719 q 513 735 497 719 q 529 775 529 751 q 513 814 529 799 q 475 829 497 829 q 435 814 451 829 q 419 775 419 799 m 519 463 q 558 478 543 463 q 574 517 574 493 q 558 556 574 540 q 519 572 543 572 q 480 556 496 572 q 464 517 464 540 q 480 478 464 493 q 519 463 496 463 m 574 381 q 558 420 574 404 q 519 436 543 436 q 480 420 496 436 q 464 381 464 404 q 480 342 464 357 q 519 326 496 326 q 558 342 543 326 q 574 381 574 357 m 519 304 q 480 288 496 304 q 464 249 464 272 q 480 210 464 225 q 519 194 496 194 q 558 210 543 194 q 574 249 574 225 q 558 288 574 272 q 519 304 543 304 m 521 50 q 560 66 544 50 q 576 106 576 82 q 560 144 576 129 q 521 160 544 160 q 483 144 499 160 q 467 106 467 129 q 483 66 467 82 q 521 50 499 50 m 521 599 q 560 615 544 599 q 576 654 576 631 q 560 692 576 676 q 521 708 544 708 q 483 692 499 708 q 467 654 467 676 q 483 615 467 631 q 521 599 499 599 m 604 739 q 644 755 628 739 q 660 794 660 771 q 644 833 660 818 q 604 849 628 849 q 565 833 581 849 q 550 794 550 818 q 565 755 550 771 q 604 739 581 739 m 729 778 q 769 794 753 778 q 785 833 785 810 q 769 872 785 857 q 729 888 753 888 q 690 872 706 888 q 675 833 675 857 q 690 794 675 810 q 729 778 706 778 m 793 775 q 809 737 793 753 q 849 721 825 721 q 887 737 871 721 q 903 775 903 753 q 887 815 903 799 q 849 831 871 831 q 809 815 825 831 q 793 775 793 799 m 881 301 q 841 286 857 301 q 825 247 825 271 q 841 208 825 224 q 881 192 857 192 q 919 208 904 192 q 935 247 935 224 q 919 286 935 271 q 881 301 904 301 m 882 50 q 922 66 906 50 q 938 106 938 82 q 922 144 938 129 q 882 160 906 160 q 844 144 860 160 q 828 106 828 129 q 844 66 828 82 q 882 50 860 50 z "},"Q":{"ha":654,"x_min":26,"x_max":631,"o":"m 629 385 q 628 311 629 347 q 622 240 628 275 q 600 172 615 206 q 557 106 585 139 l 629 -61 l 367 -61 l 340 0 q 197 29 265 -3 q 85 124 129 61 q 47 192 60 157 q 31 262 35 226 q 26 333 26 297 q 26 407 26 369 q 26 437 26 414 q 26 490 26 460 q 26 554 26 519 q 26 619 26 589 q 27 673 26 650 q 29 703 28 696 q 83 839 39 778 q 194 933 126 900 q 342 964 267 968 q 478 924 417 960 q 582 825 540 888 q 628 682 624 763 q 630 608 631 644 q 629 533 629 571 l 629 385 m 560 689 q 544 728 560 713 q 504 744 528 744 q 465 728 481 744 q 449 689 449 713 q 465 649 449 665 q 504 633 481 633 q 544 649 528 633 q 560 689 560 665 m 454 863 q 415 847 431 863 q 399 807 399 831 q 415 767 399 783 q 454 751 431 751 q 494 767 478 751 q 510 807 510 783 q 494 847 510 831 q 454 863 478 863 m 333 906 q 294 889 310 906 q 278 849 278 872 q 294 809 278 825 q 333 793 310 793 q 374 809 357 793 q 390 849 390 825 q 374 889 390 872 q 333 906 357 906 m 207 868 q 167 851 183 868 q 151 811 151 835 q 167 772 151 788 q 207 756 183 756 q 247 772 231 756 q 263 811 263 788 q 247 851 263 835 q 207 868 231 868 m 149 749 q 109 733 125 749 q 93 693 93 717 q 109 653 93 669 q 149 638 125 638 q 189 653 172 638 q 206 693 206 669 q 189 733 206 717 q 149 749 172 749 m 149 613 q 109 597 125 613 q 93 557 93 581 q 109 517 93 533 q 149 500 125 500 q 189 517 172 500 q 206 557 206 533 q 189 597 206 581 q 149 613 172 613 m 149 465 q 109 449 125 465 q 93 408 93 432 q 109 369 93 385 q 149 353 125 353 q 189 369 172 353 q 206 408 206 385 q 189 449 206 432 q 149 465 172 465 m 90 272 q 107 233 90 249 q 147 217 124 217 q 187 233 171 217 q 203 272 203 249 q 187 312 203 296 q 147 328 171 328 q 107 312 124 328 q 90 272 90 296 m 210 99 q 249 115 233 99 q 265 156 265 132 q 249 195 265 179 q 210 211 233 211 q 170 195 186 211 q 154 156 154 179 q 170 115 154 132 q 210 99 186 99 m 288 708 q 269 679 272 694 q 267 644 267 664 l 267 576 l 267 301 q 277 268 267 282 q 302 247 288 254 q 334 242 317 240 q 367 256 351 243 q 385 285 383 269 q 388 319 388 300 l 388 388 l 388 663 q 378 696 388 682 q 353 717 368 710 q 320 722 338 724 q 288 708 303 721 m 335 61 q 375 78 358 61 q 392 118 392 94 q 375 158 392 142 q 335 174 358 174 q 295 158 311 174 q 279 118 279 142 q 295 78 279 94 q 335 61 311 61 m 453 229 q 413 213 429 229 q 397 174 397 197 q 413 134 397 150 q 453 118 429 118 q 492 134 476 118 q 508 174 508 150 q 492 213 508 197 q 453 229 476 229 m 465 -24 q 506 -8 489 -24 q 522 32 522 8 q 506 72 522 56 q 465 89 489 89 q 426 72 442 89 q 410 32 410 56 q 426 -8 410 8 q 465 -24 442 -24 m 507 238 q 547 253 531 238 q 563 293 563 269 q 547 333 563 317 q 507 350 531 350 q 467 333 483 350 q 450 293 450 317 q 467 253 450 269 q 507 238 483 238 m 511 367 q 551 383 535 367 q 567 424 567 400 q 551 463 567 447 q 511 479 535 479 q 472 463 488 479 q 456 424 456 447 q 472 383 456 400 q 511 367 488 367 m 511 506 q 551 522 535 506 q 567 561 567 538 q 551 601 567 585 q 511 618 535 618 q 472 601 488 618 q 456 561 456 585 q 472 522 456 538 q 511 506 488 506 z "},"T":{"ha":578,"x_min":31,"x_max":546,"o":"m 546 947 l 546 710 l 407 710 l 407 0 l 169 0 l 169 710 l 31 710 l 31 947 l 546 947 m 157 775 q 197 791 181 775 q 213 831 213 807 q 197 870 213 854 q 157 886 181 886 q 117 870 133 886 q 101 831 101 854 q 117 791 101 807 q 157 775 133 775 m 289 67 q 327 82 311 67 q 343 121 343 97 q 327 160 343 144 q 289 176 311 176 q 249 160 265 176 q 233 121 233 144 q 249 82 233 97 q 289 67 265 67 m 289 206 q 327 222 311 206 q 343 261 343 238 q 327 301 343 285 q 289 317 311 317 q 249 301 265 317 q 233 261 233 285 q 249 222 233 238 q 289 206 265 206 m 289 344 q 327 360 311 344 q 343 400 343 376 q 327 440 343 424 q 289 456 311 456 q 249 440 265 456 q 233 400 233 424 q 249 360 233 376 q 289 344 265 344 m 289 494 q 327 510 311 494 q 343 550 343 526 q 327 589 343 574 q 289 604 311 604 q 249 589 265 604 q 233 550 233 574 q 249 510 233 526 q 289 494 265 494 m 289 631 q 327 647 311 631 q 343 686 343 663 q 327 726 343 710 q 289 742 311 742 q 249 726 265 742 q 233 686 233 710 q 249 647 233 663 q 289 631 265 631 m 289 774 q 327 790 311 774 q 343 828 343 806 q 327 867 343 851 q 289 883 311 883 q 249 867 265 883 q 233 828 233 851 q 249 790 233 806 q 289 774 265 774 m 429 776 q 469 792 453 776 q 485 832 485 808 q 469 871 485 856 q 429 886 453 886 q 390 871 406 886 q 374 832 374 856 q 390 792 374 808 q 429 776 406 776 z "},"V":{"ha":635,"x_min":22,"x_max":615,"o":"m 615 949 l 465 0 l 172 0 l 22 949 l 263 949 l 318 592 l 375 949 l 615 949 m 100 844 q 121 809 103 822 q 163 799 139 796 q 199 819 185 801 q 208 861 213 838 q 188 897 206 883 q 146 907 169 910 q 110 886 124 904 q 100 844 97 868 m 126 701 q 147 665 129 678 q 188 654 165 651 q 224 676 211 658 q 235 717 238 694 q 214 753 232 740 q 172 764 196 767 q 135 743 149 761 q 126 701 122 725 m 146 561 q 167 526 149 539 q 208 515 185 513 q 245 536 232 518 q 256 578 258 554 q 233 613 251 600 q 193 624 215 626 q 156 603 169 621 q 146 561 143 585 m 164 425 q 185 388 167 401 q 226 378 203 375 q 263 399 250 381 q 272 440 276 417 q 251 477 269 464 q 210 488 233 490 q 174 465 188 483 q 164 425 161 447 m 181 282 q 201 247 183 260 q 243 236 219 233 q 278 257 265 239 q 289 299 292 275 q 268 335 286 322 q 226 344 250 347 q 191 324 204 342 q 181 282 178 306 m 310 129 q 299 170 313 151 q 264 192 286 189 q 222 181 240 194 q 201 146 204 168 q 210 104 197 122 q 247 83 224 86 q 289 92 271 79 q 310 129 307 106 m 442 129 q 431 170 444 151 q 396 192 418 189 q 354 181 372 194 q 333 146 336 168 q 342 104 329 122 q 379 82 356 86 q 421 92 403 79 q 442 129 439 106 m 454 274 q 444 315 457 297 q 408 336 431 333 q 367 326 385 339 q 346 290 349 314 q 355 249 342 267 q 392 228 368 231 q 433 238 415 225 q 454 274 451 250 m 471 421 q 462 461 475 443 q 425 483 449 479 q 384 473 403 486 q 363 436 365 460 q 373 396 360 414 q 408 374 386 378 q 450 384 432 371 q 471 421 468 397 m 492 561 q 483 603 496 585 q 446 624 469 621 q 404 613 422 626 q 383 578 386 600 q 394 536 381 554 q 429 515 407 518 q 471 524 453 511 q 492 561 489 538 m 514 701 q 503 742 517 724 q 467 764 490 760 q 426 753 444 767 q 404 717 408 740 q 415 676 401 694 q 450 654 428 658 q 492 665 474 651 q 514 701 510 678 m 472 794 q 514 805 496 792 q 535 840 532 818 q 526 882 539 864 q 489 903 513 900 q 447 894 465 907 q 426 857 429 881 q 437 815 424 833 q 472 794 450 797 z "},"Z":{"ha":688,"x_min":36,"x_max":657,"o":"m 657 711 l 325 236 l 657 236 l 657 0 l 36 0 l 36 236 l 368 711 l 36 711 l 36 947 l 657 947 l 657 711 m 196 818 q 188 860 200 842 q 153 881 175 878 q 114 872 132 885 q 93 835 96 858 q 101 794 89 813 q 136 772 114 775 q 175 782 157 769 q 196 818 193 794 m 333 822 q 325 863 338 844 q 292 885 313 881 q 252 874 269 888 q 231 839 235 861 q 240 797 228 815 q 274 776 251 779 q 313 785 294 772 q 333 822 331 799 m 354 838 q 363 796 350 814 q 397 775 375 778 q 436 784 418 771 q 457 821 454 797 q 449 862 461 843 q 415 883 436 881 q 375 873 393 886 q 354 838 357 860 m 213 114 q 203 154 215 136 q 169 176 192 172 q 130 166 147 179 q 108 131 113 153 q 118 89 106 107 q 151 67 131 71 q 191 77 174 64 q 213 114 208 90 m 192 196 q 231 206 213 193 q 251 242 249 218 q 243 283 256 265 q 210 304 231 301 q 169 294 188 307 q 149 258 151 282 q 157 217 144 236 q 192 196 169 199 m 494 135 q 503 93 490 111 q 538 72 515 75 q 576 81 558 68 q 597 118 594 94 q 589 159 601 140 q 554 181 576 178 q 515 170 533 183 q 494 135 497 157 m 371 131 q 379 89 367 107 q 413 67 392 71 q 452 77 435 64 q 474 114 469 90 q 465 154 478 136 q 431 176 453 172 q 392 166 410 179 q 371 131 374 153 m 343 113 q 334 153 346 135 q 300 175 322 171 q 261 165 279 178 q 240 129 243 151 q 249 88 236 106 q 282 67 261 69 q 322 76 304 63 q 343 113 339 89 m 329 350 q 321 390 333 372 q 286 413 308 408 q 247 402 265 415 q 226 367 229 389 q 235 325 222 343 q 269 304 247 307 q 308 313 290 300 q 329 350 326 326 m 403 464 q 392 505 406 488 q 354 525 378 522 q 314 514 331 528 q 294 476 297 500 q 306 435 292 453 q 343 415 319 418 q 383 427 365 413 q 403 464 400 442 m 471 575 q 463 617 475 599 q 428 638 450 635 q 389 628 407 642 q 368 592 371 615 q 376 551 364 569 q 411 529 389 532 q 450 540 432 526 q 471 575 468 553 m 549 690 q 540 732 551 714 q 506 753 528 750 q 466 744 483 757 q 444 707 449 731 q 454 667 442 685 q 488 644 467 649 q 527 655 510 642 q 549 690 544 668 m 589 821 q 579 862 592 843 q 546 883 567 881 q 506 873 524 886 q 485 838 489 860 q 494 796 482 814 q 528 775 507 778 q 567 784 550 771 q 589 821 585 797 z "},"X":{"ha":675,"x_min":18,"x_max":653,"o":"m 463 474 l 653 0 l 397 0 l 336 154 l 274 0 l 18 0 l 208 474 l 18 949 l 274 949 l 336 793 l 397 949 l 653 949 l 463 474 m 447 861 q 460 822 446 838 q 497 804 475 806 q 534 817 518 803 q 551 856 550 832 q 538 896 553 879 q 503 914 524 913 q 465 900 481 915 q 447 861 449 885 m 397 739 q 410 699 396 715 q 447 682 425 683 q 484 695 468 681 q 501 733 500 710 q 489 774 503 757 q 453 792 475 790 q 415 778 431 793 q 397 739 399 763 m 338 613 q 351 572 336 589 q 388 554 365 556 q 426 568 410 553 q 443 607 442 583 q 430 646 444 629 q 393 664 415 663 q 356 650 371 665 q 338 613 340 635 m 324 604 q 308 642 324 626 q 268 658 292 658 q 229 642 244 658 q 214 604 214 626 q 229 565 214 581 q 268 549 244 549 q 308 565 292 549 q 324 604 324 581 m 117 854 q 133 815 117 831 q 172 799 149 799 q 212 815 196 799 q 228 854 228 831 q 212 893 228 878 q 172 908 196 908 q 133 893 149 908 q 117 854 117 878 m 169 729 q 185 690 169 706 q 225 674 201 674 q 265 690 249 674 q 281 729 281 706 q 265 769 281 753 q 225 785 249 785 q 185 769 201 785 q 169 729 169 753 m 218 96 q 205 136 219 119 q 168 154 190 153 q 130 140 146 156 q 113 101 114 125 q 126 62 111 78 q 163 44 140 46 q 200 58 185 43 q 218 96 215 72 m 276 218 q 263 258 278 242 q 226 276 249 274 q 189 263 204 278 q 172 224 174 247 q 184 184 169 200 q 221 165 199 168 q 259 179 243 164 q 276 218 275 194 m 319 347 q 306 388 321 371 q 269 406 292 404 q 232 392 247 407 q 214 353 217 376 q 227 313 213 329 q 264 296 242 297 q 302 308 286 293 q 319 347 318 324 m 329 422 q 368 438 353 422 q 383 478 383 454 q 368 516 383 500 q 329 532 353 532 q 290 516 306 532 q 274 478 274 500 q 290 438 274 454 q 329 422 306 422 m 343 350 q 358 311 343 326 q 397 296 374 296 q 437 311 421 296 q 453 350 453 326 q 437 390 453 374 q 397 406 421 406 q 358 390 374 406 q 343 350 343 374 m 546 96 q 533 136 547 119 q 497 154 518 153 q 459 140 475 156 q 442 101 443 125 q 455 62 440 78 q 492 44 469 46 q 528 58 513 43 q 546 96 544 72 m 494 221 q 478 260 494 244 q 439 276 463 276 q 399 260 415 276 q 383 221 383 244 q 399 181 383 197 q 439 165 415 165 q 478 181 463 165 q 494 221 494 197 z "},"Y":{"ha":654,"x_min":26,"x_max":618,"o":"m 618 947 l 618 597 q 572 431 618 506 q 440 321 525 357 l 440 0 l 204 0 l 204 321 q 73 431 119 357 q 26 597 26 506 l 26 947 l 263 947 l 263 724 l 263 611 q 274 557 263 581 q 322 533 286 533 q 369 557 358 533 q 381 611 381 581 l 381 724 l 381 947 l 618 947 m 146 900 q 107 885 122 900 q 92 846 92 869 q 107 806 92 822 q 146 790 122 790 q 185 806 169 790 q 201 846 201 822 q 185 885 201 869 q 146 900 169 900 m 146 765 q 107 749 122 765 q 92 710 92 733 q 107 670 92 686 q 146 654 122 654 q 185 670 169 654 q 201 710 201 686 q 185 749 201 733 q 146 765 169 765 m 89 574 q 105 534 89 550 q 144 518 121 518 q 183 534 167 518 q 199 574 199 550 q 183 613 199 597 q 144 628 167 628 q 105 613 121 628 q 89 574 89 597 m 190 397 q 230 413 214 397 q 246 451 246 428 q 230 491 246 475 q 190 507 214 507 q 152 491 168 507 q 136 451 136 475 q 152 413 136 428 q 190 397 168 397 m 321 454 q 282 438 297 454 q 267 399 267 422 q 282 360 267 375 q 321 344 297 344 q 360 360 344 344 q 376 399 376 375 q 360 438 376 422 q 321 454 344 454 m 322 65 q 361 81 346 65 q 376 119 376 96 q 361 159 376 143 q 322 175 346 175 q 283 159 299 175 q 267 119 267 143 q 283 81 267 96 q 322 65 299 65 m 322 206 q 361 222 346 206 q 376 261 376 238 q 361 300 376 285 q 322 315 346 315 q 283 300 299 315 q 267 261 267 285 q 283 222 267 238 q 322 206 299 206 m 450 390 q 490 406 474 390 q 506 444 506 422 q 490 484 506 468 q 450 500 474 500 q 411 484 426 500 q 396 444 396 468 q 411 406 396 422 q 450 390 426 390 m 504 511 q 544 527 528 511 q 560 565 560 543 q 544 605 560 589 q 504 621 528 621 q 465 605 481 621 q 450 565 450 589 q 465 527 450 543 q 504 511 481 511 m 507 647 q 546 663 531 647 q 561 703 561 679 q 546 742 561 726 q 507 757 531 757 q 467 742 483 757 q 451 703 451 726 q 467 663 451 679 q 507 647 483 647 m 507 783 q 546 799 531 783 q 561 839 561 815 q 546 877 561 861 q 507 893 531 893 q 467 877 483 893 q 451 839 451 861 q 467 799 451 815 q 507 783 483 783 z "},"?":{"ha":654,"x_min":31,"x_max":626,"o":"m 489 900 q 569 824 538 868 q 613 729 600 779 q 622 628 626 679 q 597 529 618 576 q 537 443 575 482 q 444 381 499 404 l 444 297 l 208 297 l 208 458 q 224 535 208 501 q 285 586 240 569 q 324 592 304 593 q 363 606 343 592 q 384 638 379 618 q 381 678 389 658 q 351 707 371 699 q 313 711 332 715 q 281 692 294 707 q 267 653 267 676 l 31 653 q 74 808 31 740 q 185 913 118 876 q 334 949 253 949 q 489 900 415 949 m 158 692 q 198 708 182 692 q 214 746 214 724 q 198 785 214 769 q 158 801 182 801 q 119 785 135 801 q 103 746 103 769 q 119 708 103 724 q 158 692 135 692 m 254 776 q 294 792 278 776 q 310 832 310 808 q 294 870 310 854 q 254 886 278 886 q 215 870 231 886 q 199 832 199 854 q 215 792 199 808 q 254 776 231 776 m 483 806 q 444 790 460 806 q 428 750 428 774 q 444 711 428 726 q 483 696 460 696 q 523 711 507 696 q 539 750 539 726 q 523 790 539 774 q 483 806 507 806 m 332 835 q 347 795 332 811 q 386 779 363 779 q 426 795 410 779 q 442 835 442 811 q 426 873 442 857 q 386 889 410 889 q 347 873 363 889 q 332 835 332 857 m 335 356 q 374 371 358 356 q 389 410 389 386 q 374 449 389 433 q 335 465 358 465 q 295 449 311 465 q 279 410 279 433 q 295 371 279 386 q 335 356 311 356 m 413 463 q 452 478 436 463 q 468 518 468 494 q 452 557 468 542 q 413 572 436 572 q 373 557 389 572 q 357 518 357 542 q 373 478 357 494 q 413 463 389 463 m 503 560 q 542 576 526 560 q 557 615 557 592 q 542 655 557 639 q 503 671 526 671 q 463 655 479 671 q 447 615 447 639 q 463 576 447 592 q 503 560 479 560 m 326 238 q 410 203 375 238 q 444 119 444 168 q 410 36 444 71 q 326 1 375 1 q 243 36 278 1 q 208 119 208 71 q 243 203 208 168 q 326 238 278 238 m 326 69 q 366 85 350 69 q 382 125 382 101 q 366 163 382 147 q 326 179 350 179 q 287 163 303 179 q 271 125 271 147 q 287 85 271 101 q 326 69 303 69 z "},"!":{"ha":310,"x_min":33,"x_max":271,"o":"m 271 949 l 271 297 l 33 297 l 33 949 l 271 949 m 151 353 q 191 368 175 353 q 207 407 207 383 q 191 447 207 431 q 151 463 175 463 q 113 447 128 463 q 97 407 97 431 q 113 368 97 383 q 151 353 128 353 m 154 490 q 194 506 178 490 q 210 546 210 522 q 194 584 210 568 q 154 600 178 600 q 115 584 131 600 q 100 546 100 568 q 115 506 100 522 q 154 490 131 490 m 154 631 q 194 647 178 631 q 210 686 210 663 q 194 725 210 710 q 154 740 178 740 q 115 725 131 740 q 100 686 100 710 q 115 647 100 663 q 154 631 131 631 m 154 774 q 194 790 178 774 q 210 828 210 806 q 194 867 210 851 q 154 883 178 883 q 115 867 131 883 q 100 828 100 851 q 115 790 100 806 q 154 774 131 774 m 151 238 q 198 228 176 238 q 235 203 219 219 q 261 166 251 188 q 271 119 271 144 q 261 73 271 94 q 235 35 251 51 q 198 10 219 19 q 151 0 176 0 q 105 10 126 0 q 67 35 83 19 q 42 73 51 51 q 33 119 33 94 q 68 203 33 168 q 151 238 103 238 m 154 71 q 194 87 178 71 q 210 126 210 103 q 194 165 210 149 q 154 181 178 181 q 115 165 131 181 q 100 126 100 149 q 115 87 100 103 q 154 71 131 71 z "},":":{"ha":290,"x_min":24,"x_max":263,"o":"m 144 238 q 228 203 193 238 q 263 118 263 168 q 228 35 263 69 q 144 0 193 0 q 60 35 94 0 q 25 118 25 69 q 60 203 25 168 q 144 238 94 238 m 144 71 q 183 86 168 71 q 199 125 199 101 q 183 165 199 149 q 144 181 168 181 q 105 165 121 181 q 89 125 89 149 q 105 86 89 101 q 144 71 121 71 m 143 946 q 226 911 192 946 q 261 826 261 876 q 226 743 261 778 q 143 708 192 708 q 58 743 93 708 q 24 826 24 778 q 58 911 24 876 q 143 946 93 946 m 143 779 q 182 794 167 779 q 197 833 197 810 q 182 873 197 857 q 143 889 167 889 q 103 873 119 889 q 88 833 88 857 q 103 794 88 810 q 143 779 119 779 z "},";":{"ha":290,"x_min":24,"x_max":267,"o":"m 143 946 q 226 911 192 946 q 261 826 261 876 q 226 743 261 778 q 143 708 192 708 q 58 743 93 708 q 24 826 24 778 q 58 911 24 876 q 143 946 93 946 m 143 779 q 182 794 167 779 q 197 833 197 810 q 182 873 197 857 q 143 889 167 889 q 103 873 119 889 q 88 833 88 857 q 103 794 88 810 q 143 779 119 779 m 264 126 q 265 122 264 124 q 264 121 267 121 q 226 -30 264 36 q 125 -147 188 -96 q 95 -151 111 -158 q 78 -126 79 -144 q 69 -62 75 -93 q 58 -33 65 -47 q 46 -4 51 -19 q 29 58 35 28 q 26 121 24 88 q 36 167 26 146 q 62 205 46 189 q 99 230 78 221 q 146 239 121 239 q 229 204 194 239 q 254 165 246 188 q 258 154 257 160 q 261 143 260 149 q 263 138 263 140 q 264 132 263 135 l 264 126 m 146 51 q 185 67 169 51 q 200 107 200 83 q 185 146 200 131 q 146 161 169 161 q 106 146 122 161 q 90 107 90 131 q 106 67 90 83 q 146 51 122 51 z "},".":{"ha":289,"x_min":25,"x_max":263,"o":"m 144 238 q 228 203 193 238 q 263 118 263 168 q 228 35 263 69 q 144 0 193 0 q 60 35 94 0 q 25 118 25 69 q 60 203 25 168 q 144 238 94 238 m 144 71 q 183 86 168 71 q 199 125 199 101 q 183 165 199 149 q 144 181 168 181 q 105 165 121 181 q 89 125 89 149 q 105 86 89 101 q 144 71 121 71 z "},",":{"ha":293,"x_min":24,"x_max":267,"o":"m 264 126 q 265 122 264 124 q 264 121 267 121 q 226 -30 264 36 q 125 -147 188 -96 q 95 -151 111 -158 q 78 -126 79 -144 q 69 -62 75 -93 q 58 -33 65 -47 q 46 -4 51 -19 q 29 58 35 28 q 26 121 24 88 q 36 167 26 146 q 62 205 46 189 q 99 230 78 221 q 146 239 121 239 q 229 204 194 239 q 254 165 246 188 q 258 154 257 160 q 261 143 260 149 q 263 138 263 140 q 264 132 263 135 l 264 126 m 146 51 q 185 67 169 51 q 200 107 200 83 q 185 146 200 131 q 146 161 169 161 q 106 146 122 161 q 90 107 90 131 q 106 67 90 83 q 146 51 122 51 z "},"a":{"ha":654,"x_min":33,"x_max":626,"o":"m 576 814 q 619 705 613 760 q 626 589 626 650 l 626 503 l 626 354 l 626 0 l 389 0 l 389 236 l 271 236 l 271 0 l 33 0 l 33 469 q 33 516 33 483 q 33 586 33 549 q 34 656 33 624 q 38 703 35 689 q 81 812 49 763 q 163 896 114 861 q 272 942 214 931 q 385 942 329 953 q 492 898 442 931 q 576 814 542 865 m 564 658 q 548 698 564 682 q 508 714 532 714 q 469 698 485 714 q 454 658 454 682 q 469 620 454 636 q 508 604 485 604 q 548 620 532 604 q 564 658 564 636 m 456 831 q 416 815 432 831 q 400 775 400 799 q 416 735 400 751 q 456 719 432 719 q 494 735 478 719 q 510 775 510 751 q 494 815 510 799 q 456 831 478 831 m 332 876 q 292 860 308 876 q 276 821 276 844 q 292 781 276 797 q 332 765 308 765 q 372 781 356 765 q 388 821 388 797 q 372 860 388 844 q 332 876 356 876 m 276 675 q 269 642 268 658 q 271 608 271 625 l 271 474 l 389 474 l 389 608 q 390 642 389 625 q 383 675 392 658 q 329 710 368 710 q 276 675 292 710 m 210 832 q 170 816 186 832 q 154 778 154 800 q 170 738 154 754 q 210 722 186 722 q 249 738 233 722 q 264 778 264 754 q 249 816 264 800 q 210 832 233 832 m 156 714 q 116 698 132 714 q 100 658 100 682 q 116 619 100 635 q 156 604 132 604 q 194 619 179 604 q 210 658 210 635 q 194 698 210 682 q 156 714 179 714 m 156 576 q 116 561 132 576 q 100 522 100 546 q 116 483 100 499 q 156 467 132 467 q 194 483 179 467 q 210 522 210 499 q 194 561 210 546 q 156 576 179 576 m 153 442 q 114 426 129 442 q 99 386 99 410 q 114 347 99 363 q 153 331 129 331 q 192 347 176 331 q 208 386 208 363 q 192 426 208 410 q 153 442 176 442 m 158 58 q 197 74 181 58 q 213 113 213 89 q 197 152 213 136 q 158 168 181 168 q 119 152 135 168 q 103 113 103 136 q 119 74 103 89 q 158 58 135 58 m 160 190 q 199 206 183 190 q 215 244 215 221 q 199 284 215 268 q 160 300 183 300 q 121 284 136 300 q 106 244 106 268 q 121 206 106 221 q 160 190 136 190 m 269 281 q 308 297 293 281 q 324 336 324 313 q 308 374 324 358 q 269 390 293 390 q 230 374 246 390 q 214 336 214 358 q 230 297 214 313 q 269 281 246 281 m 394 281 q 433 297 417 281 q 449 336 449 313 q 433 374 449 358 q 394 390 417 390 q 355 374 371 390 q 339 336 339 358 q 355 297 339 313 q 394 281 371 281 m 506 65 q 545 81 529 65 q 561 119 561 96 q 545 159 561 143 q 506 175 529 175 q 467 159 483 175 q 451 119 451 143 q 467 81 451 96 q 506 65 483 65 m 506 197 q 545 213 529 197 q 561 253 561 229 q 545 291 561 275 q 506 307 529 307 q 467 291 483 307 q 451 253 451 275 q 467 213 451 229 q 506 197 483 197 m 511 333 q 550 349 535 333 q 565 389 565 365 q 550 428 565 413 q 511 443 535 443 q 472 428 488 443 q 456 389 456 413 q 472 349 456 365 q 511 333 488 333 m 511 469 q 550 485 535 469 q 565 525 565 501 q 550 564 565 549 q 511 579 535 579 q 472 564 488 579 q 456 525 456 549 q 472 485 456 501 q 511 469 488 469 z "},"b":{"ha":654,"x_min":35,"x_max":631,"o":"m 331 947 q 491 901 422 947 q 595 784 560 854 q 626 631 631 714 q 567 474 622 547 q 626 317 622 400 q 595 164 631 235 q 491 47 560 93 q 331 0 422 0 l 271 0 l 211 0 l 35 0 l 35 947 l 211 947 l 271 947 l 331 947 m 153 72 q 192 88 176 72 q 208 126 208 103 q 192 166 208 150 q 153 182 176 182 q 114 166 129 182 q 99 126 99 150 q 114 88 99 103 q 153 72 129 72 m 153 211 q 192 227 176 211 q 208 267 208 243 q 192 306 208 290 q 153 321 176 321 q 114 306 129 321 q 99 267 99 290 q 114 227 99 243 q 153 211 129 211 m 153 353 q 192 369 176 353 q 208 407 208 385 q 192 447 208 431 q 153 463 176 463 q 114 447 129 463 q 99 407 99 431 q 114 369 99 385 q 153 353 129 353 m 153 490 q 192 506 176 490 q 208 546 208 522 q 192 585 208 569 q 153 601 176 601 q 114 585 129 601 q 99 546 99 569 q 114 506 99 522 q 153 490 129 490 m 153 636 q 192 652 176 636 q 208 692 208 668 q 192 731 208 715 q 153 747 176 747 q 114 731 129 747 q 99 692 99 715 q 114 652 99 668 q 153 636 129 636 m 153 779 q 192 794 176 779 q 208 833 208 810 q 192 873 208 857 q 153 889 176 889 q 114 873 129 889 q 99 833 99 857 q 114 794 99 810 q 153 779 129 779 m 350 485 q 366 447 350 463 q 404 431 382 431 q 444 447 428 431 q 460 485 460 463 q 444 524 460 508 q 404 540 428 540 q 366 524 382 540 q 350 485 350 508 m 389 296 q 372 338 389 321 q 331 356 354 356 l 271 356 l 271 238 l 331 238 q 372 255 354 238 q 389 296 389 272 m 331 593 q 372 610 354 593 q 389 651 389 628 q 372 694 389 676 q 331 711 354 711 l 271 711 l 271 593 l 331 593 m 485 435 q 446 419 461 435 q 431 381 431 403 q 446 341 431 357 q 485 325 461 325 q 524 341 508 325 q 540 381 540 357 q 524 419 540 403 q 485 435 508 435 m 507 538 q 547 553 531 538 q 563 593 563 569 q 547 631 563 615 q 507 647 531 647 q 468 631 483 647 q 453 593 453 615 q 468 553 453 569 q 507 538 483 538 m 556 726 q 540 766 556 750 q 500 782 524 782 q 462 766 478 782 q 446 726 446 750 q 462 688 446 703 q 500 672 478 672 q 540 688 524 672 q 556 726 556 703 m 414 881 q 374 865 390 881 q 358 825 358 849 q 374 786 358 801 q 414 771 390 771 q 453 786 438 771 q 469 825 469 801 q 453 865 469 849 q 414 881 438 881 m 285 888 q 246 872 261 888 q 231 832 231 856 q 246 793 231 808 q 285 778 261 778 q 324 793 308 778 q 340 832 340 808 q 324 872 340 856 q 285 888 308 888 m 276 539 q 237 523 253 539 q 221 483 221 507 q 237 444 221 460 q 276 429 253 429 q 315 444 299 429 q 331 483 331 460 q 315 523 331 507 q 276 539 299 539 m 289 69 q 328 85 313 69 q 344 125 344 101 q 328 163 344 147 q 289 179 313 179 q 251 163 267 179 q 235 125 235 147 q 251 85 235 101 q 289 69 267 69 m 421 90 q 460 106 444 90 q 476 146 476 122 q 460 185 476 169 q 421 200 444 200 q 381 185 397 200 q 365 146 365 169 q 381 106 365 122 q 421 90 397 90 m 569 251 q 553 290 569 275 q 514 306 538 306 q 475 290 490 306 q 460 251 460 275 q 475 212 460 228 q 514 196 490 196 q 553 212 538 196 q 569 251 569 228 z "},"c":{"ha":654,"x_min":33,"x_max":625,"o":"m 621 297 l 625 297 q 592 160 625 222 q 504 59 558 99 q 381 6 450 19 q 242 14 313 -8 q 124 83 174 35 q 50 200 74 132 q 35 267 38 233 q 33 336 33 300 l 33 475 l 33 613 q 35 682 33 649 q 50 750 38 715 q 124 865 74 817 q 242 935 174 914 q 381 944 313 957 q 504 890 450 931 q 592 788 558 850 q 625 651 625 726 l 389 651 q 372 692 389 675 q 331 711 354 710 q 290 697 307 713 q 269 657 272 681 q 268 565 267 611 q 269 475 269 519 q 268 383 269 429 q 269 293 267 338 q 290 253 272 269 q 331 238 307 236 q 372 256 354 239 q 389 297 389 274 l 621 297 m 474 819 q 435 804 450 819 q 419 765 419 789 q 435 726 419 742 q 474 710 450 710 q 513 726 497 710 q 529 765 529 742 q 513 804 529 789 q 474 819 497 819 m 342 878 q 302 862 318 878 q 286 822 286 846 q 302 783 286 799 q 342 767 318 767 q 381 783 365 767 q 397 822 397 799 q 381 862 397 846 q 342 878 365 878 m 213 833 q 173 817 189 833 q 157 779 157 801 q 173 740 157 756 q 213 724 189 724 q 252 740 236 724 q 268 779 268 756 q 252 817 268 801 q 213 833 236 833 m 158 713 q 119 697 135 713 q 103 658 103 681 q 119 619 103 635 q 158 603 135 603 q 198 619 182 603 q 214 658 214 635 q 198 697 214 681 q 158 713 182 713 m 156 576 q 117 560 132 576 q 101 521 101 544 q 117 482 101 497 q 156 467 132 467 q 195 482 179 467 q 211 521 211 497 q 195 560 211 544 q 156 576 179 576 m 156 440 q 117 424 132 440 q 101 385 101 408 q 117 346 101 361 q 156 331 132 331 q 195 346 179 331 q 211 385 211 361 q 195 424 211 408 q 156 440 179 440 m 108 253 q 124 213 108 229 q 163 197 139 197 q 202 213 186 197 q 218 253 218 229 q 202 291 218 275 q 163 307 186 307 q 124 291 139 307 q 108 253 108 275 m 240 90 q 280 106 264 90 q 296 146 296 122 q 280 184 296 168 q 240 200 264 200 q 202 184 218 200 q 186 146 186 168 q 202 106 186 122 q 240 90 218 90 m 371 67 q 410 83 394 67 q 426 122 426 99 q 410 162 426 146 q 371 178 394 178 q 333 162 349 178 q 317 122 317 146 q 333 83 317 99 q 371 67 349 67 m 482 149 q 522 165 506 149 q 538 204 538 181 q 522 243 538 228 q 482 258 506 258 q 442 243 458 258 q 426 204 426 228 q 442 165 426 181 q 482 149 458 149 z "},"d":{"ha":654,"x_min":35,"x_max":626,"o":"m 331 947 q 446 924 392 947 q 540 861 500 901 q 603 767 581 821 q 626 651 626 713 l 626 296 q 603 181 626 235 q 540 88 581 128 q 446 24 500 47 q 331 0 392 0 l 271 0 l 213 0 l 35 0 l 35 947 l 213 947 l 271 947 l 331 947 m 553 668 q 537 708 553 692 q 497 724 521 724 q 458 708 474 724 q 443 668 443 692 q 458 629 443 644 q 497 614 474 614 q 537 629 521 614 q 553 668 553 644 m 431 840 q 392 824 408 840 q 376 785 376 808 q 392 747 376 763 q 431 731 408 731 q 470 747 454 731 q 486 785 486 763 q 470 824 486 808 q 431 840 454 840 m 300 882 q 262 866 278 882 q 246 826 246 850 q 262 788 246 803 q 300 772 278 772 q 340 788 324 772 q 356 826 356 803 q 340 866 356 850 q 300 882 324 882 m 160 64 q 198 80 182 64 q 214 119 214 96 q 198 159 214 143 q 160 175 182 175 q 120 159 136 175 q 104 119 104 143 q 120 80 104 96 q 160 64 136 64 m 160 204 q 198 220 182 204 q 214 260 214 236 q 198 299 214 283 q 160 314 182 314 q 120 299 136 314 q 104 260 104 283 q 120 220 104 236 q 160 204 136 204 m 160 343 q 198 359 182 343 q 214 399 214 375 q 198 438 214 422 q 160 453 182 453 q 120 438 136 453 q 104 399 104 422 q 120 359 104 375 q 160 343 136 343 m 160 493 q 198 509 182 493 q 214 549 214 525 q 198 587 214 571 q 160 603 182 603 q 120 587 136 603 q 104 549 104 571 q 120 509 104 525 q 160 493 136 493 m 160 629 q 198 645 182 629 q 214 685 214 661 q 198 724 214 708 q 160 739 182 739 q 120 724 136 739 q 104 685 104 708 q 120 645 104 661 q 160 629 136 629 m 160 772 q 198 788 182 772 q 214 826 214 803 q 198 866 214 850 q 160 882 182 882 q 120 866 136 882 q 104 826 104 850 q 120 788 104 803 q 160 772 136 772 m 300 64 q 339 80 324 64 q 354 119 354 96 q 339 159 354 143 q 300 175 324 175 q 260 159 276 175 q 244 119 244 143 q 260 80 244 96 q 300 64 276 64 m 346 239 q 377 260 365 244 q 389 294 389 275 q 390 369 392 332 q 389 444 389 407 l 389 594 q 391 630 389 613 q 388 665 393 647 l 388 667 l 388 669 q 386 672 386 671 q 385 675 386 674 q 383 676 385 676 q 382 679 383 679 l 382 681 q 376 688 379 686 q 375 690 376 689 q 374 692 375 690 l 372 693 q 371 694 372 694 q 369 696 371 694 l 368 697 l 367 699 q 365 699 365 699 q 364 700 365 700 l 363 701 q 361 703 363 701 l 360 703 q 358 704 358 704 q 356 706 357 704 l 353 706 q 347 708 350 708 q 309 713 328 714 q 271 711 290 711 l 271 592 l 271 238 q 308 235 290 238 q 346 239 326 233 m 431 94 q 469 110 454 94 q 485 150 485 126 q 469 188 485 172 q 431 204 454 204 q 391 188 407 204 q 375 150 375 172 q 391 110 375 126 q 431 94 407 94 m 497 215 q 537 231 521 215 q 553 271 553 247 q 537 310 553 294 q 497 326 521 326 q 458 310 474 326 q 443 271 443 294 q 458 231 443 247 q 497 215 474 215 m 507 350 q 547 366 531 350 q 563 406 563 382 q 547 444 563 429 q 507 460 531 460 q 467 444 483 460 q 451 406 451 429 q 467 366 451 382 q 507 350 483 350 m 507 485 q 547 501 531 485 q 563 540 563 517 q 547 580 563 564 q 507 596 531 596 q 467 580 483 596 q 451 540 451 564 q 467 501 451 517 q 507 485 483 485 z "},"e":{"ha":654,"x_min":29,"x_max":621,"o":"m 265 711 l 265 593 l 621 593 l 621 356 l 265 356 l 265 238 l 621 238 l 621 0 l 265 0 l 207 0 l 29 0 l 29 949 l 207 949 l 265 949 l 621 949 l 621 711 l 265 711 m 529 892 q 491 876 507 892 q 475 838 475 861 q 491 798 475 814 q 529 782 507 782 q 569 798 553 782 q 585 838 585 814 q 569 876 585 861 q 529 892 553 892 m 397 893 q 358 878 374 893 q 343 839 343 863 q 358 799 343 815 q 397 783 374 783 q 437 799 421 783 q 453 839 453 815 q 437 878 453 863 q 397 893 421 893 m 135 75 q 174 91 158 75 q 190 131 190 107 q 174 169 190 154 q 135 185 158 185 q 95 169 111 185 q 79 131 79 154 q 95 91 79 107 q 135 75 111 75 m 135 215 q 174 231 158 215 q 190 269 190 246 q 174 309 190 293 q 135 325 158 325 q 95 309 111 325 q 79 269 79 293 q 95 231 79 246 q 135 215 111 215 m 135 354 q 174 369 158 354 q 190 408 190 385 q 174 448 190 432 q 135 464 158 464 q 95 448 111 464 q 79 408 79 432 q 95 369 79 385 q 135 354 111 354 m 135 499 q 174 515 158 499 q 190 554 190 531 q 174 593 190 578 q 135 608 158 608 q 95 593 111 608 q 79 554 79 578 q 95 515 79 531 q 135 499 111 499 m 135 640 q 174 656 158 640 q 190 694 190 672 q 174 734 190 718 q 135 750 158 750 q 95 734 111 750 q 79 694 79 718 q 95 656 79 672 q 135 640 111 640 m 135 782 q 174 798 158 782 q 190 838 190 814 q 174 876 190 861 q 135 892 158 892 q 95 876 111 892 q 79 838 79 861 q 95 798 79 814 q 135 782 111 782 m 528 181 q 488 165 504 181 q 472 125 472 149 q 488 86 472 101 q 528 71 504 71 q 567 86 551 71 q 582 125 582 101 q 567 165 582 149 q 528 181 551 181 m 396 182 q 356 166 372 182 q 340 126 340 150 q 356 88 340 103 q 396 72 372 72 q 434 88 418 72 q 450 126 450 103 q 434 166 450 150 q 396 182 418 182 m 317 128 q 301 167 317 151 q 263 183 286 183 q 223 167 239 183 q 207 128 207 151 q 223 89 207 104 q 263 74 239 74 q 301 89 286 74 q 317 128 317 104 m 535 536 q 495 521 511 536 q 479 482 479 506 q 495 442 479 458 q 535 426 511 426 q 574 442 558 426 q 589 482 589 458 q 574 521 589 506 q 535 536 558 536 m 397 535 q 358 519 374 535 q 343 479 343 503 q 358 440 343 456 q 397 424 374 424 q 437 440 421 424 q 453 479 453 456 q 437 519 453 503 q 397 535 421 535 m 315 478 q 300 517 315 501 q 261 532 285 532 q 222 517 238 532 q 206 478 206 501 q 222 438 206 454 q 261 422 238 422 q 300 438 285 422 q 315 478 315 454 m 264 785 q 303 801 288 785 q 319 840 319 817 q 303 879 319 864 q 264 894 288 894 q 226 879 242 894 q 210 840 210 864 q 226 801 210 817 q 264 785 242 785 z "},"f":{"ha":654,"x_min":33,"x_max":626,"o":"m 271 711 l 271 592 l 626 592 l 626 356 l 271 356 l 271 238 l 271 0 l 211 0 l 33 0 l 33 947 l 211 947 l 271 947 l 626 947 l 626 711 l 271 711 m 149 65 q 188 81 172 65 q 204 121 204 97 q 188 160 204 144 q 149 175 172 175 q 109 160 125 175 q 93 121 93 144 q 109 81 93 97 q 149 65 125 65 m 149 206 q 188 222 172 206 q 204 260 204 238 q 188 299 204 283 q 149 315 172 315 q 109 299 125 315 q 93 260 93 283 q 109 222 93 238 q 149 206 125 206 m 149 344 q 188 360 172 344 q 204 399 204 375 q 188 438 204 422 q 149 454 172 454 q 109 438 125 454 q 93 399 93 422 q 109 360 93 375 q 149 344 125 344 m 149 489 q 188 505 172 489 q 204 544 204 521 q 188 583 204 568 q 149 599 172 599 q 109 583 125 599 q 93 544 93 568 q 109 505 93 521 q 149 489 125 489 m 149 631 q 188 647 172 631 q 204 686 204 663 q 188 724 204 708 q 149 740 172 740 q 109 724 125 740 q 93 686 93 708 q 109 647 93 663 q 149 631 125 631 m 149 772 q 188 788 172 772 q 204 828 204 804 q 188 867 204 851 q 149 882 172 882 q 109 867 125 882 q 93 828 93 851 q 109 788 93 804 q 149 772 125 772 m 542 883 q 502 868 518 883 q 486 829 486 853 q 502 790 486 806 q 542 774 518 774 q 581 790 565 774 q 596 829 596 806 q 581 868 596 853 q 542 883 565 883 m 411 883 q 372 868 388 883 q 356 829 356 853 q 372 790 356 806 q 411 774 388 774 q 451 790 435 774 q 467 829 467 806 q 451 868 467 853 q 411 883 435 883 m 542 535 q 502 519 518 535 q 486 481 486 503 q 502 441 486 457 q 542 425 518 425 q 581 441 565 425 q 596 481 596 457 q 581 519 596 503 q 542 535 565 535 m 404 532 q 365 517 381 532 q 350 478 350 501 q 365 438 350 454 q 404 422 381 422 q 444 438 428 422 q 460 478 460 454 q 444 517 460 501 q 404 532 428 532 m 322 476 q 307 515 322 500 q 268 531 292 531 q 228 515 244 531 q 213 476 213 500 q 228 437 213 453 q 268 421 244 421 q 307 437 292 421 q 322 476 322 453 m 224 831 q 240 791 224 807 q 278 775 256 775 q 317 791 301 775 q 333 831 333 807 q 317 869 333 854 q 278 885 301 885 q 240 869 256 885 q 224 831 224 854 z "},"g":{"ha":654,"x_min":28,"x_max":621,"o":"m 285 593 l 621 593 l 621 297 q 588 160 621 222 q 500 59 554 99 q 377 6 446 19 q 238 15 308 -7 q 119 85 169 36 q 44 200 68 133 q 31 268 33 235 q 28 336 28 301 l 28 475 l 28 614 q 31 683 28 649 q 44 750 33 717 q 119 866 68 817 q 238 936 169 915 q 377 944 308 958 q 500 891 446 931 q 588 790 554 851 q 621 653 621 728 l 383 653 q 367 694 383 676 q 326 713 350 711 q 285 697 303 714 q 265 657 268 681 q 264 566 263 611 q 265 475 265 521 q 264 385 265 431 q 265 293 263 339 q 285 253 268 269 q 326 239 303 238 q 367 256 350 239 q 383 297 383 274 l 383 357 l 285 357 l 285 593 m 469 825 q 431 809 446 825 q 415 769 415 793 q 431 731 415 746 q 469 715 446 715 q 509 731 493 715 q 525 769 525 746 q 509 809 525 793 q 469 825 493 825 m 347 888 q 308 872 324 888 q 292 832 292 856 q 308 792 292 808 q 347 776 324 776 q 385 792 369 776 q 401 832 401 808 q 385 872 401 856 q 347 888 369 888 m 222 847 q 183 832 199 847 q 167 793 167 817 q 183 753 167 769 q 222 738 199 738 q 261 753 246 738 q 276 793 276 769 q 261 832 276 817 q 222 847 246 847 m 158 732 q 119 716 135 732 q 104 676 104 700 q 119 638 104 653 q 158 622 135 622 q 198 638 182 622 q 214 676 214 653 q 198 716 214 700 q 158 732 182 732 m 147 593 q 108 577 124 593 q 92 538 92 561 q 108 499 92 514 q 147 483 124 483 q 187 499 171 483 q 203 538 203 514 q 187 577 203 561 q 147 593 171 593 m 147 457 q 108 441 124 457 q 92 401 92 425 q 108 363 92 378 q 147 347 124 347 q 187 363 171 347 q 203 401 203 378 q 187 441 203 425 q 147 457 171 457 m 99 269 q 115 230 99 246 q 154 214 131 214 q 193 230 178 214 q 208 269 208 246 q 193 308 208 292 q 154 324 178 324 q 115 308 131 324 q 99 269 99 292 m 229 104 q 269 120 253 104 q 285 160 285 136 q 269 199 285 183 q 229 214 253 214 q 190 199 206 214 q 175 160 175 183 q 190 120 175 136 q 229 104 206 104 m 367 76 q 406 92 390 76 q 422 132 422 108 q 406 172 422 156 q 367 188 390 188 q 328 172 343 188 q 313 132 313 156 q 328 92 313 108 q 367 76 343 76 m 510 283 q 549 299 533 283 q 565 338 565 315 q 549 377 565 361 q 510 393 533 393 q 470 377 486 393 q 454 338 454 361 q 470 299 454 315 q 510 283 486 283 m 503 532 q 463 517 479 532 q 447 478 447 501 q 463 438 447 454 q 503 422 479 422 q 542 438 526 422 q 558 478 558 454 q 542 517 558 501 q 503 532 526 532 m 481 261 q 441 246 457 261 q 425 207 425 231 q 441 167 425 183 q 481 151 457 151 q 519 167 503 151 q 535 207 535 183 q 519 246 535 231 q 481 261 503 261 m 372 529 q 333 513 349 529 q 317 474 317 497 q 333 435 317 450 q 372 419 349 419 q 411 435 396 419 q 426 474 426 450 q 411 513 426 497 q 372 529 396 529 z "},"h":{"ha":654,"x_min":32,"x_max":624,"o":"m 624 949 l 624 593 l 624 356 l 624 0 l 388 0 l 388 356 l 268 356 l 268 0 l 32 0 l 32 356 l 32 593 l 32 949 l 268 949 l 268 593 l 388 593 l 388 949 l 624 949 m 142 72 q 181 88 165 72 q 196 126 196 104 q 181 166 196 150 q 142 182 165 182 q 102 166 118 182 q 86 126 86 150 q 102 88 86 104 q 142 72 118 72 m 142 211 q 181 227 165 211 q 196 267 196 243 q 181 306 196 290 q 142 322 165 322 q 102 306 118 322 q 86 267 86 290 q 102 227 86 243 q 142 211 118 211 m 142 350 q 181 366 165 350 q 196 406 196 382 q 181 445 196 429 q 142 461 165 461 q 102 445 118 461 q 86 406 86 429 q 102 366 86 382 q 142 350 118 350 m 142 500 q 181 516 165 500 q 196 556 196 532 q 181 594 196 579 q 142 610 165 610 q 102 594 118 610 q 86 556 86 579 q 102 516 86 532 q 142 500 118 500 m 142 638 q 181 653 165 638 q 196 692 196 668 q 181 731 196 715 q 142 747 165 747 q 102 731 118 747 q 86 692 86 715 q 102 653 86 668 q 142 638 118 638 m 142 779 q 181 795 165 779 q 196 833 196 811 q 181 873 196 857 q 142 889 165 889 q 102 873 118 889 q 86 833 86 857 q 102 795 86 811 q 142 779 118 779 m 257 425 q 297 441 281 425 q 313 481 313 457 q 297 520 313 504 q 257 536 281 536 q 217 520 233 536 q 201 481 201 504 q 217 441 201 457 q 257 425 233 425 m 386 425 q 426 441 410 425 q 442 481 442 457 q 426 520 442 504 q 386 536 410 536 q 348 520 364 536 q 332 481 332 504 q 348 441 332 457 q 386 425 364 425 m 501 83 q 541 99 525 83 q 557 139 557 115 q 541 177 557 161 q 501 193 525 193 q 462 177 478 193 q 446 139 446 161 q 462 99 446 115 q 501 83 478 83 m 501 224 q 541 239 525 224 q 557 278 557 254 q 541 317 557 301 q 501 333 525 333 q 462 317 478 333 q 446 278 446 301 q 462 239 446 254 q 501 224 478 224 m 501 363 q 541 378 525 363 q 557 417 557 393 q 541 456 557 440 q 501 472 525 472 q 462 456 478 472 q 446 417 446 440 q 462 378 446 393 q 501 363 478 363 m 501 511 q 541 527 525 511 q 557 567 557 543 q 541 606 557 590 q 501 622 525 622 q 462 606 478 622 q 446 567 446 590 q 462 527 446 543 q 501 511 478 511 m 501 649 q 541 664 525 649 q 557 703 557 679 q 541 742 557 726 q 501 758 525 758 q 462 742 478 758 q 446 703 446 726 q 462 664 446 679 q 501 649 478 649 m 501 790 q 541 806 525 790 q 557 846 557 822 q 541 885 557 869 q 501 900 525 900 q 462 885 478 900 q 446 846 446 869 q 462 806 446 822 q 501 790 478 790 z "},"i":{"ha":329,"x_min":47,"x_max":285,"o":"m 285 947 l 285 0 l 47 0 l 47 947 l 285 947 m 167 65 q 206 81 190 65 q 221 119 221 96 q 206 159 221 143 q 167 175 190 175 q 127 159 143 175 q 111 119 111 143 q 127 81 111 96 q 167 65 143 65 m 167 204 q 206 220 190 204 q 221 260 221 236 q 206 299 221 283 q 167 315 190 315 q 127 299 143 315 q 111 260 111 283 q 127 220 111 236 q 167 204 143 204 m 167 343 q 206 359 190 343 q 221 399 221 375 q 206 438 221 422 q 167 454 190 454 q 127 438 143 454 q 111 399 111 422 q 127 359 111 375 q 167 343 143 343 m 167 493 q 206 509 190 493 q 221 549 221 525 q 206 588 221 572 q 167 603 190 603 q 127 588 143 603 q 111 549 111 572 q 127 509 111 525 q 167 493 143 493 m 167 629 q 206 645 190 629 q 221 685 221 661 q 206 724 221 708 q 167 740 190 740 q 127 724 143 740 q 111 685 111 708 q 127 645 111 661 q 167 629 143 629 m 167 772 q 206 788 190 772 q 221 826 221 803 q 206 866 221 850 q 167 882 190 882 q 127 866 143 882 q 111 826 111 850 q 127 788 111 803 q 167 772 143 772 z "},"j":{"ha":654,"x_min":22,"x_max":615,"o":"m 615 949 l 615 651 l 615 474 l 615 335 q 613 267 615 300 q 599 199 610 233 q 524 83 575 132 q 406 13 474 33 q 266 4 335 -10 q 143 58 197 18 q 56 159 89 97 q 22 296 22 221 l 26 296 l 260 296 q 276 255 260 272 q 317 238 293 238 q 358 252 340 236 q 378 292 375 268 q 379 383 381 338 q 378 474 378 429 l 378 656 l 378 949 l 615 949 m 181 135 q 219 151 203 135 q 235 190 235 167 q 219 230 235 214 q 181 246 203 246 q 141 230 157 246 q 125 190 125 214 q 141 151 125 167 q 181 135 157 135 m 303 61 q 342 77 326 61 q 358 117 358 93 q 342 156 358 140 q 303 172 326 172 q 264 156 279 172 q 249 117 249 140 q 264 77 249 93 q 303 61 279 61 m 496 896 q 456 880 472 896 q 440 842 440 864 q 456 802 440 818 q 496 786 472 786 q 535 802 519 786 q 551 842 551 818 q 535 880 551 864 q 496 896 519 896 m 496 757 q 456 741 472 757 q 440 701 440 725 q 456 663 440 679 q 496 647 472 647 q 535 663 519 647 q 551 701 551 679 q 535 741 551 725 q 496 757 519 757 m 442 99 q 481 115 465 99 q 497 153 497 131 q 481 192 497 176 q 442 208 465 208 q 402 192 418 208 q 386 153 386 176 q 402 115 386 131 q 442 99 418 99 m 496 224 q 535 240 519 224 q 551 279 551 256 q 535 318 551 303 q 496 333 519 333 q 456 318 472 333 q 440 279 440 303 q 456 240 440 256 q 496 224 472 224 m 499 368 q 537 383 521 368 q 553 422 553 399 q 537 462 553 446 q 499 478 521 478 q 459 462 475 478 q 443 422 443 446 q 459 383 443 399 q 499 368 475 368 m 499 503 q 537 519 521 503 q 553 558 553 535 q 537 598 553 582 q 499 614 521 614 q 459 598 475 614 q 443 558 443 582 q 459 519 443 535 q 499 503 475 503 z "},"k":{"ha":654,"x_min":38,"x_max":631,"o":"m 394 474 l 631 0 l 365 0 l 275 183 l 275 0 l 38 0 l 38 238 l 38 949 l 215 949 l 275 949 l 275 765 l 365 949 l 631 949 l 394 474 m 447 904 q 408 888 424 904 q 393 849 393 872 q 408 809 393 825 q 447 793 424 793 q 487 809 471 793 q 503 849 503 825 q 487 888 503 872 q 447 904 471 904 m 381 782 q 342 766 357 782 q 326 726 326 750 q 342 688 326 703 q 381 672 357 672 q 420 688 404 672 q 436 726 436 703 q 420 766 436 750 q 381 782 404 782 m 313 667 q 273 651 289 667 q 257 611 257 635 q 273 572 257 588 q 313 557 289 557 q 351 572 336 557 q 367 611 367 588 q 351 651 367 635 q 313 667 336 667 m 154 61 q 194 77 178 61 q 210 117 210 93 q 194 156 210 140 q 154 171 178 171 q 115 156 131 171 q 99 117 99 140 q 115 77 99 93 q 154 61 131 61 m 157 199 q 195 215 179 199 q 211 254 211 231 q 195 293 211 278 q 157 308 179 308 q 117 293 133 308 q 101 254 101 278 q 117 215 101 231 q 157 199 133 199 m 157 344 q 195 360 179 344 q 211 400 211 376 q 195 439 211 424 q 157 454 179 454 q 117 439 133 454 q 101 400 101 424 q 117 360 101 376 q 157 344 133 344 m 158 499 q 198 515 182 499 q 214 554 214 531 q 198 594 214 578 q 158 610 182 610 q 119 594 135 610 q 104 554 104 578 q 119 515 104 531 q 158 499 135 499 m 158 640 q 198 656 182 640 q 214 696 214 672 q 198 735 214 719 q 158 750 182 750 q 119 735 135 750 q 104 696 104 719 q 119 656 104 672 q 158 640 135 640 m 164 788 q 202 803 186 788 q 218 842 218 818 q 202 881 218 865 q 164 897 186 897 q 124 881 140 897 q 108 842 108 865 q 124 803 108 818 q 164 788 140 788 m 224 474 q 239 434 224 450 q 278 418 254 418 q 317 434 301 418 q 333 474 333 450 q 317 512 333 496 q 278 528 301 528 q 239 512 254 528 q 224 474 224 496 m 267 342 q 283 302 267 318 q 321 286 299 286 q 360 302 344 286 q 376 342 376 318 q 360 381 376 365 q 321 396 344 396 q 283 381 299 396 q 267 342 267 365 m 510 106 q 494 145 510 129 q 454 161 478 161 q 415 145 431 161 q 399 106 399 129 q 415 67 399 82 q 454 51 431 51 q 494 67 478 51 q 510 106 510 82 m 440 222 q 424 261 440 246 q 386 276 408 276 q 347 261 363 276 q 331 222 331 246 q 347 183 331 199 q 386 167 363 167 q 424 183 408 167 q 440 222 440 199 z "},"l":{"ha":571,"x_min":40,"x_max":536,"o":"m 536 238 l 536 0 l 278 0 l 40 0 l 40 238 l 40 947 l 278 947 l 278 238 l 536 238 m 161 75 q 201 90 185 75 q 217 129 217 106 q 201 169 217 153 q 161 185 185 185 q 122 169 138 185 q 107 129 107 153 q 122 90 107 106 q 161 75 138 75 m 161 214 q 201 230 185 214 q 217 269 217 246 q 201 309 217 293 q 161 325 185 325 q 122 309 138 325 q 107 269 107 293 q 122 230 107 246 q 161 214 138 214 m 161 353 q 201 369 185 353 q 217 408 217 385 q 201 447 217 432 q 161 463 185 463 q 122 447 138 463 q 107 408 107 432 q 122 369 107 385 q 161 353 138 353 m 161 503 q 201 519 185 503 q 217 558 217 535 q 201 597 217 582 q 161 613 185 613 q 122 597 138 613 q 107 558 107 582 q 122 519 107 535 q 161 503 138 503 m 161 639 q 201 655 185 639 q 217 694 217 671 q 201 734 217 718 q 161 750 185 750 q 122 734 138 750 q 107 694 107 718 q 122 655 107 671 q 161 639 138 639 m 161 782 q 201 797 185 782 q 217 836 217 813 q 201 876 217 860 q 161 892 185 892 q 122 876 138 892 q 107 836 107 860 q 122 797 107 813 q 161 782 138 782 m 299 69 q 338 85 322 69 q 354 124 354 100 q 338 163 354 147 q 299 179 322 179 q 260 163 275 179 q 244 124 244 147 q 260 85 244 100 q 299 69 275 69 m 421 69 q 460 85 444 69 q 476 124 476 100 q 460 163 476 147 q 421 179 444 179 q 382 163 397 179 q 367 124 367 147 q 382 85 367 100 q 421 69 397 69 z "},"m":{"ha":1033,"x_min":46,"x_max":996,"o":"m 994 654 q 995 327 996 490 q 994 0 994 164 l 757 0 l 757 296 l 757 356 l 757 521 l 757 632 q 746 688 757 664 q 699 711 735 711 q 651 688 663 711 q 639 633 639 664 l 639 521 l 639 332 l 639 296 l 639 0 l 401 0 l 401 296 l 401 356 l 401 521 l 401 632 q 390 688 401 664 q 343 711 379 711 q 295 688 307 711 q 283 633 283 664 l 283 521 l 283 332 l 283 296 l 283 0 l 47 0 q 47 327 47 164 q 47 654 46 490 q 94 814 47 746 q 212 917 142 882 q 365 948 282 953 q 521 889 447 943 q 676 948 593 943 q 830 917 760 953 q 947 814 900 882 q 994 654 994 746 m 158 443 q 119 427 135 443 q 104 388 104 411 q 119 349 104 365 q 158 333 135 333 q 198 349 182 333 q 214 388 214 365 q 198 427 214 411 q 158 443 182 443 m 104 524 q 119 485 104 500 q 158 469 135 469 q 198 485 182 469 q 214 524 214 500 q 198 563 214 547 q 158 579 182 579 q 119 563 135 579 q 104 524 104 547 m 161 57 q 200 73 185 57 q 215 113 215 89 q 200 152 215 136 q 161 168 185 168 q 122 152 138 168 q 106 113 106 136 q 122 73 106 89 q 161 57 138 57 m 161 197 q 200 213 185 197 q 215 251 215 228 q 200 291 215 275 q 161 307 185 307 q 122 291 138 307 q 106 251 106 275 q 122 213 106 228 q 161 197 138 197 m 161 606 q 200 622 185 606 q 215 661 215 638 q 200 700 215 685 q 161 715 185 715 q 122 700 138 715 q 106 661 106 685 q 122 622 106 638 q 161 606 138 606 m 215 726 q 254 742 239 726 q 269 782 269 758 q 254 821 269 806 q 215 836 239 836 q 176 821 192 836 q 160 782 160 806 q 176 742 160 758 q 215 726 192 726 m 344 771 q 384 786 368 771 q 400 825 400 801 q 384 865 400 849 q 344 881 368 881 q 305 865 321 881 q 289 825 289 849 q 305 786 289 801 q 344 771 321 771 m 935 651 q 919 690 935 675 q 881 706 904 706 q 841 690 857 706 q 825 651 825 675 q 841 612 825 628 q 881 596 857 596 q 919 612 904 596 q 935 651 935 628 m 881 463 q 919 478 904 463 q 935 517 935 493 q 919 556 935 540 q 881 572 904 572 q 841 556 857 572 q 825 517 825 540 q 841 478 825 493 q 881 463 857 463 m 935 381 q 919 420 935 404 q 881 436 904 436 q 841 420 857 436 q 825 381 825 404 q 841 342 825 357 q 881 326 857 326 q 919 342 904 326 q 935 381 935 357 m 419 775 q 435 735 419 751 q 475 719 451 719 q 513 735 497 719 q 529 775 529 751 q 513 814 529 799 q 475 829 497 829 q 435 814 451 829 q 419 775 419 799 m 519 463 q 558 478 543 463 q 574 517 574 493 q 558 556 574 540 q 519 572 543 572 q 480 556 496 572 q 464 517 464 540 q 480 478 464 493 q 519 463 496 463 m 574 381 q 558 420 574 404 q 519 436 543 436 q 480 420 496 436 q 464 381 464 404 q 480 342 464 357 q 519 326 496 326 q 558 342 543 326 q 574 381 574 357 m 519 304 q 480 288 496 304 q 464 249 464 272 q 480 210 464 225 q 519 194 496 194 q 558 210 543 194 q 574 249 574 225 q 558 288 574 272 q 519 304 543 304 m 521 50 q 560 66 544 50 q 576 106 576 82 q 560 144 576 129 q 521 160 544 160 q 483 144 499 160 q 467 106 467 129 q 483 66 467 82 q 521 50 499 50 m 521 599 q 560 615 544 599 q 576 654 576 631 q 560 692 576 676 q 521 708 544 708 q 483 692 499 708 q 467 654 467 676 q 483 615 467 631 q 521 599 499 599 m 604 739 q 644 755 628 739 q 660 794 660 771 q 644 833 660 818 q 604 849 628 849 q 565 833 581 849 q 550 794 550 818 q 565 755 550 771 q 604 739 581 739 m 729 778 q 769 794 753 778 q 785 833 785 810 q 769 872 785 857 q 729 888 753 888 q 690 872 706 888 q 675 833 675 857 q 690 794 675 810 q 729 778 706 778 m 793 775 q 809 737 793 753 q 849 721 825 721 q 887 737 871 721 q 903 775 903 753 q 887 815 903 799 q 849 831 871 831 q 809 815 825 831 q 793 775 793 799 m 881 301 q 841 286 857 301 q 825 247 825 271 q 841 208 825 224 q 881 192 857 192 q 919 208 904 192 q 935 247 935 224 q 919 286 935 271 q 881 301 904 301 m 882 50 q 922 66 906 50 q 938 106 938 82 q 922 144 938 129 q 882 160 906 160 q 844 144 860 160 q 828 106 828 129 q 844 66 828 82 q 882 50 860 50 z "},"n":{"ha":654,"x_min":35,"x_max":626,"o":"m 571 825 q 606 761 594 793 q 622 696 618 729 q 626 628 626 663 q 626 558 626 593 l 626 0 l 390 0 l 390 296 l 390 356 l 390 521 l 390 632 q 378 688 390 664 q 331 711 367 711 q 283 688 294 711 q 272 633 272 664 l 272 521 l 272 332 l 272 296 l 272 0 l 35 0 l 35 558 q 35 628 35 593 q 40 696 35 663 q 56 762 44 729 q 92 826 68 794 q 197 916 133 885 q 331 947 260 947 q 466 915 403 947 q 571 825 529 883 m 150 450 q 110 434 126 450 q 94 396 94 418 q 110 356 94 372 q 150 340 126 340 q 188 356 172 340 q 204 396 204 372 q 188 434 204 418 q 150 450 172 450 m 94 532 q 110 492 94 508 q 150 476 126 476 q 188 492 172 476 q 204 532 204 508 q 188 570 204 554 q 150 586 172 586 q 110 570 126 586 q 94 532 94 554 m 151 65 q 191 81 175 65 q 207 119 207 96 q 191 159 207 143 q 151 175 175 175 q 113 159 128 175 q 97 119 97 143 q 113 81 97 96 q 151 65 128 65 m 151 204 q 191 219 175 204 q 207 258 207 235 q 191 298 207 282 q 151 314 175 314 q 113 298 128 314 q 97 258 97 282 q 113 219 97 235 q 151 204 128 204 m 151 613 q 191 628 175 613 q 207 668 207 644 q 191 707 207 692 q 151 722 175 722 q 113 707 128 722 q 97 668 97 692 q 113 628 97 644 q 151 613 128 613 m 206 733 q 245 749 229 733 q 261 789 261 765 q 245 828 261 813 q 206 843 229 843 q 167 828 182 843 q 151 789 151 813 q 167 749 151 765 q 206 733 182 733 m 335 778 q 374 793 358 778 q 390 832 390 808 q 374 872 390 856 q 335 888 358 888 q 296 872 311 888 q 281 832 281 856 q 296 793 281 808 q 335 778 311 778 m 410 782 q 426 742 410 758 q 465 726 442 726 q 505 742 489 726 q 521 782 521 758 q 505 822 521 806 q 465 838 489 838 q 426 822 442 838 q 410 782 410 806 m 510 469 q 549 485 533 469 q 565 524 565 500 q 549 563 565 547 q 510 579 533 579 q 471 563 486 579 q 456 524 456 547 q 471 485 456 500 q 510 469 486 469 m 565 388 q 549 427 565 411 q 510 443 533 443 q 471 427 486 443 q 456 388 456 411 q 471 349 456 364 q 510 333 486 333 q 549 349 533 333 q 565 388 565 364 m 510 311 q 471 295 486 311 q 456 256 456 279 q 471 217 456 233 q 510 201 486 201 q 549 217 533 201 q 565 256 565 233 q 549 295 565 279 q 510 311 533 311 m 513 57 q 551 73 536 57 q 567 113 567 89 q 551 152 567 136 q 513 168 536 168 q 473 152 489 168 q 457 113 457 136 q 473 73 457 89 q 513 57 489 57 m 513 606 q 551 622 536 606 q 567 661 567 638 q 551 700 567 685 q 513 715 536 715 q 473 700 489 715 q 457 661 457 685 q 473 622 457 638 q 513 606 489 606 z "},"o":{"ha":640,"x_min":32,"x_max":624,"o":"m 590 789 q 617 713 610 751 q 624 635 624 675 l 624 474 l 624 313 q 617 233 624 271 q 590 158 610 196 q 481 42 551 85 q 328 0 411 0 q 175 42 244 0 q 67 157 106 85 q 40 233 47 196 q 32 313 32 271 l 32 474 l 32 635 q 40 714 32 676 q 67 789 47 751 q 175 905 106 863 q 328 947 244 947 q 481 905 411 947 q 590 789 551 863 m 331 892 q 292 876 308 892 q 276 836 276 860 q 292 797 276 813 q 331 782 308 782 q 370 797 354 782 q 386 836 386 813 q 370 876 386 860 q 331 892 354 892 m 207 854 q 167 839 183 854 q 151 800 151 824 q 167 760 151 776 q 207 744 183 744 q 245 760 229 744 q 261 800 261 776 q 245 839 261 824 q 207 854 229 854 m 150 738 q 110 722 126 738 q 94 683 94 707 q 110 644 94 660 q 150 628 126 628 q 190 644 174 628 q 206 683 206 660 q 190 722 206 707 q 150 738 174 738 m 150 604 q 110 588 126 604 q 94 549 94 572 q 110 510 94 525 q 150 494 126 494 q 190 510 174 494 q 206 549 206 525 q 190 588 206 572 q 150 604 174 604 m 150 458 q 110 443 126 458 q 94 404 94 428 q 110 365 94 381 q 150 349 126 349 q 190 365 174 349 q 206 404 206 381 q 190 443 206 428 q 150 458 174 458 m 93 269 q 109 231 93 246 q 147 215 125 215 q 187 231 171 215 q 203 269 203 246 q 187 309 203 293 q 147 325 171 325 q 109 309 125 325 q 93 269 93 293 m 210 100 q 249 115 233 100 q 264 154 264 131 q 249 194 264 178 q 210 210 233 210 q 170 194 186 210 q 154 154 154 178 q 170 115 154 131 q 210 100 186 100 m 328 63 q 367 78 351 63 q 383 118 383 94 q 367 157 383 142 q 328 172 351 172 q 289 157 304 172 q 274 118 274 142 q 289 78 274 94 q 328 63 304 63 m 367 251 q 385 280 382 265 q 388 314 388 294 l 388 381 l 388 651 q 378 685 388 671 q 353 706 368 699 q 320 710 338 713 q 289 696 303 708 q 272 667 274 682 q 269 633 269 651 l 269 567 l 269 296 q 279 263 269 276 q 303 242 289 249 q 335 238 318 236 q 367 251 353 239 m 450 854 q 410 839 426 854 q 394 800 394 824 q 410 760 394 776 q 450 744 426 744 q 489 760 474 744 q 504 800 504 776 q 489 839 504 824 q 450 854 474 854 m 453 100 q 492 115 476 100 q 508 154 508 131 q 492 194 508 178 q 453 210 476 210 q 413 194 429 210 q 397 154 397 178 q 413 115 397 131 q 453 100 429 100 m 499 217 q 538 233 522 217 q 554 272 554 249 q 538 312 554 296 q 499 328 522 328 q 459 312 475 328 q 443 272 443 296 q 459 233 443 249 q 499 217 475 217 m 499 356 q 538 372 522 356 q 554 411 554 388 q 538 451 554 435 q 499 467 522 467 q 459 451 475 467 q 443 411 443 435 q 459 372 443 388 q 499 356 475 356 m 499 501 q 538 517 522 501 q 554 556 554 533 q 538 595 554 579 q 499 611 522 611 q 459 595 475 611 q 443 556 443 579 q 459 517 443 533 q 499 501 475 501 m 499 633 q 538 649 522 633 q 554 689 554 665 q 538 727 554 711 q 499 743 522 743 q 459 727 475 743 q 443 689 443 711 q 459 649 443 665 q 499 633 475 633 z "},"p":{"ha":654,"x_min":35,"x_max":626,"o":"m 331 947 q 446 924 392 947 q 540 860 500 900 q 603 765 581 819 q 626 650 626 711 q 603 535 626 589 q 539 442 579 482 q 445 378 499 401 q 331 356 392 356 l 328 356 l 271 356 l 271 0 l 35 0 l 35 947 l 271 947 l 331 947 m 557 719 q 542 759 557 743 q 503 775 526 775 q 463 759 479 775 q 447 719 447 743 q 463 680 447 696 q 503 664 479 664 q 542 680 526 664 q 557 719 557 696 m 417 874 q 377 858 393 874 q 361 818 361 842 q 377 778 361 794 q 417 763 393 763 q 455 778 439 763 q 471 818 471 794 q 455 858 471 842 q 417 874 439 874 m 389 651 q 372 694 389 676 q 331 711 354 711 l 271 711 l 271 592 l 331 592 q 372 609 354 592 q 389 651 389 626 m 286 881 q 248 865 264 881 q 232 825 232 849 q 248 785 232 801 q 286 769 264 769 q 326 785 310 769 q 342 825 342 801 q 326 865 342 849 q 286 881 310 881 m 156 68 q 195 83 179 68 q 211 122 211 99 q 195 162 211 146 q 156 178 179 178 q 117 162 133 178 q 101 122 101 146 q 117 83 101 99 q 156 68 133 68 m 156 207 q 195 223 179 207 q 211 263 211 239 q 195 301 211 286 q 156 317 179 317 q 117 301 133 317 q 101 263 101 286 q 117 223 101 239 q 156 207 133 207 m 156 349 q 195 365 179 349 q 211 403 211 381 q 195 442 211 426 q 156 458 179 458 q 117 442 133 458 q 101 403 101 426 q 117 365 101 381 q 156 349 133 349 m 156 486 q 195 502 179 486 q 211 542 211 518 q 195 581 211 565 q 156 597 179 597 q 117 581 133 597 q 101 542 101 565 q 117 502 101 518 q 156 486 133 486 m 156 632 q 195 648 179 632 q 211 688 211 664 q 195 726 211 711 q 156 742 179 742 q 117 726 133 742 q 101 688 101 711 q 117 648 101 664 q 156 632 133 632 m 156 775 q 195 790 179 775 q 211 829 211 806 q 195 869 211 853 q 156 885 179 885 q 117 869 133 885 q 101 829 101 853 q 117 790 101 806 q 156 775 133 775 m 281 421 q 319 437 303 421 q 335 476 335 453 q 319 516 335 500 q 281 532 303 532 q 241 516 257 532 q 225 476 225 500 q 241 437 225 453 q 281 421 257 421 m 414 435 q 453 451 438 435 q 468 489 468 467 q 453 528 468 513 q 414 544 438 544 q 374 528 390 544 q 358 489 358 513 q 374 451 358 467 q 414 435 390 435 m 510 531 q 549 546 533 531 q 564 585 564 561 q 549 624 564 608 q 510 640 533 640 q 470 624 486 640 q 454 585 454 608 q 470 546 454 561 q 510 531 486 531 z "},"q":{"ha":654,"x_min":26,"x_max":631,"o":"m 629 385 q 628 311 629 347 q 622 240 628 275 q 600 172 615 206 q 557 106 585 139 l 629 -61 l 367 -61 l 340 0 q 197 29 265 -3 q 85 124 129 61 q 47 192 60 157 q 31 262 35 226 q 26 333 26 297 q 26 407 26 369 q 26 437 26 414 q 26 490 26 460 q 26 554 26 519 q 26 619 26 589 q 27 673 26 650 q 29 703 28 696 q 83 839 39 778 q 194 933 126 900 q 342 964 267 968 q 478 924 417 960 q 582 825 540 888 q 628 682 624 763 q 630 608 631 644 q 629 533 629 571 l 629 385 m 560 689 q 544 728 560 713 q 504 744 528 744 q 465 728 481 744 q 449 689 449 713 q 465 649 449 665 q 504 633 481 633 q 544 649 528 633 q 560 689 560 665 m 454 863 q 415 847 431 863 q 399 807 399 831 q 415 767 399 783 q 454 751 431 751 q 494 767 478 751 q 510 807 510 783 q 494 847 510 831 q 454 863 478 863 m 333 906 q 294 889 310 906 q 278 849 278 872 q 294 809 278 825 q 333 793 310 793 q 374 809 357 793 q 390 849 390 825 q 374 889 390 872 q 333 906 357 906 m 207 868 q 167 851 183 868 q 151 811 151 835 q 167 772 151 788 q 207 756 183 756 q 247 772 231 756 q 263 811 263 788 q 247 851 263 835 q 207 868 231 868 m 149 749 q 109 733 125 749 q 93 693 93 717 q 109 653 93 669 q 149 638 125 638 q 189 653 172 638 q 206 693 206 669 q 189 733 206 717 q 149 749 172 749 m 149 613 q 109 597 125 613 q 93 557 93 581 q 109 517 93 533 q 149 500 125 500 q 189 517 172 500 q 206 557 206 533 q 189 597 206 581 q 149 613 172 613 m 149 465 q 109 449 125 465 q 93 408 93 432 q 109 369 93 385 q 149 353 125 353 q 189 369 172 353 q 206 408 206 385 q 189 449 206 432 q 149 465 172 465 m 90 272 q 107 233 90 249 q 147 217 124 217 q 187 233 171 217 q 203 272 203 249 q 187 312 203 296 q 147 328 171 328 q 107 312 124 328 q 90 272 90 296 m 210 99 q 249 115 233 99 q 265 156 265 132 q 249 195 265 179 q 210 211 233 211 q 170 195 186 211 q 154 156 154 179 q 170 115 154 132 q 210 99 186 99 m 288 708 q 269 679 272 694 q 267 644 267 664 l 267 576 l 267 301 q 277 268 267 282 q 302 247 288 254 q 334 242 317 240 q 367 256 351 243 q 385 285 383 269 q 388 319 388 300 l 388 388 l 388 663 q 378 696 388 682 q 353 717 368 710 q 320 722 338 724 q 288 708 303 721 m 335 61 q 375 78 358 61 q 392 118 392 94 q 375 158 392 142 q 335 174 358 174 q 295 158 311 174 q 279 118 279 142 q 295 78 279 94 q 335 61 311 61 m 453 229 q 413 213 429 229 q 397 174 397 197 q 413 134 397 150 q 453 118 429 118 q 492 134 476 118 q 508 174 508 150 q 492 213 508 197 q 453 229 476 229 m 465 -24 q 506 -8 489 -24 q 522 32 522 8 q 506 72 522 56 q 465 89 489 89 q 426 72 442 89 q 410 32 410 56 q 426 -8 410 8 q 465 -24 442 -24 m 507 238 q 547 253 531 238 q 563 293 563 269 q 547 333 563 317 q 507 350 531 350 q 467 333 483 350 q 450 293 450 317 q 467 253 450 269 q 507 238 483 238 m 511 367 q 551 383 535 367 q 567 424 567 400 q 551 463 567 447 q 511 479 535 479 q 472 463 488 479 q 456 424 456 447 q 472 383 456 400 q 511 367 488 367 m 511 506 q 551 522 535 506 q 567 561 567 538 q 551 601 567 585 q 511 618 535 618 q 472 601 488 618 q 456 561 456 585 q 472 522 456 538 q 511 506 488 506 z "},"r":{"ha":654,"x_min":36,"x_max":628,"o":"m 569 474 q 619 362 610 418 q 628 243 628 306 l 628 0 l 392 0 l 392 224 q 392 247 392 232 q 392 278 393 263 q 388 310 390 294 q 378 333 385 325 q 356 349 369 344 q 327 355 342 354 q 298 355 313 356 q 272 354 283 354 l 272 0 l 214 0 l 36 0 l 36 947 l 214 947 q 311 947 264 947 q 402 938 358 947 q 487 905 446 929 q 565 833 528 881 q 612 747 596 793 q 628 654 628 701 q 613 560 628 607 q 569 474 599 514 m 150 63 q 190 78 174 63 q 206 118 206 94 q 190 156 206 140 q 150 172 174 172 q 110 156 126 172 q 94 118 94 140 q 110 78 94 94 q 150 63 126 63 m 150 203 q 190 218 174 203 q 206 257 206 233 q 190 297 206 281 q 150 313 174 313 q 110 297 126 313 q 94 257 94 281 q 110 218 94 233 q 150 203 126 203 m 150 343 q 190 359 174 343 q 206 399 206 375 q 190 438 206 422 q 150 453 174 453 q 110 438 126 453 q 94 399 94 422 q 110 359 94 375 q 150 343 126 343 m 150 482 q 190 497 174 482 q 206 536 206 513 q 190 576 206 560 q 150 592 174 592 q 110 576 126 592 q 94 536 94 560 q 110 497 94 513 q 150 482 126 482 m 150 628 q 190 643 174 628 q 206 682 206 658 q 190 722 206 706 q 150 738 174 738 q 110 722 126 738 q 94 682 94 706 q 110 643 94 658 q 150 628 126 628 m 150 769 q 190 785 174 769 q 206 825 206 801 q 190 863 206 847 q 150 879 174 879 q 110 863 126 879 q 94 825 94 847 q 110 785 94 801 q 150 769 126 769 m 415 860 q 376 844 392 860 q 360 806 360 829 q 376 766 360 782 q 415 750 392 750 q 454 766 439 750 q 469 806 469 782 q 454 844 469 829 q 415 860 439 860 m 488 636 q 448 620 464 636 q 432 581 432 604 q 448 541 432 557 q 488 525 464 525 q 526 541 511 525 q 542 581 542 557 q 526 620 542 604 q 488 636 511 636 m 392 651 q 380 686 392 671 q 349 708 368 701 q 310 712 329 714 q 272 710 292 710 l 272 592 q 310 590 292 592 q 349 594 329 588 q 380 616 368 600 q 392 651 392 632 m 283 882 q 244 866 260 882 q 228 826 228 850 q 244 788 228 803 q 283 772 260 772 q 322 788 307 772 q 338 826 338 803 q 322 866 338 850 q 283 882 307 882 m 269 424 q 308 440 293 424 q 324 479 324 456 q 308 517 324 501 q 269 533 293 533 q 230 517 246 533 q 214 479 214 501 q 230 440 214 456 q 269 424 246 424 m 343 482 q 359 443 343 458 q 399 428 375 428 q 438 443 422 428 q 453 482 453 458 q 438 522 453 506 q 399 538 422 538 q 359 522 375 538 q 343 482 343 506 m 419 372 q 435 333 419 349 q 475 317 451 317 q 514 333 499 317 q 529 372 529 349 q 514 412 529 396 q 475 428 499 428 q 435 412 451 428 q 419 372 419 396 m 500 301 q 462 285 478 301 q 446 246 446 269 q 462 207 446 222 q 500 192 478 192 q 540 207 524 192 q 556 246 556 222 q 540 285 556 269 q 500 301 524 301 m 503 65 q 542 81 526 65 q 558 119 558 96 q 542 159 558 143 q 503 175 526 175 q 464 159 479 175 q 449 119 449 143 q 464 81 449 96 q 503 65 479 65 m 507 657 q 547 673 531 657 q 563 713 563 689 q 547 751 563 736 q 507 767 531 767 q 468 751 483 767 q 453 713 453 736 q 468 673 453 689 q 507 657 483 657 z "},"s":{"ha":654,"x_min":31,"x_max":626,"o":"m 329 593 q 449 569 394 593 q 542 503 503 544 q 603 410 581 463 q 626 302 625 358 q 606 190 626 246 q 538 88 585 135 q 436 20 492 42 q 324 0 381 -1 q 215 24 268 1 q 122 85 163 46 q 56 177 81 124 q 32 297 32 231 l 269 297 q 280 263 269 278 q 306 242 290 249 q 340 239 322 236 q 371 256 357 242 q 388 287 385 269 q 384 320 390 304 q 363 347 378 336 q 329 357 349 357 q 210 381 264 357 q 117 447 156 406 q 56 540 78 488 q 32 648 33 592 q 51 760 31 704 q 119 863 72 815 q 222 930 167 908 q 333 950 276 951 q 442 926 389 949 q 535 865 494 904 q 601 772 576 826 q 625 653 625 718 l 388 653 q 377 687 388 672 q 351 708 367 701 q 317 711 335 714 q 286 694 300 708 q 270 663 272 681 q 274 630 268 646 q 295 603 281 614 q 329 593 310 593 m 172 153 q 212 168 196 153 q 228 207 228 183 q 212 247 228 231 q 172 263 196 263 q 133 247 149 263 q 118 207 118 231 q 133 168 118 183 q 172 153 149 153 m 272 68 q 312 83 296 68 q 328 122 328 99 q 312 162 328 146 q 272 178 296 178 q 234 162 250 178 q 218 122 218 146 q 234 83 218 99 q 272 68 250 68 m 518 408 q 478 392 494 408 q 463 354 463 376 q 478 315 463 331 q 518 299 494 299 q 557 315 542 299 q 572 354 572 331 q 557 392 572 376 q 518 408 542 408 m 486 821 q 447 805 463 821 q 431 765 431 789 q 447 726 431 742 q 486 710 463 710 q 525 726 510 710 q 540 765 540 742 q 525 805 540 789 q 486 821 510 821 m 369 893 q 330 878 346 893 q 314 839 314 863 q 330 799 314 815 q 369 783 346 783 q 408 799 393 783 q 424 839 424 815 q 408 878 424 863 q 369 893 393 893 m 238 864 q 198 848 214 864 q 182 808 182 832 q 198 769 182 785 q 238 754 214 754 q 277 769 261 754 q 293 808 293 785 q 277 848 293 832 q 238 864 261 864 m 165 758 q 126 743 142 758 q 110 704 110 728 q 126 665 110 681 q 165 649 142 649 q 205 665 189 649 q 221 704 221 681 q 205 743 221 728 q 165 758 189 758 m 171 519 q 210 535 194 519 q 226 575 226 551 q 210 614 226 599 q 171 629 194 629 q 132 614 147 629 q 117 575 117 599 q 132 535 117 551 q 171 519 147 519 m 276 436 q 315 452 299 436 q 331 492 331 468 q 315 531 331 515 q 276 546 299 546 q 237 531 253 546 q 221 492 221 515 q 237 452 221 468 q 276 436 253 436 m 353 444 q 369 405 353 421 q 408 389 385 389 q 447 405 431 389 q 463 444 463 421 q 447 484 463 468 q 408 500 431 500 q 369 484 385 500 q 353 444 353 468 m 404 72 q 444 88 428 72 q 460 128 460 104 q 444 166 460 150 q 404 182 428 182 q 365 166 381 182 q 350 128 350 150 q 365 88 350 104 q 404 72 381 72 m 504 164 q 543 180 528 164 q 558 219 558 196 q 543 258 558 243 q 504 274 528 274 q 465 258 481 274 q 449 219 449 243 q 465 180 449 196 q 504 164 481 164 z "},"t":{"ha":578,"x_min":31,"x_max":546,"o":"m 546 947 l 546 710 l 407 710 l 407 0 l 169 0 l 169 710 l 31 710 l 31 947 l 546 947 m 157 775 q 197 791 181 775 q 213 831 213 807 q 197 870 213 854 q 157 886 181 886 q 117 870 133 886 q 101 831 101 854 q 117 791 101 807 q 157 775 133 775 m 289 67 q 327 82 311 67 q 343 121 343 97 q 327 160 343 144 q 289 176 311 176 q 249 160 265 176 q 233 121 233 144 q 249 82 233 97 q 289 67 265 67 m 289 206 q 327 222 311 206 q 343 261 343 238 q 327 301 343 285 q 289 317 311 317 q 249 301 265 317 q 233 261 233 285 q 249 222 233 238 q 289 206 265 206 m 289 344 q 327 360 311 344 q 343 400 343 376 q 327 440 343 424 q 289 456 311 456 q 249 440 265 456 q 233 400 233 424 q 249 360 233 376 q 289 344 265 344 m 289 494 q 327 510 311 494 q 343 550 343 526 q 327 589 343 574 q 289 604 311 604 q 249 589 265 604 q 233 550 233 574 q 249 510 233 526 q 289 494 265 494 m 289 631 q 327 647 311 631 q 343 686 343 663 q 327 726 343 710 q 289 742 311 742 q 249 726 265 742 q 233 686 233 710 q 249 647 233 663 q 289 631 265 631 m 289 774 q 327 790 311 774 q 343 828 343 806 q 327 867 343 851 q 289 883 311 883 q 249 867 265 883 q 233 828 233 851 q 249 790 233 806 q 289 774 265 774 m 429 776 q 469 792 453 776 q 485 832 485 808 q 469 871 485 856 q 429 886 453 886 q 390 871 406 886 q 374 832 374 856 q 390 792 374 808 q 429 776 406 776 z "},"u":{"ha":654,"x_min":31,"x_max":624,"o":"m 624 947 l 624 592 l 624 474 l 624 313 q 616 233 624 271 q 589 158 608 196 q 480 42 550 85 q 326 0 410 0 q 174 42 243 0 q 65 157 104 83 q 38 233 46 194 q 31 313 31 271 l 31 474 l 31 603 l 31 947 l 268 947 l 268 651 l 268 592 l 268 426 l 268 315 q 279 260 268 283 q 326 236 290 236 q 374 260 363 236 q 386 315 386 283 l 386 426 l 386 615 l 386 651 l 386 947 l 624 947 m 154 892 q 116 876 132 892 q 100 836 100 860 q 116 797 100 813 q 154 781 132 781 q 194 797 178 781 q 210 836 210 813 q 194 876 210 860 q 154 892 178 892 m 154 758 q 116 742 132 758 q 100 703 100 726 q 116 665 100 681 q 154 649 132 649 q 194 665 178 649 q 210 703 210 681 q 194 742 210 726 q 154 758 178 758 m 150 622 q 110 606 126 622 q 94 567 94 590 q 110 528 94 543 q 150 513 126 513 q 190 528 174 513 q 206 567 206 543 q 190 606 206 590 q 150 622 174 622 m 150 486 q 110 470 126 486 q 94 431 94 454 q 110 392 94 407 q 150 376 126 376 q 190 392 174 376 q 206 431 206 407 q 190 470 206 454 q 150 486 174 486 m 97 297 q 113 258 97 274 q 153 242 129 242 q 192 258 176 242 q 207 297 207 274 q 192 336 207 321 q 153 351 176 351 q 113 336 129 351 q 97 297 97 321 m 206 126 q 245 142 229 126 q 261 181 261 157 q 245 220 261 204 q 206 236 229 236 q 167 220 182 236 q 151 181 151 204 q 167 142 151 157 q 206 126 182 126 m 503 899 q 464 883 479 899 q 449 843 449 867 q 464 803 449 819 q 503 788 479 788 q 542 803 526 788 q 558 843 558 819 q 542 883 558 867 q 503 899 526 899 m 501 765 q 462 750 478 765 q 446 711 446 735 q 462 672 446 688 q 501 656 478 656 q 540 672 525 656 q 556 711 556 688 q 540 750 556 735 q 501 765 525 765 m 332 75 q 370 91 354 75 q 386 131 386 107 q 370 170 386 154 q 332 186 354 186 q 292 170 308 186 q 276 131 276 154 q 292 91 276 107 q 332 75 308 75 m 454 119 q 493 135 478 119 q 508 174 508 150 q 493 213 508 197 q 454 229 478 229 q 415 213 431 229 q 399 174 399 197 q 415 135 399 150 q 454 119 431 119 m 506 242 q 545 258 529 242 q 561 297 561 274 q 545 337 561 321 q 506 353 529 353 q 466 337 482 353 q 450 297 450 321 q 466 258 450 274 q 506 242 482 242 m 506 379 q 545 394 529 379 q 561 433 561 410 q 545 473 561 457 q 506 489 529 489 q 466 473 482 489 q 450 433 450 457 q 466 394 450 410 q 506 379 482 379 m 508 515 q 547 531 532 515 q 563 569 563 546 q 547 609 563 593 q 508 625 532 625 q 469 609 485 625 q 453 569 453 593 q 469 531 453 546 q 508 515 485 515 z "},"v":{"ha":635,"x_min":22,"x_max":615,"o":"m 615 949 l 465 0 l 172 0 l 22 949 l 263 949 l 318 592 l 375 949 l 615 949 m 100 844 q 121 809 103 822 q 163 799 139 796 q 199 819 185 801 q 208 861 213 838 q 188 897 206 883 q 146 907 169 910 q 110 886 124 904 q 100 844 97 868 m 126 701 q 147 665 129 678 q 188 654 165 651 q 224 676 211 658 q 235 717 238 694 q 214 753 232 740 q 172 764 196 767 q 135 743 149 761 q 126 701 122 725 m 146 561 q 167 526 149 539 q 208 515 185 513 q 245 536 232 518 q 256 578 258 554 q 233 613 251 600 q 193 624 215 626 q 156 603 169 621 q 146 561 143 585 m 164 425 q 185 388 167 401 q 226 378 203 375 q 263 399 250 381 q 272 440 276 417 q 251 477 269 464 q 210 488 233 490 q 174 465 188 483 q 164 425 161 447 m 181 282 q 201 247 183 260 q 243 236 219 233 q 278 257 265 239 q 289 299 292 275 q 268 335 286 322 q 226 344 250 347 q 191 324 204 342 q 181 282 178 306 m 310 129 q 299 170 313 151 q 264 192 286 189 q 222 181 240 194 q 201 146 204 168 q 210 104 197 122 q 247 83 224 86 q 289 92 271 79 q 310 129 307 106 m 442 129 q 431 170 444 151 q 396 192 418 189 q 354 181 372 194 q 333 146 336 168 q 342 104 329 122 q 379 82 356 86 q 421 92 403 79 q 442 129 439 106 m 454 274 q 444 315 457 297 q 408 336 431 333 q 367 326 385 339 q 346 290 349 314 q 355 249 342 267 q 392 228 368 231 q 433 238 415 225 q 454 274 451 250 m 471 421 q 462 461 475 443 q 425 483 449 479 q 384 473 403 486 q 363 436 365 460 q 373 396 360 414 q 408 374 386 378 q 450 384 432 371 q 471 421 468 397 m 492 561 q 483 603 496 585 q 446 624 469 621 q 404 613 422 626 q 383 578 386 600 q 394 536 381 554 q 429 515 407 518 q 471 524 453 511 q 492 561 489 538 m 514 701 q 503 742 517 724 q 467 764 490 760 q 426 753 444 767 q 404 717 408 740 q 415 676 401 694 q 450 654 428 658 q 492 665 474 651 q 514 701 510 678 m 472 794 q 514 805 496 792 q 535 840 532 818 q 526 882 539 864 q 489 903 513 900 q 447 894 465 907 q 426 857 429 881 q 437 815 424 833 q 472 794 450 797 z "},"x":{"ha":675,"x_min":18,"x_max":653,"o":"m 463 474 l 653 0 l 397 0 l 336 154 l 274 0 l 18 0 l 208 474 l 18 949 l 274 949 l 336 793 l 397 949 l 653 949 l 463 474 m 447 861 q 460 822 446 838 q 497 804 475 806 q 534 817 518 803 q 551 856 550 832 q 538 896 553 879 q 503 914 524 913 q 465 900 481 915 q 447 861 449 885 m 397 739 q 410 699 396 715 q 447 682 425 683 q 484 695 468 681 q 501 733 500 710 q 489 774 503 757 q 453 792 475 790 q 415 778 431 793 q 397 739 399 763 m 338 613 q 351 572 336 589 q 388 554 365 556 q 426 568 410 553 q 443 607 442 583 q 430 646 444 629 q 393 664 415 663 q 356 650 371 665 q 338 613 340 635 m 324 604 q 308 642 324 626 q 268 658 292 658 q 229 642 244 658 q 214 604 214 626 q 229 565 214 581 q 268 549 244 549 q 308 565 292 549 q 324 604 324 581 m 117 854 q 133 815 117 831 q 172 799 149 799 q 212 815 196 799 q 228 854 228 831 q 212 893 228 878 q 172 908 196 908 q 133 893 149 908 q 117 854 117 878 m 169 729 q 185 690 169 706 q 225 674 201 674 q 265 690 249 674 q 281 729 281 706 q 265 769 281 753 q 225 785 249 785 q 185 769 201 785 q 169 729 169 753 m 218 96 q 205 136 219 119 q 168 154 190 153 q 130 140 146 156 q 113 101 114 125 q 126 62 111 78 q 163 44 140 46 q 200 58 185 43 q 218 96 215 72 m 276 218 q 263 258 278 242 q 226 276 249 274 q 189 263 204 278 q 172 224 174 247 q 184 184 169 200 q 221 165 199 168 q 259 179 243 164 q 276 218 275 194 m 319 347 q 306 388 321 371 q 269 406 292 404 q 232 392 247 407 q 214 353 217 376 q 227 313 213 329 q 264 296 242 297 q 302 308 286 293 q 319 347 318 324 m 329 422 q 368 438 353 422 q 383 478 383 454 q 368 516 383 500 q 329 532 353 532 q 290 516 306 532 q 274 478 274 500 q 290 438 274 454 q 329 422 306 422 m 343 350 q 358 311 343 326 q 397 296 374 296 q 437 311 421 296 q 453 350 453 326 q 437 390 453 374 q 397 406 421 406 q 358 390 374 406 q 343 350 343 374 m 546 96 q 533 136 547 119 q 497 154 518 153 q 459 140 475 156 q 442 101 443 125 q 455 62 440 78 q 492 44 469 46 q 528 58 513 43 q 546 96 544 72 m 494 221 q 478 260 494 244 q 439 276 463 276 q 399 260 415 276 q 383 221 383 244 q 399 181 383 197 q 439 165 415 165 q 478 181 463 165 q 494 221 494 197 z "},"y":{"ha":654,"x_min":26,"x_max":618,"o":"m 618 947 l 618 597 q 572 431 618 506 q 440 321 525 357 l 440 0 l 204 0 l 204 321 q 73 431 119 357 q 26 597 26 506 l 26 947 l 263 947 l 263 724 l 263 611 q 274 557 263 581 q 322 533 286 533 q 369 557 358 533 q 381 611 381 581 l 381 724 l 381 947 l 618 947 m 146 900 q 107 885 122 900 q 92 846 92 869 q 107 806 92 822 q 146 790 122 790 q 185 806 169 790 q 201 846 201 822 q 185 885 201 869 q 146 900 169 900 m 146 765 q 107 749 122 765 q 92 710 92 733 q 107 670 92 686 q 146 654 122 654 q 185 670 169 654 q 201 710 201 686 q 185 749 201 733 q 146 765 169 765 m 89 574 q 105 534 89 550 q 144 518 121 518 q 183 534 167 518 q 199 574 199 550 q 183 613 199 597 q 144 628 167 628 q 105 613 121 628 q 89 574 89 597 m 190 397 q 230 413 214 397 q 246 451 246 428 q 230 491 246 475 q 190 507 214 507 q 152 491 168 507 q 136 451 136 475 q 152 413 136 428 q 190 397 168 397 m 321 454 q 282 438 297 454 q 267 399 267 422 q 282 360 267 375 q 321 344 297 344 q 360 360 344 344 q 376 399 376 375 q 360 438 376 422 q 321 454 344 454 m 322 65 q 361 81 346 65 q 376 119 376 96 q 361 159 376 143 q 322 175 346 175 q 283 159 299 175 q 267 119 267 143 q 283 81 267 96 q 322 65 299 65 m 322 206 q 361 222 346 206 q 376 261 376 238 q 361 300 376 285 q 322 315 346 315 q 283 300 299 315 q 267 261 267 285 q 283 222 267 238 q 322 206 299 206 m 450 390 q 490 406 474 390 q 506 444 506 422 q 490 484 506 468 q 450 500 474 500 q 411 484 426 500 q 396 444 396 468 q 411 406 396 422 q 450 390 426 390 m 504 511 q 544 527 528 511 q 560 565 560 543 q 544 605 560 589 q 504 621 528 621 q 465 605 481 621 q 450 565 450 589 q 465 527 450 543 q 504 511 481 511 m 507 647 q 546 663 531 647 q 561 703 561 679 q 546 742 561 726 q 507 757 531 757 q 467 742 483 757 q 451 703 451 726 q 467 663 451 679 q 507 647 483 647 m 507 783 q 546 799 531 783 q 561 839 561 815 q 546 877 561 861 q 507 893 531 893 q 467 877 483 893 q 451 839 451 861 q 467 799 451 815 q 507 783 483 783 z "},"z":{"ha":688,"x_min":36,"x_max":657,"o":"m 657 711 l 325 236 l 657 236 l 657 0 l 36 0 l 36 236 l 368 711 l 36 711 l 36 947 l 657 947 l 657 711 m 196 818 q 188 860 200 842 q 153 881 175 878 q 114 872 132 885 q 93 835 96 858 q 101 794 89 813 q 136 772 114 775 q 175 782 157 769 q 196 818 193 794 m 333 822 q 325 863 338 844 q 292 885 313 881 q 252 874 269 888 q 231 839 235 861 q 240 797 228 815 q 274 776 251 779 q 313 785 294 772 q 333 822 331 799 m 354 838 q 363 796 350 814 q 397 775 375 778 q 436 784 418 771 q 457 821 454 797 q 449 862 461 843 q 415 883 436 881 q 375 873 393 886 q 354 838 357 860 m 213 114 q 203 154 215 136 q 169 176 192 172 q 130 166 147 179 q 108 131 113 153 q 118 89 106 107 q 151 67 131 71 q 191 77 174 64 q 213 114 208 90 m 192 196 q 231 206 213 193 q 251 242 249 218 q 243 283 256 265 q 210 304 231 301 q 169 294 188 307 q 149 258 151 282 q 157 217 144 236 q 192 196 169 199 m 494 135 q 503 93 490 111 q 538 72 515 75 q 576 81 558 68 q 597 118 594 94 q 589 159 601 140 q 554 181 576 178 q 515 170 533 183 q 494 135 497 157 m 371 131 q 379 89 367 107 q 413 67 392 71 q 452 77 435 64 q 474 114 469 90 q 465 154 478 136 q 431 176 453 172 q 392 166 410 179 q 371 131 374 153 m 343 113 q 334 153 346 135 q 300 175 322 171 q 261 165 279 178 q 240 129 243 151 q 249 88 236 106 q 282 67 261 69 q 322 76 304 63 q 343 113 339 89 m 329 350 q 321 390 333 372 q 286 413 308 408 q 247 402 265 415 q 226 367 229 389 q 235 325 222 343 q 269 304 247 307 q 308 313 290 300 q 329 350 326 326 m 403 464 q 392 505 406 488 q 354 525 378 522 q 314 514 331 528 q 294 476 297 500 q 306 435 292 453 q 343 415 319 418 q 383 427 365 413 q 403 464 400 442 m 471 575 q 463 617 475 599 q 428 638 450 635 q 389 628 407 642 q 368 592 371 615 q 376 551 364 569 q 411 529 389 532 q 450 540 432 526 q 471 575 468 553 m 549 690 q 540 732 551 714 q 506 753 528 750 q 466 744 483 757 q 444 707 449 731 q 454 667 442 685 q 488 644 467 649 q 527 655 510 642 q 549 690 544 668 m 589 821 q 579 862 592 843 q 546 883 567 881 q 506 873 524 886 q 485 838 489 860 q 494 796 482 814 q 528 775 507 778 q 567 784 550 771 q 589 821 585 797 z "},"D":{"ha":654,"x_min":35,"x_max":626,"o":"m 331 947 q 446 924 392 947 q 540 861 500 901 q 603 767 581 821 q 626 651 626 713 l 626 296 q 603 181 626 235 q 540 88 581 128 q 446 24 500 47 q 331 0 392 0 l 271 0 l 213 0 l 35 0 l 35 947 l 213 947 l 271 947 l 331 947 m 553 668 q 537 708 553 692 q 497 724 521 724 q 458 708 474 724 q 443 668 443 692 q 458 629 443 644 q 497 614 474 614 q 537 629 521 614 q 553 668 553 644 m 431 840 q 392 824 408 840 q 376 785 376 808 q 392 747 376 763 q 431 731 408 731 q 470 747 454 731 q 486 785 486 763 q 470 824 486 808 q 431 840 454 840 m 300 882 q 262 866 278 882 q 246 826 246 850 q 262 788 246 803 q 300 772 278 772 q 340 788 324 772 q 356 826 356 803 q 340 866 356 850 q 300 882 324 882 m 160 64 q 198 80 182 64 q 214 119 214 96 q 198 159 214 143 q 160 175 182 175 q 120 159 136 175 q 104 119 104 143 q 120 80 104 96 q 160 64 136 64 m 160 204 q 198 220 182 204 q 214 260 214 236 q 198 299 214 283 q 160 314 182 314 q 120 299 136 314 q 104 260 104 283 q 120 220 104 236 q 160 204 136 204 m 160 343 q 198 359 182 343 q 214 399 214 375 q 198 438 214 422 q 160 453 182 453 q 120 438 136 453 q 104 399 104 422 q 120 359 104 375 q 160 343 136 343 m 160 493 q 198 509 182 493 q 214 549 214 525 q 198 587 214 571 q 160 603 182 603 q 120 587 136 603 q 104 549 104 571 q 120 509 104 525 q 160 493 136 493 m 160 629 q 198 645 182 629 q 214 685 214 661 q 198 724 214 708 q 160 739 182 739 q 120 724 136 739 q 104 685 104 708 q 120 645 104 661 q 160 629 136 629 m 160 772 q 198 788 182 772 q 214 826 214 803 q 198 866 214 850 q 160 882 182 882 q 120 866 136 882 q 104 826 104 850 q 120 788 104 803 q 160 772 136 772 m 300 64 q 339 80 324 64 q 354 119 354 96 q 339 159 354 143 q 300 175 324 175 q 260 159 276 175 q 244 119 244 143 q 260 80 244 96 q 300 64 276 64 m 346 239 q 377 260 365 244 q 389 294 389 275 q 390 369 392 332 q 389 444 389 407 l 389 594 q 391 630 389 613 q 388 665 393 647 l 388 667 l 388 669 q 386 672 386 671 q 385 675 386 674 q 383 676 385 676 q 382 679 383 679 l 382 681 q 376 688 379 686 q 375 690 376 689 q 374 692 375 690 l 372 693 q 371 694 372 694 q 369 696 371 694 l 368 697 l 367 699 q 365 699 365 699 q 364 700 365 700 l 363 701 q 361 703 363 701 l 360 703 q 358 704 358 704 q 356 706 357 704 l 353 706 q 347 708 350 708 q 309 713 328 714 q 271 711 290 711 l 271 592 l 271 238 q 308 235 290 238 q 346 239 326 233 m 431 94 q 469 110 454 94 q 485 150 485 126 q 469 188 485 172 q 431 204 454 204 q 391 188 407 204 q 375 150 375 172 q 391 110 375 126 q 431 94 407 94 m 497 215 q 537 231 521 215 q 553 271 553 247 q 537 310 553 294 q 497 326 521 326 q 458 310 474 326 q 443 271 443 294 q 458 231 443 247 q 497 215 474 215 m 507 350 q 547 366 531 350 q 563 406 563 382 q 547 444 563 429 q 507 460 531 460 q 467 444 483 460 q 451 406 451 429 q 467 366 451 382 q 507 350 483 350 m 507 485 q 547 501 531 485 q 563 540 563 517 q 547 580 563 564 q 507 596 531 596 q 467 580 483 596 q 451 540 451 564 q 467 501 451 517 q 507 485 483 485 z "},"w":{"ha":1025,"x_min":38,"x_max":989,"o":"m 986 949 q 988 622 986 785 q 986 294 989 458 q 939 135 986 203 q 822 31 892 67 q 668 1 751 -4 q 513 60 585 6 q 356 1 439 6 q 203 31 274 -4 q 86 135 133 67 q 39 294 39 203 q 38 622 38 458 q 39 949 39 785 l 276 949 l 276 653 l 276 593 l 276 428 l 276 315 q 288 261 276 285 q 335 238 299 238 q 383 261 371 238 q 394 315 394 285 l 394 428 l 394 617 l 394 653 l 394 949 l 631 949 l 631 653 l 631 593 l 631 428 l 631 315 q 642 261 631 285 q 690 238 654 238 q 738 261 726 238 q 750 315 750 285 l 750 428 l 750 617 l 750 653 l 750 949 l 986 949 m 514 513 q 553 528 538 513 q 569 568 569 544 q 553 607 569 592 q 514 622 538 622 q 474 607 490 622 q 458 568 458 592 q 474 528 458 544 q 514 513 490 513 m 569 432 q 553 471 569 456 q 514 486 538 486 q 474 471 490 486 q 458 432 458 456 q 474 392 458 408 q 514 376 490 376 q 553 392 538 376 q 569 432 569 408 m 514 644 q 553 660 538 644 q 569 700 569 676 q 553 739 569 724 q 514 754 538 754 q 474 739 490 754 q 458 700 458 724 q 474 660 458 676 q 514 644 490 644 m 511 899 q 472 883 488 899 q 457 843 457 867 q 472 804 457 819 q 511 789 488 789 q 551 804 535 789 q 567 843 567 819 q 551 883 567 867 q 511 899 535 899 m 511 350 q 472 334 488 350 q 457 294 457 318 q 472 256 457 272 q 511 240 488 240 q 551 256 535 240 q 567 294 567 272 q 551 334 567 318 q 511 350 535 350 m 153 513 q 192 528 176 513 q 208 568 208 544 q 192 607 208 592 q 153 622 176 622 q 113 607 129 622 q 97 568 97 592 q 113 528 97 544 q 153 513 129 513 m 208 432 q 192 471 208 456 q 153 486 176 486 q 113 471 129 486 q 97 432 97 456 q 113 392 97 408 q 153 376 129 376 q 192 392 176 376 q 208 432 208 408 m 153 647 q 192 663 176 647 q 208 701 208 679 q 192 741 208 725 q 153 757 176 757 q 113 741 129 757 q 97 701 97 725 q 113 663 97 679 q 153 647 129 647 m 150 899 q 111 883 126 899 q 96 843 96 867 q 111 804 96 819 q 150 789 126 789 q 190 804 174 789 q 206 843 206 819 q 190 883 206 867 q 150 899 174 899 m 97 297 q 113 258 97 274 q 153 242 129 242 q 192 258 176 242 q 208 297 208 274 q 192 337 208 321 q 153 353 176 353 q 113 337 129 353 q 97 297 97 321 m 185 118 q 224 134 208 118 q 240 172 240 150 q 224 212 240 196 q 185 228 208 228 q 146 212 161 228 q 131 172 131 196 q 146 134 131 150 q 185 118 161 118 m 304 60 q 343 76 328 60 q 358 115 358 92 q 343 155 358 139 q 304 171 328 171 q 265 155 281 171 q 249 115 249 139 q 265 76 249 92 q 304 60 281 60 m 429 100 q 467 115 451 100 q 483 154 483 131 q 467 194 483 178 q 429 210 451 210 q 390 194 406 210 q 374 154 374 178 q 390 115 374 131 q 429 100 406 100 m 558 118 q 598 134 582 118 q 614 174 614 150 q 598 213 614 197 q 558 229 582 229 q 519 213 535 229 q 504 174 504 197 q 519 134 504 150 q 558 118 535 118 m 689 68 q 728 84 713 68 q 744 124 744 100 q 728 163 744 147 q 689 178 713 178 q 649 163 665 178 q 633 124 633 147 q 649 84 633 100 q 689 68 665 68 m 872 892 q 833 876 849 892 q 818 836 818 860 q 833 797 818 813 q 872 781 849 781 q 912 797 896 781 q 928 836 928 813 q 912 876 928 860 q 872 892 896 892 m 872 751 q 833 736 849 751 q 818 697 818 721 q 833 658 818 674 q 872 642 849 642 q 912 658 896 642 q 928 697 928 674 q 912 736 928 721 q 872 751 896 751 m 818 113 q 858 128 842 113 q 874 167 874 143 q 858 206 874 190 q 818 222 842 222 q 779 206 794 222 q 764 167 764 190 q 779 128 764 143 q 818 113 794 113 m 872 233 q 912 249 896 233 q 928 288 928 264 q 912 327 928 311 q 872 343 896 343 q 833 327 849 343 q 818 288 818 311 q 833 249 818 264 q 872 233 849 233 m 875 369 q 914 385 899 369 q 929 425 929 401 q 914 463 929 447 q 875 479 899 479 q 835 463 851 479 q 819 425 819 447 q 835 385 819 401 q 875 369 851 369 m 875 506 q 914 522 899 506 q 929 561 929 538 q 914 599 929 583 q 875 615 899 615 q 835 599 851 615 q 819 561 819 583 q 835 522 819 538 q 875 506 851 506 z "},"B":{"ha":654,"x_min":35,"x_max":631,"o":"m 331 947 q 491 901 422 947 q 595 784 560 854 q 626 631 631 714 q 567 474 622 547 q 626 317 622 400 q 595 164 631 235 q 491 47 560 93 q 331 0 422 0 l 271 0 l 211 0 l 35 0 l 35 947 l 211 947 l 271 947 l 331 947 m 153 72 q 192 88 176 72 q 208 126 208 103 q 192 166 208 150 q 153 182 176 182 q 114 166 129 182 q 99 126 99 150 q 114 88 99 103 q 153 72 129 72 m 153 211 q 192 227 176 211 q 208 267 208 243 q 192 306 208 290 q 153 321 176 321 q 114 306 129 321 q 99 267 99 290 q 114 227 99 243 q 153 211 129 211 m 153 353 q 192 369 176 353 q 208 407 208 385 q 192 447 208 431 q 153 463 176 463 q 114 447 129 463 q 99 407 99 431 q 114 369 99 385 q 153 353 129 353 m 153 490 q 192 506 176 490 q 208 546 208 522 q 192 585 208 569 q 153 601 176 601 q 114 585 129 601 q 99 546 99 569 q 114 506 99 522 q 153 490 129 490 m 153 636 q 192 652 176 636 q 208 692 208 668 q 192 731 208 715 q 153 747 176 747 q 114 731 129 747 q 99 692 99 715 q 114 652 99 668 q 153 636 129 636 m 153 779 q 192 794 176 779 q 208 833 208 810 q 192 873 208 857 q 153 889 176 889 q 114 873 129 889 q 99 833 99 857 q 114 794 99 810 q 153 779 129 779 m 350 485 q 366 447 350 463 q 404 431 382 431 q 444 447 428 431 q 460 485 460 463 q 444 524 460 508 q 404 540 428 540 q 366 524 382 540 q 350 485 350 508 m 389 296 q 372 338 389 321 q 331 356 354 356 l 271 356 l 271 238 l 331 238 q 372 255 354 238 q 389 296 389 272 m 331 593 q 372 610 354 593 q 389 651 389 628 q 372 694 389 676 q 331 711 354 711 l 271 711 l 271 593 l 331 593 m 485 435 q 446 419 461 435 q 431 381 431 403 q 446 341 431 357 q 485 325 461 325 q 524 341 508 325 q 540 381 540 357 q 524 419 540 403 q 485 435 508 435 m 507 538 q 547 553 531 538 q 563 593 563 569 q 547 631 563 615 q 507 647 531 647 q 468 631 483 647 q 453 593 453 615 q 468 553 453 569 q 507 538 483 538 m 556 726 q 540 766 556 750 q 500 782 524 782 q 462 766 478 782 q 446 726 446 750 q 462 688 446 703 q 500 672 478 672 q 540 688 524 672 q 556 726 556 703 m 414 881 q 374 865 390 881 q 358 825 358 849 q 374 786 358 801 q 414 771 390 771 q 453 786 438 771 q 469 825 469 801 q 453 865 469 849 q 414 881 438 881 m 285 888 q 246 872 261 888 q 231 832 231 856 q 246 793 231 808 q 285 778 261 778 q 324 793 308 778 q 340 832 340 808 q 324 872 340 856 q 285 888 308 888 m 276 539 q 237 523 253 539 q 221 483 221 507 q 237 444 221 460 q 276 429 253 429 q 315 444 299 429 q 331 483 331 460 q 315 523 331 507 q 276 539 299 539 m 289 69 q 328 85 313 69 q 344 125 344 101 q 328 163 344 147 q 289 179 313 179 q 251 163 267 179 q 235 125 235 147 q 251 85 235 101 q 289 69 267 69 m 421 90 q 460 106 444 90 q 476 146 476 122 q 460 185 476 169 q 421 200 444 200 q 381 185 397 200 q 365 146 365 169 q 381 106 365 122 q 421 90 397 90 m 569 251 q 553 290 569 275 q 514 306 538 306 q 475 290 490 306 q 460 251 460 275 q 475 212 460 228 q 514 196 490 196 q 553 212 538 196 q 569 251 569 228 z "},"C":{"ha":654,"x_min":33,"x_max":625,"o":"m 621 297 l 625 297 q 592 160 625 222 q 504 59 558 99 q 381 6 450 19 q 242 14 313 -8 q 124 83 174 35 q 50 200 74 132 q 35 267 38 233 q 33 336 33 300 l 33 475 l 33 613 q 35 682 33 649 q 50 750 38 715 q 124 865 74 817 q 242 935 174 914 q 381 944 313 957 q 504 890 450 931 q 592 788 558 850 q 625 651 625 726 l 389 651 q 372 692 389 675 q 331 711 354 710 q 290 697 307 713 q 269 657 272 681 q 268 565 267 611 q 269 475 269 519 q 268 383 269 429 q 269 293 267 338 q 290 253 272 269 q 331 238 307 236 q 372 256 354 239 q 389 297 389 274 l 621 297 m 474 819 q 435 804 450 819 q 419 765 419 789 q 435 726 419 742 q 474 710 450 710 q 513 726 497 710 q 529 765 529 742 q 513 804 529 789 q 474 819 497 819 m 342 878 q 302 862 318 878 q 286 822 286 846 q 302 783 286 799 q 342 767 318 767 q 381 783 365 767 q 397 822 397 799 q 381 862 397 846 q 342 878 365 878 m 213 833 q 173 817 189 833 q 157 779 157 801 q 173 740 157 756 q 213 724 189 724 q 252 740 236 724 q 268 779 268 756 q 252 817 268 801 q 213 833 236 833 m 158 713 q 119 697 135 713 q 103 658 103 681 q 119 619 103 635 q 158 603 135 603 q 198 619 182 603 q 214 658 214 635 q 198 697 214 681 q 158 713 182 713 m 156 576 q 117 560 132 576 q 101 521 101 544 q 117 482 101 497 q 156 467 132 467 q 195 482 179 467 q 211 521 211 497 q 195 560 211 544 q 156 576 179 576 m 156 440 q 117 424 132 440 q 101 385 101 408 q 117 346 101 361 q 156 331 132 331 q 195 346 179 331 q 211 385 211 361 q 195 424 211 408 q 156 440 179 440 m 108 253 q 124 213 108 229 q 163 197 139 197 q 202 213 186 197 q 218 253 218 229 q 202 291 218 275 q 163 307 186 307 q 124 291 139 307 q 108 253 108 275 m 240 90 q 280 106 264 90 q 296 146 296 122 q 280 184 296 168 q 240 200 264 200 q 202 184 218 200 q 186 146 186 168 q 202 106 186 122 q 240 90 218 90 m 371 67 q 410 83 394 67 q 426 122 426 99 q 410 162 426 146 q 371 178 394 178 q 333 162 349 178 q 317 122 317 146 q 333 83 317 99 q 371 67 349 67 m 482 149 q 522 165 506 149 q 538 204 538 181 q 522 243 538 228 q 482 258 506 258 q 442 243 458 258 q 426 204 426 228 q 442 165 426 181 q 482 149 458 149 z "},"A":{"ha":654,"x_min":33,"x_max":626,"o":"m 576 814 q 619 705 613 760 q 626 589 626 650 l 626 503 l 626 354 l 626 0 l 389 0 l 389 236 l 271 236 l 271 0 l 33 0 l 33 469 q 33 516 33 483 q 33 586 33 549 q 34 656 33 624 q 38 703 35 689 q 81 812 49 763 q 163 896 114 861 q 272 942 214 931 q 385 942 329 953 q 492 898 442 931 q 576 814 542 865 m 564 658 q 548 698 564 682 q 508 714 532 714 q 469 698 485 714 q 454 658 454 682 q 469 620 454 636 q 508 604 485 604 q 548 620 532 604 q 564 658 564 636 m 456 831 q 416 815 432 831 q 400 775 400 799 q 416 735 400 751 q 456 719 432 719 q 494 735 478 719 q 510 775 510 751 q 494 815 510 799 q 456 831 478 831 m 332 876 q 292 860 308 876 q 276 821 276 844 q 292 781 276 797 q 332 765 308 765 q 372 781 356 765 q 388 821 388 797 q 372 860 388 844 q 332 876 356 876 m 276 675 q 269 642 268 658 q 271 608 271 625 l 271 474 l 389 474 l 389 608 q 390 642 389 625 q 383 675 392 658 q 329 710 368 710 q 276 675 292 710 m 210 832 q 170 816 186 832 q 154 778 154 800 q 170 738 154 754 q 210 722 186 722 q 249 738 233 722 q 264 778 264 754 q 249 816 264 800 q 210 832 233 832 m 156 714 q 116 698 132 714 q 100 658 100 682 q 116 619 100 635 q 156 604 132 604 q 194 619 179 604 q 210 658 210 635 q 194 698 210 682 q 156 714 179 714 m 156 576 q 116 561 132 576 q 100 522 100 546 q 116 483 100 499 q 156 467 132 467 q 194 483 179 467 q 210 522 210 499 q 194 561 210 546 q 156 576 179 576 m 153 442 q 114 426 129 442 q 99 386 99 410 q 114 347 99 363 q 153 331 129 331 q 192 347 176 331 q 208 386 208 363 q 192 426 208 410 q 153 442 176 442 m 158 58 q 197 74 181 58 q 213 113 213 89 q 197 152 213 136 q 158 168 181 168 q 119 152 135 168 q 103 113 103 136 q 119 74 103 89 q 158 58 135 58 m 160 190 q 199 206 183 190 q 215 244 215 221 q 199 284 215 268 q 160 300 183 300 q 121 284 136 300 q 106 244 106 268 q 121 206 106 221 q 160 190 136 190 m 269 281 q 308 297 293 281 q 324 336 324 313 q 308 374 324 358 q 269 390 293 390 q 230 374 246 390 q 214 336 214 358 q 230 297 214 313 q 269 281 246 281 m 394 281 q 433 297 417 281 q 449 336 449 313 q 433 374 449 358 q 394 390 417 390 q 355 374 371 390 q 339 336 339 358 q 355 297 339 313 q 394 281 371 281 m 506 65 q 545 81 529 65 q 561 119 561 96 q 545 159 561 143 q 506 175 529 175 q 467 159 483 175 q 451 119 451 143 q 467 81 451 96 q 506 65 483 65 m 506 197 q 545 213 529 197 q 561 253 561 229 q 545 291 561 275 q 506 307 529 307 q 467 291 483 307 q 451 253 451 275 q 467 213 451 229 q 506 197 483 197 m 511 333 q 550 349 535 333 q 565 389 565 365 q 550 428 565 413 q 511 443 535 443 q 472 428 488 443 q 456 389 456 413 q 472 349 456 365 q 511 333 488 333 m 511 469 q 550 485 535 469 q 565 525 565 501 q 550 564 565 549 q 511 579 535 579 q 472 564 488 579 q 456 525 456 549 q 472 485 456 501 q 511 469 488 469 z "}}}
